<svg xmlns="http://www.w3.org/2000/svg" xmlns:xlink="http://www.w3.org/1999/xlink" width="1920" zoomAndPan="magnify" viewBox="0 0 1440 809.999993" height="1080" preserveAspectRatio="xMidYMid meet" version="1.2"><g id="de54d5132e"><path style=" stroke:none;fill-rule:nonzero;fill:#0d412d;fill-opacity:1;" d="M 953.890625 290.289062 C 961.441406 288.230469 967.617188 283.425781 970.363281 276.5625 C 970.363281 275.875 971.046875 275.875 971.046875 275.191406 L 978.597656 250.484375 C 982.714844 240.875 979.96875 229.210938 971.734375 222.347656 C 923.007812 180.484375 863.992188 151.664062 800.855469 138.625 C 798.109375 142.054688 795.367188 145.488281 791.933594 148.917969 C 786.445312 154.410156 780.953125 159.210938 774.089844 163.328125 C 783.699219 164.703125 790.5625 165.386719 792.621094 165.386719 C 851.636719 177.742188 906.539062 204.503906 951.832031 242.25 L 946.34375 261.464844 C 902.421875 227.152344 853.011719 203.820312 800.167969 190.78125 C 792.621094 189.40625 785.070312 193.523438 783.699219 201.074219 C 783.011719 203.132812 783.011719 205.878906 783.699219 207.9375 L 783.699219 277.933594 C 792.621094 275.875 801.542969 274.503906 811.148438 274.503906 L 811.148438 222.347656 C 854.382812 235.386719 895.558594 255.972656 932.617188 285.484375 C 938.792969 290.289062 946.34375 291.660156 953.890625 290.289062 Z M 953.890625 290.289062 "/><path style=" stroke:none;fill-rule:nonzero;fill:#0d412d;fill-opacity:1;" d="M 466.648438 228.523438 C 459.785156 235.386719 457.039062 245.679688 460.472656 255.289062 L 467.332031 278.621094 C 467.332031 279.308594 467.332031 279.308594 468.019531 279.992188 C 470.765625 287.542969 477.628906 293.03125 485.175781 294.40625 C 486.550781 295.089844 488.609375 295.089844 490.667969 295.089844 C 496.84375 295.089844 502.332031 293.03125 507.136719 288.914062 C 543.507812 256.660156 586.054688 233.328125 632.035156 220.289062 L 632.035156 274.503906 C 641.644531 275.191406 650.566406 276.5625 659.484375 278.621094 L 659.484375 207.9375 C 659.484375 207.25 659.484375 205.878906 659.484375 205.191406 C 660.171875 203.132812 660.171875 201.074219 659.484375 199.703125 C 658.113281 192.152344 650.566406 187.347656 643.015625 189.40625 C 588.117188 201.761719 535.960938 227.839844 492.726562 264.894531 L 487.234375 247.054688 C 530.46875 205.878906 586.054688 177.054688 646.449219 164.703125 C 648.507812 164.703125 655.367188 163.328125 664.976562 162.644531 C 658.800781 158.527344 652.625 153.722656 647.132812 148.917969 C 643.703125 145.488281 640.957031 142.054688 638.210938 138.625 C 573.015625 152.347656 513.3125 183.230469 466.648438 228.523438 Z M 466.648438 228.523438 "/><path style=" stroke:none;fill-rule:nonzero;fill:#0d412d;fill-opacity:1;" d="M 719.878906 0 C 678.703125 0 645.074219 33.625 645.074219 75.488281 C 645.074219 95.390625 652.625 114.605469 667.035156 129.015625 C 681.445312 143.429688 699.976562 150.976562 719.878906 150.976562 C 739.777344 150.976562 758.992188 143.429688 772.71875 129.015625 C 787.128906 114.605469 794.679688 96.078125 794.679688 75.488281 C 794.679688 33.625 761.050781 0 719.878906 0 Z M 753.503906 109.800781 C 744.582031 118.722656 732.914062 123.527344 719.878906 123.527344 C 707.523438 123.527344 695.171875 118.722656 686.25 109.800781 C 677.328125 100.878906 672.523438 88.527344 672.523438 75.488281 C 672.523438 48.722656 693.800781 27.449219 719.878906 27.449219 C 745.953125 27.449219 767.230469 48.722656 767.230469 75.488281 C 767.230469 88.527344 762.425781 100.195312 753.503906 109.800781 Z M 753.503906 109.800781 "/><path style=" stroke:none;fill-rule:nonzero;fill:#0d412d;fill-opacity:1;" d="M 435.078125 507.144531 C 436.453125 514.695312 443.316406 519.496094 450.863281 518.8125 C 453.609375 518.125 455.667969 517.4375 457.039062 516.066406 C 457.039062 516.066406 457.726562 516.066406 457.726562 516.066406 L 496.15625 498.910156 L 494.097656 496.164062 C 493.410156 495.480469 493.410156 494.792969 492.726562 494.105469 L 489.980469 489.300781 C 489.292969 488.617188 488.609375 487.242188 488.609375 486.558594 C 486.550781 482.441406 485.175781 478.324219 483.117188 474.203125 L 459.785156 484.5 C 455.667969 439.207031 459.785156 392.539062 473.511719 347.246094 C 475.570312 339.699219 474.195312 332.148438 470.078125 325.972656 C 465.273438 319.796875 458.414062 315.679688 450.863281 315.679688 C 450.175781 315.679688 450.175781 315.679688 449.492188 315.679688 L 423.414062 317.738281 C 413.121094 317.738281 403.511719 324.601562 400.082031 334.894531 C 379.492188 396.65625 374.6875 463.226562 386.355469 527.734375 C 398.023438 531.164062 409 536.65625 418.609375 543.515625 C 415.863281 533.910156 413.804688 526.359375 413.804688 524.988281 C 402.824219 464.597656 406.941406 402.835938 426.15625 345.875 L 447.433594 344.503906 C 430.277344 398.03125 426.84375 452.929688 435.078125 507.144531 Z M 435.078125 507.144531 "/><path style=" stroke:none;fill-rule:nonzero;fill:#0d412d;fill-opacity:1;" d="M 468.019531 662.238281 C 467.332031 660.867188 463.214844 654.003906 458.414062 645.082031 C 457.039062 652.632812 454.980469 659.496094 451.550781 667.042969 C 449.492188 671.160156 447.433594 675.277344 445.375 678.710938 C 483.804688 735.667969 535.273438 780.277344 595.664062 807.726562 C 599.09375 809.097656 602.527344 809.785156 605.957031 809.785156 C 612.132812 809.785156 618.3125 807.726562 623.113281 803.609375 L 642.328125 788.511719 C 643.015625 788.511719 643.015625 787.824219 643.703125 787.824219 C 649.191406 782.335938 651.9375 774.101562 651.25 766.550781 C 650.566406 759.003906 645.074219 752.140625 638.210938 748.023438 C 594.292969 726.0625 555.859375 693.808594 526.351562 655.378906 L 596.351562 621.0625 L 577.820312 599.105469 L 503.707031 635.476562 C 503.019531 635.476562 503.019531 636.160156 502.332031 636.160156 C 500.273438 636.160156 498.214844 636.847656 496.84375 638.222656 C 490.667969 642.339844 489.292969 651.261719 493.410156 657.4375 C 525.664062 704.789062 570.273438 743.90625 621.742188 770.667969 L 606.644531 782.335938 C 551.058594 756.257812 503.019531 715.082031 468.019531 662.238281 Z M 468.019531 662.238281 "/><path style=" stroke:none;fill-rule:nonzero;fill:#0d412d;fill-opacity:1;" d="M 356.847656 702.730469 C 366.453125 702.730469 376.0625 700.671875 384.984375 697.238281 C 404.199219 689.691406 418.609375 675.277344 426.84375 656.75 C 435.078125 638.222656 435.078125 617.632812 427.53125 598.417969 C 411.746094 559.300781 367.824219 540.773438 328.710938 555.871094 C 309.496094 563.417969 295.082031 577.828125 286.847656 596.359375 C 278.613281 614.886719 278.613281 635.476562 286.160156 654.691406 C 297.828125 684.199219 326.652344 702.730469 356.847656 702.730469 Z M 312.238281 607.339844 C 317.042969 595.671875 326.652344 586.066406 339.003906 581.261719 C 345.179688 579.203125 351.355469 577.828125 356.847656 577.828125 C 376.0625 577.828125 394.589844 589.496094 402.140625 608.023438 C 406.941406 619.691406 406.941406 633.417969 401.453125 645.082031 C 396.648438 656.75 387.042969 666.355469 374.6875 671.160156 C 349.984375 680.769531 321.160156 669.101562 311.554688 644.398438 C 306.75 632.730469 306.75 619.691406 312.238281 607.339844 Z M 312.238281 607.339844 "/><path style=" stroke:none;fill-rule:nonzero;fill:#0d412d;fill-opacity:1;" d="M 1022.515625 542.832031 C 1032.125 535.96875 1043.105469 530.476562 1054.769531 527.046875 C 1066.4375 462.539062 1061.632812 395.972656 1041.046875 334.207031 C 1037.613281 323.914062 1028.007812 317.050781 1017.714844 317.050781 L 991.636719 314.992188 C 990.949219 314.992188 990.949219 314.992188 990.261719 314.992188 C 982.714844 314.992188 975.851562 319.109375 971.046875 325.285156 C 966.242188 331.464844 964.871094 339.011719 967.617188 346.5625 C 981.339844 392.539062 985.460938 438.519531 981.339844 483.8125 L 958.007812 473.519531 C 956.636719 477.636719 954.578125 481.753906 952.519531 485.871094 C 951.832031 486.558594 951.832031 487.929688 951.144531 488.617188 L 947.027344 494.105469 C 946.34375 494.792969 946.34375 495.480469 945.65625 496.164062 L 943.597656 498.910156 L 982.027344 516.066406 C 982.027344 516.066406 982.714844 516.066406 982.714844 516.066406 C 984.773438 517.4375 986.832031 518.8125 988.890625 518.8125 C 996.4375 520.183594 1003.300781 514.695312 1004.675781 507.144531 C 1012.910156 452.929688 1009.476562 397.34375 993.695312 343.128906 L 1014.96875 344.503906 C 1034.183594 401.460938 1038.300781 463.226562 1027.320312 523.617188 C 1026.632812 525.675781 1025.261719 533.222656 1022.515625 542.832031 Z M 1022.515625 542.832031 "/><path style=" stroke:none;fill-rule:nonzero;fill:#0d412d;fill-opacity:1;" d="M 987.519531 667.042969 C 984.773438 660.179688 982.714844 652.632812 980.65625 645.082031 C 975.851562 654.003906 972.421875 660.867188 971.046875 662.238281 C 936.046875 715.082031 888.011719 756.257812 833.109375 781.648438 L 818.011719 769.984375 C 869.480469 743.21875 913.402344 704.101562 946.34375 656.75 C 950.460938 650.574219 949.085938 641.652344 942.910156 637.535156 C 941.539062 636.160156 939.480469 635.476562 937.421875 635.476562 C 936.734375 635.476562 936.734375 634.789062 936.046875 634.789062 L 861.933594 598.417969 L 843.402344 620.378906 L 913.402344 654.691406 C 884.578125 693.121094 846.148438 725.375 802.226562 747.335938 C 795.367188 750.765625 789.875 757.628906 789.1875 765.863281 C 788.503906 774.101562 790.5625 781.648438 796.738281 787.140625 C 797.425781 787.140625 797.425781 787.824219 798.109375 787.824219 L 817.324219 802.921875 C 822.128906 807.039062 828.304688 809.097656 834.480469 809.097656 C 837.914062 809.097656 841.34375 808.414062 844.777344 807.039062 C 905.167969 779.589844 956.636719 734.984375 995.066406 678.023438 C 991.636719 675.277344 989.578125 671.160156 987.519531 667.042969 Z M 987.519531 667.042969 "/><path style=" stroke:none;fill-rule:nonzero;fill:#0d412d;fill-opacity:1;" d="M 1111.042969 555.871094 C 1071.929688 540.085938 1027.320312 559.300781 1012.222656 598.417969 C 1004.675781 616.945312 1004.675781 637.535156 1012.910156 656.75 C 1021.144531 675.277344 1035.554688 689.691406 1054.769531 697.238281 C 1063.691406 700.671875 1073.300781 702.730469 1082.90625 702.730469 C 1113.101562 702.730469 1141.925781 684.886719 1153.59375 655.378906 C 1161.140625 636.847656 1161.140625 616.261719 1152.90625 597.046875 C 1144.671875 577.828125 1130.261719 563.417969 1111.042969 555.871094 Z M 1128.199219 644.398438 C 1117.90625 669.101562 1089.769531 681.457031 1065.066406 671.160156 C 1052.710938 666.359375 1043.792969 657.4375 1038.300781 645.082031 C 1033.496094 633.417969 1032.8125 620.378906 1037.613281 608.023438 C 1045.164062 588.808594 1063.691406 577.828125 1082.90625 577.828125 C 1089.085938 577.828125 1095.261719 579.203125 1100.75 581.261719 C 1113.101562 586.066406 1122.023438 594.988281 1127.515625 607.339844 C 1133.003906 619.691406 1133.003906 632.730469 1128.199219 644.398438 Z M 1128.199219 644.398438 "/><path style=" stroke:none;fill-rule:nonzero;fill:#0d412d;fill-opacity:1;" d="M 912.03125 496.851562 L 923.695312 480.382812 C 923.695312 480.382812 923.695312 479.695312 924.382812 479.695312 L 927.128906 474.890625 C 927.128906 474.890625 927.8125 474.203125 927.8125 474.203125 C 936.734375 457.046875 940.851562 438.519531 940.167969 418.617188 C 938.792969 356.167969 885.953125 304.699219 820.757812 301.953125 C 779.582031 299.894531 743.894531 323.226562 720.5625 349.992188 C 697.230469 323.226562 661.546875 299.894531 620.371094 301.953125 C 555.175781 305.386719 502.332031 356.167969 500.960938 418.617188 C 500.273438 437.832031 504.390625 456.363281 513.3125 474.203125 C 513.3125 474.203125 513.3125 474.890625 514 474.890625 L 516.746094 479.695312 C 516.746094 479.695312 516.746094 480.382812 517.429688 480.382812 L 529.097656 496.851562 C 529.097656 497.539062 529.785156 498.222656 530.46875 498.222656 L 704.777344 706.847656 C 708.898438 710.964844 714.386719 713.710938 719.878906 713.710938 C 725.367188 713.710938 730.855469 710.964844 735.660156 706.847656 L 911.34375 498.222656 C 911.34375 497.539062 911.34375 497.539062 912.03125 496.851562 Z M 889.382812 481.066406 L 719.878906 682.140625 L 550.371094 481.066406 L 539.390625 465.285156 L 537.332031 461.851562 C 530.46875 448.8125 527.722656 434.402344 528.410156 419.992188 C 529.785156 372.636719 571.644531 332.148438 621.742188 330.089844 C 659.484375 328.03125 691.742188 354.796875 709.582031 380.875 C 712.328125 384.304688 716.445312 387.050781 720.5625 387.050781 C 724.679688 387.050781 729.484375 384.992188 731.542969 380.875 C 749.386719 355.480469 781.640625 328.71875 819.382812 330.089844 C 869.480469 332.835938 911.34375 373.324219 912.714844 419.992188 C 913.402344 434.402344 909.972656 448.8125 903.792969 461.851562 Z M 889.382812 481.066406 "/></g></svg>