<svg xmlns="http://www.w3.org/2000/svg" xmlns:xlink="http://www.w3.org/1999/xlink" width="1920" zoomAndPan="magnify" viewBox="0 0 1440 809.999993" height="1080" preserveAspectRatio="xMidYMid meet" version="1.2"><g id="2d01ad12b3"><path style=" stroke:none;fill-rule:nonzero;fill:#f2d4b4;fill-opacity:1;" d="M 967.234375 404.816406 C 923.261719 470.632812 849.675781 509.929688 770.40625 509.929688 C 723.664062 509.929688 678.320312 496.128906 639.273438 470.039062 C 586.765625 434.960938 551.058594 381.511719 538.734375 319.570312 C 526.417969 257.621094 538.953125 194.589844 574.050781 142.074219 C 618.023438 76.261719 691.605469 36.964844 770.878906 36.964844 C 817.621094 36.964844 862.964844 50.757812 902.007812 76.84375 C 954.527344 111.933594 990.234375 165.367188 1002.550781 227.324219 C 1014.867188 289.257812 1002.332031 352.300781 967.234375 404.816406 Z M 1038.085938 220.25 C 1023.867188 148.8125 982.699219 87.1875 922.132812 46.71875 C 877.121094 16.644531 824.808594 0.738281 770.878906 0.738281 C 679.480469 0.738281 594.636719 46.050781 543.921875 121.949219 C 503.457031 182.503906 488.996094 255.195312 503.203125 326.632812 C 516.222656 392.109375 551.960938 449.289062 604.457031 489.554688 L 576.539062 531.308594 L 606.667969 551.445312 L 634.578125 509.675781 C 675.941406 533.546875 722.511719 546.15625 770.40625 546.15625 C 861.804688 546.15625 946.648438 500.828125 997.367188 424.9375 C 1037.828125 364.371094 1052.289062 291.695312 1038.085938 220.25 "/><path style=" stroke:none;fill-rule:nonzero;fill:#f2d4b4;fill-opacity:1;" d="M 586.023438 549.71875 C 574.800781 542.234375 561.761719 538.269531 548.308594 538.269531 C 525.535156 538.269531 504.390625 549.566406 491.746094 568.46875 L 408.660156 692.816406 C 387.84375 723.972656 396.257812 766.269531 427.414062 787.089844 C 438.640625 794.585938 451.679688 798.550781 465.132812 798.550781 C 487.90625 798.550781 509.046875 787.257812 521.6875 768.339844 L 604.78125 643.992188 C 625.597656 612.835938 617.183594 570.550781 586.023438 549.71875 "/><path style=" stroke:none;fill-rule:nonzero;fill:#f2d4b4;fill-opacity:1;" d="M 898.355469 425.0625 L 643.03125 425.0625 L 643.03125 228.78125 L 610.160156 228.78125 C 587.832031 228.78125 583.722656 217.214844 601.019531 203.058594 L 739.261719 89.929688 C 756.5625 75.828125 784.816406 75.828125 802.121094 89.929688 L 940.359375 203.058594 C 957.660156 217.214844 953.503906 228.78125 931.179688 228.78125 L 898.355469 228.78125 Z M 716.386719 390.613281 L 825 390.613281 L 825 252.21875 L 716.386719 252.21875 L 716.386719 390.613281 "/></g></svg>