<svg xmlns="http://www.w3.org/2000/svg" xmlns:xlink="http://www.w3.org/1999/xlink" width="1920" zoomAndPan="magnify" viewBox="0 0 1440 809.999993" height="1080" preserveAspectRatio="xMidYMid meet" version="1.2"><g id="1885139dce"><path style=" stroke:none;fill-rule:evenodd;fill:#f0e7d8;fill-opacity:1;" d="M 710.273438 481.632812 C 681.328125 479.738281 654.28125 467.875 633.402344 449.84375 L 662.820312 420.894531 C 666.140625 417.101562 666.617188 410.929688 662.820312 407.136719 C 659.023438 403.8125 652.855469 403.8125 649.058594 407.136719 L 620.113281 436.554688 C 600.183594 413.304688 587.847656 382.933594 587.847656 350.191406 C 587.847656 316.976562 600.183594 286.609375 620.113281 263.832031 L 649.058594 292.777344 C 650.957031 294.675781 653.332031 295.625 655.703125 295.625 C 658.550781 295.625 660.921875 294.675781 662.820312 292.777344 C 666.140625 288.980469 666.140625 282.8125 662.820312 279.492188 L 633.402344 250.070312 C 654.28125 232.039062 681.328125 220.175781 710.273438 218.277344 L 710.273438 259.5625 C 710.273438 264.78125 714.542969 269.050781 719.761719 269.050781 C 724.980469 269.050781 729.253906 264.78125 729.253906 259.5625 L 729.253906 218.277344 C 758.671875 220.175781 785.246094 232.039062 806.125 250.070312 L 777.179688 279.492188 C 773.382812 283.285156 773.382812 288.980469 777.179688 292.777344 C 779.078125 294.675781 781.449219 295.625 783.824219 295.625 C 786.195312 295.625 788.566406 294.675781 790.464844 292.777344 L 819.886719 263.832031 C 837.917969 284.710938 849.78125 311.28125 851.679688 340.703125 L 810.394531 340.703125 C 805.175781 340.703125 800.90625 344.972656 800.90625 350.191406 C 800.90625 355.414062 805.175781 359.683594 810.394531 359.683594 L 851.679688 359.683594 C 849.78125 388.628906 837.917969 415.675781 819.886719 436.554688 L 790.464844 407.136719 C 786.667969 403.8125 780.976562 403.8125 777.179688 407.136719 C 773.382812 410.929688 773.382812 417.101562 777.179688 420.894531 L 806.125 449.84375 C 785.246094 467.875 758.671875 479.738281 729.253906 481.632812 L 729.253906 440.351562 C 729.253906 435.132812 724.980469 430.859375 719.761719 430.859375 C 714.542969 430.859375 710.273438 435.132812 710.273438 440.351562 Z M 732.574219 372.019531 C 730.203125 372.019531 727.828125 371.070312 725.929688 369.175781 L 713.121094 356.835938 C 711.222656 354.9375 710.273438 352.566406 710.273438 350.191406 L 710.273438 323.621094 C 710.273438 317.925781 714.542969 314.128906 719.761719 314.128906 C 724.980469 314.128906 729.253906 317.925781 729.253906 323.621094 L 729.253906 345.921875 L 739.21875 355.886719 C 743.015625 359.683594 743.015625 365.378906 739.21875 369.175781 C 737.320312 371.070312 734.945312 372.019531 732.574219 372.019531 Z M 732.574219 372.019531 "/><path style=" stroke:none;fill-rule:evenodd;fill:#f0e7d8;fill-opacity:1;" d="M 575.035156 578.910156 C 546.5625 578.910156 523.789062 555.660156 523.789062 527.1875 C 523.789062 498.71875 546.5625 475.941406 575.035156 475.941406 C 603.507812 475.941406 626.757812 498.71875 626.757812 527.1875 C 626.757812 555.660156 603.507812 578.910156 575.035156 578.910156 Z M 575.035156 578.910156 "/><path style=" stroke:none;fill-rule:evenodd;fill:#f0e7d8;fill-opacity:1;" d="M 864.492188 578.910156 C 836.492188 578.910156 813.242188 555.660156 813.242188 527.1875 C 813.242188 498.71875 836.492188 475.941406 864.492188 475.941406 C 892.960938 475.941406 916.210938 498.71875 916.210938 527.1875 C 916.210938 555.660156 892.960938 578.910156 864.492188 578.910156 Z M 864.492188 578.910156 "/><path style=" stroke:none;fill-rule:evenodd;fill:#f0e7d8;fill-opacity:1;" d="M 688.917969 804.78125 L 640.519531 804.78125 L 640.519531 732.652344 C 640.519531 727.433594 636.246094 723.164062 631.027344 723.164062 C 625.808594 723.164062 621.539062 727.433594 621.539062 732.652344 L 621.539062 804.78125 L 528.53125 804.78125 L 528.53125 732.652344 C 528.53125 727.433594 524.261719 723.164062 519.042969 723.164062 C 513.824219 723.164062 509.550781 727.433594 509.550781 732.652344 L 509.550781 804.78125 L 461.625 804.78125 C 456.40625 804.78125 452.136719 800.507812 452.136719 795.289062 L 452.136719 703.707031 C 452.136719 652.933594 493.417969 611.652344 544.191406 611.652344 L 605.878906 611.652344 C 657.125 611.652344 698.410156 652.933594 698.410156 703.707031 L 698.410156 795.289062 C 698.410156 800.507812 694.140625 804.78125 688.917969 804.78125 Z M 688.917969 804.78125 "/><path style=" stroke:none;fill-rule:evenodd;fill:#f0e7d8;fill-opacity:1;" d="M 978.375 804.78125 L 930.449219 804.78125 L 930.449219 732.652344 C 930.449219 727.433594 925.703125 723.164062 920.957031 723.164062 C 915.738281 723.164062 911.46875 727.433594 911.46875 732.652344 L 911.46875 804.78125 L 817.988281 804.78125 L 817.988281 732.652344 C 817.988281 727.433594 813.71875 723.164062 808.496094 723.164062 C 803.277344 723.164062 799.007812 727.433594 799.007812 732.652344 L 799.007812 804.78125 L 751.082031 804.78125 C 745.859375 804.78125 741.589844 800.507812 741.589844 795.289062 L 741.589844 703.707031 C 741.589844 652.933594 782.875 611.652344 833.648438 611.652344 L 895.808594 611.652344 C 946.582031 611.652344 987.863281 652.933594 987.863281 703.707031 L 987.863281 795.289062 C 987.863281 800.507812 983.59375 804.78125 978.375 804.78125 Z M 978.375 804.78125 "/><path style=" stroke:none;fill-rule:evenodd;fill:#f0e7d8;fill-opacity:1;" d="M 359.128906 455.0625 C 347.742188 455.0625 336.351562 450.789062 327.8125 442.25 C 319.746094 433.707031 315 422.792969 315 410.929688 C 315 399.070312 319.746094 388.15625 327.8125 379.613281 L 688.917969 18.03125 C 697.460938 9.492188 707.898438 5.21875 719.761719 5.21875 C 732.101562 5.21875 742.539062 9.492188 751.082031 18.03125 L 1112.1875 379.613281 C 1120.253906 388.15625 1125 399.070312 1125 410.929688 C 1125 422.792969 1120.253906 433.707031 1111.714844 442.25 C 1103.648438 450.316406 1092.734375 455.0625 1080.871094 455.0625 C 1069.007812 455.0625 1058.09375 450.316406 1049.550781 441.773438 L 719.761719 111.511719 L 390.449219 442.25 C 381.433594 450.789062 370.519531 455.0625 359.128906 455.0625 Z M 1080.871094 420.421875 C 1078.496094 420.421875 1076.125 419.472656 1074.226562 417.574219 L 719.761719 62.636719 L 365.773438 417.574219 C 361.976562 421.371094 356.28125 421.371094 352.488281 417.574219 C 348.691406 413.777344 348.691406 408.085938 352.488281 404.289062 L 713.121094 42.230469 C 716.914062 38.910156 723.085938 38.910156 726.878906 42.230469 L 1087.511719 404.289062 C 1091.308594 407.609375 1091.308594 413.777344 1087.511719 417.574219 C 1085.613281 419.472656 1083.242188 420.421875 1080.871094 420.421875 Z M 1080.871094 420.421875 "/></g></svg>