<svg xmlns="http://www.w3.org/2000/svg" xmlns:xlink="http://www.w3.org/1999/xlink" width="1920" zoomAndPan="magnify" viewBox="0 0 1440 809.999993" height="1080" preserveAspectRatio="xMidYMid meet" version="1.2"><defs><clipPath id="f7006ff587"><path d="M 315 269 L 705 269 L 705 765 L 315 765 Z M 315 269 "/></clipPath><clipPath id="2fb3bbcafa"><path d="M 315 629 L 420 629 L 420 705 L 315 705 Z M 315 629 "/></clipPath></defs><g id="91410b9d18"><path style=" stroke:none;fill-rule:nonzero;fill:#f0e7d8;fill-opacity:1;" d="M 1124.96875 299.929688 C 1124.96875 301.878906 1124.828125 303.828125 1124.375 305.777344 L 1079.070312 533.785156 C 1076.964844 544.441406 1070.972656 553.582031 1062.722656 560.042969 C 1062.722656 560.042969 953.0625 645.394531 917.367188 674.941406 C 908.210938 682.585938 869.957031 707.9375 869.957031 744.242188 L 869.957031 764.945312 L 734.945312 764.945312 L 734.945312 659.480469 C 734.945312 591.070312 764.492188 554.332031 796.148438 531.679688 C 828.691406 508.121094 927.851562 440.320312 927.851562 440.320312 C 932.796875 436.871094 938.664062 434.921875 944.949219 434.921875 C 961.457031 434.921875 974.949219 448.417969 974.949219 464.921875 C 974.949219 476.328125 969.691406 483.066406 962.203125 489.371094 L 875.648438 558.214844 C 871.90625 561.070312 869.957031 565.566406 869.957031 569.917969 C 869.957031 578.171875 876.554688 584.925781 884.964844 584.925781 C 888.253906 584.925781 891.5625 583.878906 894.261719 581.617188 C 894.261719 581.617188 961.472656 528.808594 983.515625 510.664062 C 988.773438 506.46875 994.171875 499.714844 997.164062 494.019531 C 1003.625 482.023438 1009.769531 459.664062 1066.621094 290.300781 C 1070.675781 278.445312 1081.769531 269.894531 1094.96875 269.894531 C 1111.472656 269.894531 1124.96875 283.390625 1124.96875 299.898438 Z M 1124.96875 299.929688 "/><g clip-rule="nonzero" clip-path="url(#f7006ff587)"><path style=" stroke:none;fill-rule:nonzero;fill:#f0e7d8;fill-opacity:1;" d="M 704.945312 659.496094 L 704.945312 764.960938 L 569.933594 764.960938 L 569.933594 744.257812 C 569.933594 707.953125 531.679688 682.601562 522.523438 674.957031 C 486.828125 645.410156 377.167969 560.058594 377.167969 560.058594 C 368.917969 553.597656 362.925781 544.457031 360.820312 533.800781 L 315.515625 305.792969 C 315.0625 303.84375 314.921875 301.894531 314.921875 299.945312 C 314.921875 283.4375 328.417969 269.941406 344.921875 269.941406 C 358.121094 269.941406 369.230469 278.492188 373.269531 290.347656 C 430.121094 459.710938 436.265625 482.054688 442.726562 494.066406 C 445.71875 499.777344 451.132812 506.515625 456.375 510.710938 C 478.417969 528.855469 545.628906 581.664062 545.628906 581.664062 C 548.328125 583.910156 551.636719 584.972656 554.925781 584.972656 C 563.335938 584.972656 569.933594 578.21875 569.933594 569.964844 C 569.933594 565.613281 567.984375 561.117188 564.242188 558.261719 L 477.6875 489.417969 C 470.183594 483.113281 464.941406 476.359375 464.941406 464.96875 C 464.941406 448.464844 478.433594 434.96875 494.941406 434.96875 C 501.242188 434.96875 507.09375 436.917969 512.039062 440.367188 C 512.039062 440.367188 611.199219 508.167969 643.742188 531.726562 C 675.398438 554.378906 704.945312 591.132812 704.945312 659.527344 Z M 704.945312 659.496094 "/></g><path style=" stroke:none;fill-rule:nonzero;fill:#f0e7d8;fill-opacity:1;" d="M 824.949219 389.945312 L 824.949219 474.703125 C 806.335938 487.605469 789.097656 499.761719 778.597656 507.40625 C 751.746094 526.609375 732.089844 550.757812 719.9375 579.558594 C 707.785156 550.757812 688.128906 526.609375 661.136719 507.25 C 650.636719 499.605469 633.382812 487.589844 614.925781 474.6875 L 614.925781 389.929688 C 614.925781 331.878906 661.886719 284.917969 719.9375 284.917969 C 777.988281 284.917969 824.949219 331.878906 824.949219 389.929688 Z M 824.949219 389.945312 "/><path style=" stroke:none;fill-rule:nonzero;fill:#f0e7d8;fill-opacity:1;" d="M 638.484375 282.375 C 605.941406 306.980469 584.925781 346.136719 584.925781 389.929688 L 584.925781 453.988281 C 556.269531 434.1875 531.074219 416.933594 528.964844 415.578125 C 519.058594 408.683594 507.21875 404.921875 494.910156 404.921875 C 477.0625 404.921875 460.851562 412.878906 449.902344 425.328125 C 448.105469 420.226562 421.101562 338.617188 401.742188 280.722656 C 400.992188 278.617188 400.242188 276.667969 399.199219 274.714844 C 418.089844 227.914062 464.003906 194.917969 517.40625 194.917969 C 573.804688 194.917969 621.667969 231.519531 638.453125 282.375 Z M 638.484375 282.375 "/><path style=" stroke:none;fill-rule:nonzero;fill:#f0e7d8;fill-opacity:1;" d="M 1049.210938 261.238281 C 1044.40625 266.792969 1040.800781 273.390625 1038.257812 280.582031 C 1018.757812 338.632812 991.769531 420.242188 989.957031 425.34375 C 979.007812 412.894531 962.8125 404.9375 944.949219 404.9375 C 932.65625 404.9375 920.800781 408.683594 910.738281 415.734375 C 908.785156 417.089844 883.589844 434.1875 854.933594 453.988281 L 854.933594 389.929688 C 854.933594 351.832031 839.035156 317.324219 813.527344 292.71875 C 826.867188 236.621094 877.289062 194.917969 937.429688 194.917969 C 985.589844 194.917969 1027.585938 221.765625 1049.195312 261.222656 Z M 1049.210938 261.238281 "/><path style=" stroke:none;fill-rule:nonzero;fill:#f0e7d8;fill-opacity:1;" d="M 779.9375 164.933594 C 779.9375 131.796875 753.074219 104.933594 719.9375 104.933594 C 686.800781 104.933594 659.9375 131.796875 659.9375 164.933594 L 659.9375 194.933594 C 659.9375 228.070312 686.800781 254.933594 719.9375 254.933594 C 753.074219 254.933594 779.9375 228.070312 779.9375 194.933594 Z M 779.9375 164.933594 "/><path style=" stroke:none;fill-rule:nonzero;fill:#f0e7d8;fill-opacity:1;" d="M 584.925781 67.425781 C 584.925781 30.140625 554.707031 -0.078125 517.421875 -0.078125 C 480.136719 -0.078125 449.917969 30.140625 449.917969 67.425781 L 449.917969 97.429688 C 449.917969 134.714844 480.136719 164.933594 517.421875 164.933594 C 554.707031 164.933594 584.925781 134.714844 584.925781 97.429688 Z M 584.925781 67.425781 "/><path style=" stroke:none;fill-rule:nonzero;fill:#f0e7d8;fill-opacity:1;" d="M 1004.949219 67.425781 C 1004.949219 30.140625 974.730469 -0.078125 937.445312 -0.078125 C 900.160156 -0.078125 869.941406 30.140625 869.941406 67.425781 L 869.941406 97.429688 C 869.941406 134.714844 900.160156 164.933594 937.445312 164.933594 C 974.730469 164.933594 1004.949219 134.714844 1004.949219 97.429688 Z M 1004.949219 67.425781 "/><path style=" stroke:none;fill-rule:nonzero;fill:#f0e7d8;fill-opacity:1;" d="M 437.375 777.457031 C 444.878906 762.464844 459.871094 732.449219 467.375 717.457031 C 471.070312 710.074219 478.621094 704.957031 487.421875 704.957031 C 499.855469 704.957031 509.917969 715.035156 509.917969 727.457031 C 509.917969 731.074219 508.980469 734.429688 507.46875 737.472656 C 499.964844 752.464844 484.972656 782.480469 477.46875 797.472656 C 473.769531 804.851562 466.21875 809.96875 457.421875 809.96875 C 444.988281 809.96875 434.925781 799.890625 434.925781 787.472656 C 434.925781 783.851562 435.859375 780.5 437.375 777.457031 Z M 437.375 777.457031 "/><g clip-rule="nonzero" clip-path="url(#2fb3bbcafa)"><path style=" stroke:none;fill-rule:nonzero;fill:#f0e7d8;fill-opacity:1;" d="M 419.917969 652.460938 C 419.917969 640.027344 409.839844 629.964844 397.417969 629.964844 C 393.800781 629.964844 390.445312 630.902344 387.417969 632.414062 C 372.425781 639.917969 342.410156 654.910156 327.417969 662.414062 C 320.039062 666.113281 314.921875 673.664062 314.921875 682.460938 C 314.921875 694.894531 325 704.957031 337.417969 704.957031 C 341.039062 704.957031 344.390625 704.023438 347.417969 702.507812 C 362.410156 695.003906 392.425781 680.011719 407.417969 672.507812 C 414.800781 668.8125 419.917969 661.261719 419.917969 652.460938 Z M 419.917969 652.460938 "/></g><path style=" stroke:none;fill-rule:nonzero;fill:#f0e7d8;fill-opacity:1;" d="M 1002.515625 777.457031 C 995.011719 762.464844 980.019531 732.449219 972.515625 717.457031 C 968.820312 710.074219 961.269531 704.957031 952.46875 704.957031 C 940.035156 704.957031 929.972656 715.035156 929.972656 727.457031 C 929.972656 731.074219 930.910156 734.429688 932.421875 737.472656 C 939.925781 752.464844 954.917969 782.480469 962.421875 797.472656 C 966.121094 804.851562 973.671875 809.96875 982.46875 809.96875 C 994.902344 809.96875 1004.964844 799.890625 1004.964844 787.472656 C 1004.964844 783.851562 1004.03125 780.5 1002.515625 777.457031 Z M 1002.515625 777.457031 "/><path style=" stroke:none;fill-rule:nonzero;fill:#f0e7d8;fill-opacity:1;" d="M 1019.957031 652.460938 C 1019.957031 640.027344 1030.035156 629.964844 1042.457031 629.964844 C 1046.074219 629.964844 1049.429688 630.902344 1052.457031 632.414062 C 1067.449219 639.917969 1097.464844 654.910156 1112.457031 662.414062 C 1119.835938 666.113281 1124.953125 673.664062 1124.953125 682.460938 C 1124.953125 694.894531 1114.875 704.957031 1102.457031 704.957031 C 1098.835938 704.957031 1095.484375 704.023438 1092.457031 702.507812 C 1077.464844 695.003906 1047.449219 680.011719 1032.457031 672.507812 C 1025.074219 668.8125 1019.957031 661.261719 1019.957031 652.460938 Z M 1019.957031 652.460938 "/></g></svg>