<svg xmlns="http://www.w3.org/2000/svg" xmlns:xlink="http://www.w3.org/1999/xlink" width="1920" zoomAndPan="magnify" viewBox="0 0 1440 809.999993" height="1080" preserveAspectRatio="xMidYMid meet" version="1.2"><defs><clipPath id="563e060ae5"><path d="M 315 392 L 1125 392 L 1125 418 L 315 418 Z M 315 392 "/></clipPath></defs><g id="463a703608"><path style=" stroke:none;fill-rule:evenodd;fill:#2e5143;fill-opacity:1;" d="M 720.132812 810.132812 C 713.117188 810.132812 707.472656 804.488281 707.472656 797.472656 L 707.472656 12.703125 C 707.472656 5.6875 713.117188 0.0429688 720.132812 0.0429688 C 727.144531 0.0429688 732.789062 5.6875 732.789062 12.703125 L 732.789062 797.472656 C 732.789062 804.488281 727.144531 810.132812 720.132812 810.132812 Z M 720.132812 810.132812 "/><g clip-rule="nonzero" clip-path="url(#563e060ae5)"><path style=" stroke:none;fill-rule:evenodd;fill:#2e5143;fill-opacity:1;" d="M 1112.519531 417.746094 L 327.746094 417.746094 C 320.730469 417.746094 315.085938 412.101562 315.085938 405.085938 C 315.085938 398.074219 320.730469 392.429688 327.746094 392.429688 L 1112.519531 392.429688 C 1119.53125 392.429688 1125.175781 398.074219 1125.175781 405.085938 C 1125.175781 412.101562 1119.53125 417.746094 1112.519531 417.746094 Z M 1112.519531 417.746094 "/></g></g></svg>