<svg xmlns="http://www.w3.org/2000/svg" xmlns:xlink="http://www.w3.org/1999/xlink" width="1920" zoomAndPan="magnify" viewBox="0 0 1440 809.999993" height="1080" preserveAspectRatio="xMidYMid meet" version="1.2"><defs><clipPath id="1c5172eec9"><path d="M 315 0 L 1125 0 L 1125 810 L 315 810 Z M 315 0 "/></clipPath><clipPath id="244fc2b28b"><path d="M 720 0 C 496.324219 0 315 181.324219 315 405 C 315 628.675781 496.324219 810 720 810 C 943.675781 810 1125 628.675781 1125 405 C 1125 181.324219 943.675781 0 720 0 Z M 720 0 "/></clipPath><clipPath id="490d8d8d9d"><path d="M 476.785156 219 L 704 219 L 704 584 L 476.785156 584 Z M 476.785156 219 "/></clipPath><clipPath id="9b935f1087"><path d="M 726 219 L 954 219 L 954 584.199219 L 726 584.199219 Z M 726 219 "/></clipPath></defs><g id="d96d9c721f"><g clip-rule="nonzero" clip-path="url(#1c5172eec9)"><g clip-rule="nonzero" clip-path="url(#244fc2b28b)"><path style=" stroke:none;fill-rule:nonzero;fill:#ffffff;fill-opacity:1;" d="M 315 0 L 1125 0 L 1125 810 L 315 810 Z M 315 0 "/></g></g><g clip-rule="nonzero" clip-path="url(#490d8d8d9d)"><path style=" stroke:none;fill-rule:nonzero;fill:#0d3c00;fill-opacity:1;" d="M 598.46875 374.132812 C 577.5625 374.132812 558.078125 380.253906 541.738281 390.804688 C 541.855469 389.8125 541.738281 388.804688 541.988281 386.074219 C 542.234375 383.460938 542.597656 381.527344 543.027344 379.328125 C 543.625 376.199219 544.238281 373.867188 544.582031 372.578125 C 547.644531 361.082031 552.109375 351.027344 552.109375 351.027344 C 553.679688 347.503906 556.492188 341.566406 560.410156 335.183594 C 566.828125 324.746094 573.394531 317.699219 582.492188 308.4375 C 601.578125 288.988281 615.867188 271.753906 641.703125 253.910156 C 644.84375 251.726562 647.609375 249.03125 650.800781 246.894531 C 650.800781 246.894531 658.492188 241.734375 660.410156 237.550781 C 660.953125 236.359375 660.921875 235.21875 660.921875 235.21875 C 660.90625 234.441406 660.691406 233.761719 660.144531 232.621094 C 659.234375 230.71875 658.277344 229.363281 657.8125 228.71875 C 656.421875 226.800781 656.40625 227.015625 654.953125 225.082031 C 653.117188 222.617188 652.867188 221.871094 651.578125 220.929688 C 651.578125 220.929688 650.402344 220.070312 648.980469 219.621094 C 644.796875 218.332031 638.128906 225.03125 633.136719 229.496094 C 628.585938 233.566406 623.410156 236.890625 618.597656 240.660156 C 609.253906 247.988281 608.855469 247.753906 599.113281 255.199219 C 594.863281 258.457031 580.027344 269.867188 563.023438 285.316406 C 560.660156 287.46875 558.445312 289.46875 555.5 292.328125 C 552.835938 294.894531 545.277344 302.304688 536.015625 313.101562 C 533.4375 316.113281 525.199219 325.839844 517.574219 336.738281 C 508.910156 349.109375 493.0625 371.734375 483.816406 405.027344 C 477.054688 429.359375 476.804688 448.644531 476.804688 454.648438 C 476.820312 464.472656 477.683594 472.476562 478.359375 477.503906 C 480.164062 490.769531 482.414062 507.40625 492.121094 525.550781 C 504.292969 548.277344 522.785156 563.277344 537.042969 570.738281 C 546.683594 575.78125 557.269531 578.890625 557.816406 579.039062 C 559.519531 579.535156 567.257812 581.734375 577.8125 582.941406 C 586.628906 583.953125 593.472656 583.820312 596.253906 583.71875 C 596.417969 583.71875 596.566406 583.71875 596.714844 583.71875 C 597.296875 583.71875 597.875 583.71875 598.453125 583.71875 C 656.324219 583.71875 703.230469 536.816406 703.230469 478.945312 C 703.230469 421.070312 656.324219 374.167969 598.453125 374.167969 Z M 598.46875 374.132812 "/></g><g clip-rule="nonzero" clip-path="url(#9b935f1087)"><path style=" stroke:none;fill-rule:nonzero;fill:#0d3c00;fill-opacity:1;" d="M 848.527344 374.398438 C 827.621094 374.398438 808.140625 380.515625 791.796875 391.070312 C 791.914062 390.078125 791.796875 389.070312 792.046875 386.339844 C 792.292969 383.726562 792.660156 381.792969 793.089844 379.589844 C 793.683594 376.464844 794.296875 374.132812 794.644531 372.84375 C 797.703125 361.347656 802.167969 351.292969 802.167969 351.292969 C 803.738281 347.769531 806.550781 341.832031 810.472656 335.449219 C 816.886719 325.011719 823.453125 317.964844 832.550781 308.703125 C 851.636719 289.253906 865.929688 272.019531 891.761719 254.171875 C 894.90625 251.988281 897.667969 249.292969 900.859375 247.160156 C 900.859375 247.160156 908.550781 242 910.46875 237.816406 C 911.015625 236.625 910.980469 235.484375 910.980469 235.484375 C 910.964844 234.707031 910.75 234.027344 910.203125 232.886719 C 909.292969 230.984375 908.335938 229.628906 907.871094 228.984375 C 906.480469 227.066406 906.464844 227.28125 905.011719 225.34375 C 903.175781 222.878906 902.925781 222.136719 901.636719 221.195312 C 901.636719 221.195312 900.460938 220.332031 899.039062 219.886719 C 894.855469 218.597656 888.191406 225.296875 883.195312 229.761719 C 878.648438 233.828125 873.46875 237.152344 868.65625 240.925781 C 859.3125 248.253906 858.914062 248.019531 849.171875 255.464844 C 844.921875 258.722656 830.085938 270.132812 813.085938 285.582031 C 810.71875 287.730469 808.503906 289.734375 805.558594 292.59375 C 802.894531 295.15625 795.335938 302.566406 786.074219 313.367188 C 783.496094 316.378906 775.257812 326.101562 767.632812 337.003906 C 758.96875 349.375 743.121094 372 733.878906 405.292969 C 727.113281 429.605469 726.847656 448.90625 726.863281 454.894531 C 726.882812 464.71875 727.742188 472.726562 728.417969 477.753906 C 730.222656 491.015625 732.472656 507.65625 742.179688 525.800781 C 754.351562 548.523438 772.84375 563.527344 787.101562 570.984375 C 796.742188 576.03125 807.328125 579.140625 807.875 579.289062 C 809.578125 579.785156 817.320312 581.984375 827.871094 583.191406 C 836.6875 584.199219 843.535156 584.066406 846.3125 583.96875 C 846.476562 583.96875 846.625 583.96875 846.773438 583.96875 C 847.355469 583.96875 847.933594 583.96875 848.511719 583.96875 C 906.382812 583.96875 953.289062 537.0625 953.289062 479.191406 C 953.289062 421.320312 906.382812 374.414062 848.511719 374.414062 Z M 848.527344 374.398438 "/></g></g></svg>