<svg xmlns="http://www.w3.org/2000/svg" xmlns:xlink="http://www.w3.org/1999/xlink" width="1920" zoomAndPan="magnify" viewBox="0 0 1440 809.999993" height="1080" preserveAspectRatio="xMidYMid meet" version="1.2"><defs><clipPath id="4708fb89f9"><path d="M 315 0 L 1125 0 L 1125 810 L 315 810 Z M 315 0 "/></clipPath><clipPath id="90afbb7742"><path d="M 720 0 C 496.324219 0 315 181.324219 315 405 C 315 628.675781 496.324219 810 720 810 C 943.675781 810 1125 628.675781 1125 405 C 1125 181.324219 943.675781 0 720 0 Z M 720 0 "/></clipPath><clipPath id="9e1fe29e49"><path d="M 736 226 L 962.988281 226 L 962.988281 584.199219 L 736 584.199219 Z M 736 226 "/></clipPath><clipPath id="ac2ee43342"><path d="M 486 225.765625 L 713 225.765625 L 713 584.199219 L 486 584.199219 Z M 486 225.765625 "/></clipPath></defs><g id="067200d1ac"><g clip-rule="nonzero" clip-path="url(#4708fb89f9)"><g clip-rule="nonzero" clip-path="url(#90afbb7742)"><path style=" stroke:none;fill-rule:nonzero;fill:#ffffff;fill-opacity:1;" d="M 315 0 L 1125 0 L 1125 810 L 315 810 Z M 315 0 "/></g></g><g clip-rule="nonzero" clip-path="url(#9e1fe29e49)"><path style=" stroke:none;fill-rule:nonzero;fill:#0d3c00;fill-opacity:1;" d="M 841.304688 435.832031 C 862.210938 435.832031 881.695312 429.710938 898.035156 419.160156 C 897.917969 420.152344 898.035156 421.160156 897.785156 423.890625 C 897.539062 426.503906 897.175781 428.4375 896.746094 430.636719 C 896.148438 433.761719 895.535156 436.09375 895.191406 437.386719 C 892.128906 448.878906 887.664062 458.9375 887.664062 458.9375 C 886.09375 462.460938 883.28125 468.398438 879.363281 474.78125 C 872.945312 485.21875 866.378906 492.261719 857.28125 501.523438 C 838.195312 520.976562 823.90625 538.210938 798.070312 556.054688 C 794.929688 558.238281 792.164062 560.933594 788.972656 563.066406 C 788.972656 563.066406 781.28125 568.230469 779.363281 572.414062 C 778.820312 573.605469 778.851562 574.746094 778.851562 574.746094 C 778.867188 575.523438 779.082031 576.199219 779.628906 577.34375 C 780.539062 579.242188 781.496094 580.601562 781.960938 581.246094 C 783.351562 583.164062 783.367188 582.949219 784.824219 584.882812 C 786.660156 587.347656 786.90625 588.09375 788.195312 589.035156 C 788.195312 589.035156 789.371094 589.894531 790.792969 590.339844 C 794.976562 591.632812 801.644531 584.933594 806.636719 580.46875 C 811.1875 576.398438 816.363281 573.074219 821.175781 569.304688 C 830.519531 561.976562 830.917969 562.207031 840.660156 554.765625 C 844.910156 551.507812 859.746094 540.09375 876.75 524.648438 C 879.113281 522.496094 881.328125 520.496094 884.273438 517.632812 C 886.9375 515.070312 894.496094 507.660156 903.757812 496.859375 C 906.335938 493.851562 914.574219 484.125 922.199219 473.226562 C 930.863281 460.855469 946.710938 438.230469 955.957031 404.933594 C 962.71875 380.605469 962.96875 361.320312 962.96875 355.316406 C 962.953125 345.492188 962.089844 337.488281 961.414062 332.460938 C 959.609375 319.195312 957.359375 302.554688 947.652344 284.414062 C 935.480469 261.6875 916.988281 246.6875 902.730469 239.226562 C 893.089844 234.183594 882.503906 231.074219 881.957031 230.925781 C 880.253906 230.429688 872.515625 228.226562 861.960938 227.019531 C 853.148438 226.011719 846.300781 226.144531 843.519531 226.242188 C 843.355469 226.242188 843.207031 226.242188 843.058594 226.242188 C 842.480469 226.242188 841.898438 226.242188 841.320312 226.242188 C 783.449219 226.242188 736.542969 273.148438 736.542969 331.019531 C 736.542969 388.890625 783.449219 435.796875 841.320312 435.796875 Z M 841.304688 435.832031 "/></g><g clip-rule="nonzero" clip-path="url(#ac2ee43342)"><path style=" stroke:none;fill-rule:nonzero;fill:#0d3c00;fill-opacity:1;" d="M 591.246094 435.566406 C 612.152344 435.566406 631.632812 429.445312 647.976562 418.894531 C 647.859375 419.886719 647.976562 420.894531 647.726562 423.625 C 647.480469 426.238281 647.117188 428.171875 646.683594 430.371094 C 646.089844 433.5 645.476562 435.832031 645.128906 437.121094 C 642.070312 448.617188 637.605469 458.671875 637.605469 458.671875 C 636.035156 462.195312 633.222656 468.132812 629.300781 474.515625 C 622.886719 484.953125 616.320312 492 607.222656 501.261719 C 588.136719 520.710938 573.847656 537.945312 548.011719 555.789062 C 544.867188 557.972656 542.105469 560.671875 538.914062 562.804688 C 538.914062 562.804688 531.222656 567.964844 529.304688 572.148438 C 528.757812 573.339844 528.792969 574.480469 528.792969 574.480469 C 528.808594 575.257812 529.023438 575.9375 529.570312 577.078125 C 530.480469 578.980469 531.4375 580.335938 531.902344 580.980469 C 533.292969 582.898438 533.308594 582.683594 534.761719 584.621094 C 536.597656 587.082031 536.847656 587.828125 538.136719 588.769531 C 538.136719 588.769531 539.3125 589.628906 540.734375 590.078125 C 544.917969 591.367188 551.582031 584.667969 556.578125 580.203125 C 561.128906 576.132812 566.304688 572.808594 571.117188 569.039062 C 580.460938 561.710938 580.859375 561.945312 590.601562 554.5 C 594.851562 551.242188 609.6875 539.832031 626.6875 524.382812 C 629.054688 522.234375 631.269531 520.230469 634.214844 517.371094 C 636.878906 514.804688 644.4375 507.398438 653.699219 496.597656 C 656.277344 493.585938 664.515625 483.859375 672.140625 472.960938 C 680.804688 460.589844 696.652344 437.964844 705.894531 404.671875 C 712.660156 380.359375 712.925781 361.054688 712.910156 355.070312 C 712.890625 345.246094 712.03125 337.238281 711.355469 332.210938 C 709.550781 318.945312 707.300781 302.308594 697.59375 284.164062 C 685.421875 261.441406 666.929688 246.4375 652.671875 238.980469 C 643.03125 233.933594 632.445312 230.824219 631.898438 230.675781 C 630.195312 230.179688 622.457031 227.980469 611.902344 226.773438 C 603.085938 225.765625 596.242188 225.894531 593.460938 225.996094 C 593.296875 225.996094 593.148438 225.996094 593 225.996094 C 592.417969 225.996094 591.839844 225.996094 591.261719 225.996094 C 533.390625 225.996094 486.484375 272.902344 486.484375 330.773438 C 486.484375 388.644531 533.390625 435.550781 591.261719 435.550781 Z M 591.246094 435.566406 "/></g></g></svg>