<svg xmlns="http://www.w3.org/2000/svg" xmlns:xlink="http://www.w3.org/1999/xlink" width="1920" zoomAndPan="magnify" viewBox="0 0 1440 809.999993" height="1080" preserveAspectRatio="xMidYMid meet" version="1.2"><g id="3c9dc9948f"><path style=" stroke:none;fill-rule:nonzero;fill:#2f5143;fill-opacity:1;" d="M 1144.929688 325.429688 C 1144.765625 325.046875 1144.488281 324.722656 1144.101562 324.511719 C 1124.242188 313.296875 1103.179688 307.605469 1081.503906 307.605469 C 1053.003906 307.605469 1024.328125 317.644531 996.296875 337.429688 C 994.019531 339.027344 991.359375 339.875 988.59375 339.875 C 984.234375 339.875 980.152344 337.761719 977.652344 334.210938 C 973.40625 328.1875 974.839844 319.832031 980.878906 315.574219 C 1014.464844 291.867188 1045.464844 280.347656 1075.636719 280.347656 C 1090.382812 280.347656 1105.371094 283.09375 1121.496094 288.777344 C 1122.257812 289.042969 1123.113281 288.796875 1123.609375 288.160156 C 1124.132812 287.515625 1136.195312 271.804688 1129.695312 233.570312 C 1126.816406 219.835938 1121.539062 208.617188 1114.074219 200.335938 C 1099.027344 181.242188 1083.765625 177.230469 1073.605469 177.230469 C 1067.300781 177.230469 1063.308594 178.804688 1063.132812 178.867188 C 1062.765625 179.015625 1062.453125 179.273438 1062.242188 179.621094 C 1047.644531 202.578125 1030.699219 217.996094 999.746094 236.519531 C 997.660156 237.761719 995.296875 238.414062 992.886719 238.414062 C 988.199219 238.414062 983.8125 235.921875 981.40625 231.90625 C 977.617188 225.582031 979.683594 217.351562 986.011719 213.566406 C 1023.371094 191.207031 1038.230469 176.507812 1047.222656 152.898438 C 1051.761719 136.238281 1046.164062 113.769531 1034.238281 100.714844 L 1031.847656 97.78125 C 1018.289062 81.097656 993.089844 50.03125 929.378906 33.710938 C 920.535156 30.898438 911.507812 29.472656 902.535156 29.472656 C 876.570312 29.472656 859.636719 41.160156 858.929688 41.65625 C 858.230469 42.144531 857.945312 43.035156 858.210938 43.835938 C 860.738281 51.261719 868.445312 73.859375 860.601562 99.160156 C 858.863281 104.796875 853.714844 108.574219 847.832031 108.574219 C 846.488281 108.574219 845.15625 108.382812 843.859375 107.976562 C 836.828125 105.789062 832.875 98.289062 835.0625 91.246094 C 840.257812 74.484375 839.144531 59.683594 831.671875 46.011719 C 821.898438 28.121094 808.347656 16.078125 790.328125 9.210938 C 773.125 1.894531 745.867188 0.265625 734.871094 -0.09375 C 664.035156 0.292969 613.535156 4.855469 549.621094 27.71875 C 541.441406 30.382812 535.058594 35.746094 531.648438 42.796875 C 527.621094 51.144531 527.714844 61.550781 531.933594 72.886719 C 531.988281 73.023438 532.136719 73.484375 532.394531 74.21875 C 537.339844 88.691406 542.175781 101.671875 546.773438 112.824219 C 548.132812 116.121094 548.132812 119.753906 546.765625 123.054688 C 545.394531 126.347656 542.820312 128.921875 539.519531 130.28125 C 537.882812 130.953125 536.171875 131.292969 534.425781 131.292969 C 529.03125 131.292969 524.175781 128.039062 522.050781 123.007812 C 518.21875 113.863281 506.277344 83.9375 506.164062 83.660156 C 505.945312 83.074219 500.410156 69.191406 482.582031 69.191406 C 469.199219 69.191406 452.585938 77.160156 433.25 92.863281 C 407.539062 112.785156 394.410156 130.832031 394.226562 146.488281 C 394.097656 157.53125 400.6875 163 401.148438 163.359375 C 406.453125 166.742188 435.273438 188.714844 447.316406 202.128906 C 452.355469 207.726562 452.191406 216.054688 446.941406 221.074219 C 444.441406 223.464844 441.15625 224.78125 437.703125 224.78125 C 434.015625 224.78125 430.585938 223.308594 428.039062 220.652344 C 398.140625 189.421875 373.632812 174.226562 353.09375 174.226562 C 350.207031 174.226562 347.375 174.539062 344.671875 175.15625 C 336.703125 176.984375 323.777344 186.167969 315.996094 198.265625 C 288.574219 233.902344 279.617188 261.859375 277.089844 309.703125 C 275.566406 338.339844 283.296875 366.289062 291.976562 378.433594 C 304.175781 395.496094 316.511719 405.15625 321.191406 408.539062 C 321.191406 408.539062 324.953125 410.929688 326.386719 409.808594 C 338.59375 400.21875 352.578125 395.183594 369.742188 395.183594 C 380.011719 395.183594 391.625 396.910156 404.253906 400.332031 C 407.601562 401.242188 410.398438 403.429688 412.117188 406.5 C 413.882812 409.644531 414.3125 413.441406 413.292969 416.90625 C 411.636719 422.570312 406.371094 426.523438 400.457031 426.523438 C 399.191406 426.523438 397.929688 426.328125 396.707031 425.980469 C 387.882812 423.40625 379.644531 422.3125 372.234375 422.089844 C 364.933594 421.898438 351.621094 422.589844 345.589844 429.402344 C 345.316406 429.714844 345.066406 430.027344 344.976562 430.421875 C 344.894531 430.796875 343.46875 463.34375 389.792969 479.945312 C 428.699219 493.882812 448.925781 494.34375 533.480469 494.34375 C 545.945312 494.34375 559.664062 494.214844 576.625 493.929688 C 580.898438 493.808594 586.957031 491.703125 590.820312 487.226562 C 593.761719 483.824219 595.019531 479.558594 594.460938 475.101562 C 594.414062 467.921875 595.527344 461.367188 597.988281 454.472656 C 608.121094 426.082031 628.519531 407.546875 664.144531 394.335938 C 665.652344 393.777344 667.207031 393.492188 668.796875 393.492188 C 674.359375 393.492188 679.390625 397.003906 681.328125 402.226562 C 682.570312 405.570312 682.441406 409.203125 680.941406 412.449219 C 679.453125 415.703125 676.796875 418.167969 673.449219 419.417969 C 646.210938 429.519531 629.429688 443.953125 623.566406 462.3125 C 613.683594 493.296875 636.554688 527.3125 636.832031 527.585938 C 704.910156 594.304688 837.175781 596.207031 843.824219 577.691406 C 849.421875 563.949219 853.273438 542.132812 839.769531 516.214844 C 818.617188 475.632812 746.851562 473.117188 746.125 473.078125 C 738.761719 472.875 732.921875 466.707031 733.132812 459.363281 C 733.328125 452.191406 739.339844 446.351562 746.824219 446.351562 C 750.417969 446.453125 835 449.230469 863.46875 503.859375 C 878.933594 533.507812 876.753906 559.894531 872.195312 576.855469 C 871.101562 581.40625 871.929688 586.003906 874.402344 589.15625 C 875.984375 591.140625 878.933594 593.511719 884.175781 593.511719 C 884.175781 593.511719 931.023438 593.816406 969.304688 585.855469 C 974.480469 584.789062 979.417969 588.613281 980.226562 593.808594 C 981.035156 599.019531 977.460938 603.910156 972.257812 604.71875 C 916.074219 613.507812 866.816406 617.902344 824.058594 617.902344 C 772.390625 617.902344 730.203125 611.476562 696.699219 598.617188 C 697.269531 622.234375 705.296875 642.828125 719.886719 659.679688 C 719.976562 659.816406 720.0625 659.917969 720.144531 660.046875 C 725.007812 665.167969 732.296875 672.414062 738.953125 678.480469 C 744.046875 683.121094 768.144531 698.476562 774.414062 702.261719 C 786.511719 709.324219 841.527344 743.175781 846.8125 746.574219 C 871.027344 762.175781 878.199219 779.113281 878.953125 780.125 C 881.535156 783.542969 882.867188 793.691406 882.867188 793.691406 C 885.058594 802.792969 893.265625 809.5625 903.046875 809.53125 C 914.476562 809.503906 923.734375 800.210938 923.695312 788.773438 C 923.695312 788.773438 924.019531 765.523438 914.953125 749.589844 C 913.5 746.640625 894.425781 715.382812 872.40625 698.402344 C 865.722656 693.246094 849.957031 681.714844 849.957031 681.714844 L 849.863281 681.667969 C 848.070312 680.445312 847.511719 678.039062 848.660156 676.171875 C 849.828125 674.277344 852.320312 673.671875 854.238281 674.839844 C 854.238281 674.839844 900.695312 707.46875 929.820312 699.347656 C 972.625 687.425781 1028.648438 659.273438 1028.648438 595.929688 C 1028.648438 586.515625 1027.710938 577.664062 1025.929688 569.324219 C 1031.867188 566.164062 1037.769531 562.585938 1043.664062 558.476562 C 1050.578125 552.941406 1052.636719 546.085938 1053.140625 541.304688 C 1053.859375 534.464844 1051.882812 527.21875 1047.976562 522.4375 L 1019.769531 486.113281 L 1019.4375 485.757812 C 1013.5625 478.292969 1005.878906 476.730469 1000.453125 476.730469 C 995.828125 476.730469 992.207031 477.839844 990.265625 478.578125 C 980.355469 483.578125 969.914062 487.679688 959.277344 490.757812 C 952.269531 492.769531 944.703125 488.515625 942.71875 481.621094 C 941.734375 478.191406 942.128906 474.578125 943.847656 471.453125 C 945.578125 468.324219 948.410156 466.0625 951.847656 465.082031 C 976.117188 458.066406 1019.90625 438.703125 1040.664062 387.835938 C 1042.714844 382.78125 1047.578125 379.515625 1053.058594 379.515625 C 1054.789062 379.515625 1056.480469 379.847656 1058.085938 380.507812 C 1064.917969 383.285156 1068.21875 391.109375 1065.425781 397.941406 C 1058.769531 414.257812 1049.648438 429.03125 1038.15625 442.105469 C 1032.914062 450.5625 1033.597656 459.324219 1040.308594 468.96875 L 1058.730469 492.910156 C 1058.980469 493.25 1059.320312 493.488281 1059.714844 493.589844 C 1060.019531 493.679688 1067.214844 495.714844 1077.496094 495.714844 C 1091.339844 495.714844 1110.933594 491.953125 1125.59375 473.988281 C 1161.429688 431.136719 1163.179688 394.0625 1164.4375 366.984375 C 1164.574219 364.292969 1164.6875 361.671875 1164.84375 358.878906 C 1163.261719 339.046875 1150.59375 328.980469 1144.929688 325.429688 Z M 595.996094 307.667969 C 578.757812 324.707031 559.734375 337.246094 539.480469 344.957031 C 539.253906 345.042969 539.058594 345.167969 538.894531 345.335938 C 529.570312 350.402344 526.316406 357.386719 528.054688 368.660156 L 535.730469 412.355469 C 536.421875 415.859375 535.703125 419.425781 533.707031 422.386719 C 531.714844 425.347656 528.699219 427.367188 525.1875 428.050781 C 517.96875 429.472656 510.882812 424.609375 509.484375 417.511719 L 501.117188 370.351562 C 498.5625 360.441406 489.046875 355.199219 482.878906 354.5 C 482.628906 354.363281 482.335938 354.28125 482.023438 354.269531 C 415.5625 351.871094 362.371094 308.9375 361.835938 308.507812 C 359.078125 306.234375 357.359375 303.035156 357 299.488281 C 356.652344 295.9375 357.707031 292.453125 359.960938 289.695312 C 362.507812 286.578125 366.285156 284.796875 370.3125 284.796875 C 373.375 284.796875 376.378906 285.863281 378.761719 287.8125 C 380.773438 289.449219 428.726562 327.90625 486.28125 327.90625 C 520.242188 327.90625 550.835938 314.691406 577.210938 288.65625 C 582.289062 283.636719 591.09375 283.683594 596.113281 288.777344 C 598.625 291.3125 599.992188 294.6875 599.964844 298.253906 C 599.957031 301.8125 598.542969 305.160156 595.996094 307.667969 Z M 613.617188 214.824219 C 571.835938 214.824219 541.945312 240.675781 540.6875 241.769531 C 538.242188 243.914062 535.117188 245.097656 531.871094 245.097656 C 528.019531 245.097656 524.351562 243.445312 521.820312 240.558594 C 519.46875 237.871094 518.292969 234.433594 518.53125 230.867188 C 518.75 227.308594 520.359375 224.046875 523.042969 221.691406 C 541.347656 205.601562 574.851562 188.421875 613.957031 188.421875 C 642.136719 188.421875 669.082031 197.355469 694.050781 214.988281 C 696.96875 217.050781 698.90625 220.121094 699.511719 223.640625 C 700.121094 227.152344 699.320312 230.703125 697.261719 233.617188 C 694.761719 237.164062 690.667969 239.277344 686.328125 239.277344 C 683.5625 239.277344 680.90625 238.433594 678.636719 236.824219 C 657.957031 222.226562 636.078125 214.824219 613.617188 214.824219 Z M 923.007812 404.339844 C 920.710938 407.078125 917.480469 408.753906 913.933594 409.066406 C 856.355469 414.113281 813.457031 401.425781 787.367188 371.554688 C 783.292969 366.902344 779.5625 361.691406 776.289062 356.0625 C 776.214844 355.925781 776.105469 355.796875 776.003906 355.679688 C 772.539062 352.195312 767.792969 350.328125 761.890625 350.117188 C 759.804688 350.042969 757.597656 350.171875 755.144531 350.519531 C 754.875 350.464844 738.226562 354.125 721.882812 353.582031 C 685.035156 352.367188 661.34375 335.09375 660.359375 334.367188 C 654.417969 329.992188 653.160156 321.605469 657.535156 315.667969 C 660.148438 312.109375 664.359375 310.078125 668.769531 310.242188 C 671.445312 310.335938 674 311.21875 676.179688 312.808594 C 676.925781 313.34375 694.722656 325.15625 722.597656 326.808594 C 736.074219 327.609375 749.296875 323.355469 750.90625 322.671875 C 761.210938 318.34375 760.824219 306.914062 760.320312 302.492188 C 758.132812 276.652344 762.710938 256.039062 762.894531 255.164062 C 764.484375 248.09375 771.738281 243.453125 778.882812 245.070312 C 786.042969 246.699219 790.585938 253.851562 788.976562 261.03125 C 788.847656 261.609375 776.675781 318.839844 807.601562 354.085938 C 827.800781 377.097656 863 386.707031 911.605469 382.429688 C 919.109375 381.804688 925.460938 387.320312 926.085938 394.585938 C 926.390625 398.132812 925.304688 401.597656 923.007812 404.339844 Z M 912.507812 197.402344 C 888.570312 220.359375 876.773438 256.875 882.492188 290.449219 C 883.613281 296.988281 879.191406 303.21875 872.664062 304.332031 C 871.984375 304.453125 871.292969 304.507812 870.613281 304.507812 C 864.738281 304.507812 859.480469 300.34375 858.773438 294.496094 C 854.378906 258.621094 865.988281 225.507812 866.128906 225.167969 C 866.898438 223.28125 867 221.644531 866.414062 220.304688 C 865.714844 218.648438 864.113281 217.738281 862.871094 217.25 C 826.980469 213.28125 762.339844 199.617188 732.324219 152.769531 C 727.699219 145.957031 715.601562 149.449219 696.011719 149.421875 C 607.992188 149.273438 595.515625 92.742188 595.03125 90.335938 C 594.394531 87.191406 595.019531 83.972656 596.792969 81.296875 C 598.570312 78.613281 601.273438 76.785156 604.425781 76.148438 C 605.214844 75.984375 606.023438 75.902344 606.824219 75.902344 C 612.460938 75.902344 617.40625 79.910156 618.59375 85.425781 C 618.96875 87.042969 628.621094 125.324219 696.214844 125.324219 C 699.558594 125.324219 703.042969 125.234375 706.566406 125.039062 C 714.332031 124.09375 718.683594 120.003906 719.8125 112.554688 C 720.925781 86.511719 740.542969 67.148438 751.960938 59.820312 C 753.902344 58.570312 756.144531 57.910156 758.445312 57.910156 C 762.570312 57.910156 766.359375 59.976562 768.59375 63.445312 C 770.332031 66.148438 770.910156 69.363281 770.21875 72.5 C 769.53125 75.644531 767.664062 78.328125 764.972656 80.066406 C 763.730469 80.882812 734.585938 100.367188 746.933594 129.121094 C 769.164062 180.917969 844.769531 191.914062 876.238281 194.230469 C 880.210938 193.917969 884.734375 191.546875 888.613281 187.722656 C 891.269531 184.660156 893.578125 182.195312 895.867188 180.007812 C 926.453125 150.691406 928.285156 121.988281 928.347656 120.785156 C 928.6875 114.164062 934.34375 109.015625 940.917969 109.355469 C 947.488281 109.652344 952.636719 115.230469 952.390625 121.796875 C 952.335938 123.394531 950.476562 161.015625 912.507812 197.402344 Z M 912.507812 197.402344 "/></g></svg>