<svg xmlns="http://www.w3.org/2000/svg" xmlns:xlink="http://www.w3.org/1999/xlink" width="1920" zoomAndPan="magnify" viewBox="0 0 1440 809.999993" height="1080" preserveAspectRatio="xMidYMid meet" version="1.2"><defs><clipPath id="8098774ec6"><path d="M 545 0 L 1081.78125 0 L 1081.78125 690 L 545 690 Z M 545 0 "/></clipPath><clipPath id="4d49980f18"><path d="M 358.03125 299 L 875 299 L 875 810 L 358.03125 810 Z M 358.03125 299 "/></clipPath></defs><g id="245b76008e"><g clip-rule="nonzero" clip-path="url(#8098774ec6)"><path style=" stroke:none;fill-rule:nonzero;fill:#2f5143;fill-opacity:1;" d="M 1059.617188 587.121094 L 986.347656 616.621094 L 877.867188 385.386719 L 645.683594 385.386719 L 638.070312 334.003906 L 821.726562 334.003906 L 821.726562 276.910156 L 630.457031 276.910156 L 612.378906 151.300781 C 615.234375 151.300781 619.039062 152.253906 621.894531 152.253906 C 663.761719 152.253906 698.019531 117.996094 698.019531 76.125 C 698.019531 34.257812 663.761719 0 621.894531 0 C 580.023438 0 545.769531 34.257812 545.769531 76.125 C 545.769531 81.835938 545.769531 84.691406 545.769531 93.253906 C 545.769531 101.820312 597.152344 442.480469 597.152344 442.480469 L 841.707031 442.480469 L 957.800781 689.890625 L 1081.503906 640.410156 Z M 1059.617188 587.121094 "/></g><g clip-rule="nonzero" clip-path="url(#4d49980f18)"><path style=" stroke:none;fill-rule:nonzero;fill:#2f5143;fill-opacity:1;" d="M 826.484375 522.414062 C 827.433594 530.027344 827.433594 537.640625 827.433594 545.253906 C 827.433594 658.488281 735.132812 751.742188 620.941406 751.742188 C 507.703125 751.742188 414.449219 659.441406 414.449219 545.253906 C 414.449219 461.515625 463.933594 390.144531 535.300781 357.792969 L 527.6875 299.746094 C 428.722656 337.808594 358.308594 432.964844 358.308594 546.203125 C 358.308594 691.796875 476.304688 809.789062 621.894531 809.789062 C 740.839844 809.789062 840.757812 731.761719 874.0625 623.28125 Z M 826.484375 522.414062 "/></g></g></svg>