<svg xmlns="http://www.w3.org/2000/svg" xmlns:xlink="http://www.w3.org/1999/xlink" width="1920" zoomAndPan="magnify" viewBox="0 0 1440 809.999993" height="1080" preserveAspectRatio="xMidYMid meet" version="1.2"><g id="6d40279219"><path style=" stroke:none;fill-rule:nonzero;fill:#2f5143;fill-opacity:1;" d="M 592.101562 34.136719 C 579.128906 34.136719 566.402344 38.5625 554.761719 47.171875 C 536.15625 60.929688 523.246094 83.476562 519.425781 109.058594 C 512.453125 155.789062 537.609375 198.464844 575.492188 204.160156 C 591.433594 206.644531 607.253906 202.28125 621.5 191.796875 C 640.109375 178.035156 652.957031 155.488281 656.777344 129.96875 C 656.777344 129.910156 656.777344 129.910156 656.777344 129.910156 C 663.746094 83.175781 638.652344 40.503906 600.710938 34.804688 C 597.859375 34.320312 594.949219 34.136719 592.101562 34.136719 Z M 583.859375 235.863281 C 579.554688 235.863281 575.191406 235.5 570.828125 234.890625 C 516.089844 226.589844 479.238281 168.09375 488.753906 104.449219 C 493.785156 70.808594 511.121094 40.804688 536.277344 22.195312 C 557.007812 6.921875 581.496094 0.496094 605.375 4.074219 C 660.171875 12.378906 696.964844 70.871094 687.449219 134.515625 C 682.476562 168.15625 665.140625 198.160156 639.925781 216.769531 C 623.015625 229.253906 603.496094 235.863281 583.859375 235.863281 "/><path style=" stroke:none;fill-rule:nonzero;fill:#2f5143;fill-opacity:1;" d="M 782.066406 204.828125 C 773.519531 204.828125 766.550781 197.917969 766.550781 189.371094 C 766.429688 151.730469 779.945312 116.574219 803.523438 92.933594 C 821.34375 75.050781 843.953125 65.171875 867.167969 65.171875 C 867.167969 65.171875 867.230469 65.171875 867.230469 65.171875 C 922.875 65.171875 968.152344 120.816406 968.273438 189.308594 C 968.273438 197.855469 961.363281 204.828125 952.816406 204.828125 C 952.757812 204.828125 952.757812 204.828125 952.757812 204.828125 C 944.210938 204.828125 937.238281 197.917969 937.238281 189.308594 C 937.179688 137.96875 905.71875 96.207031 867.230469 96.207031 C 867.230469 96.207031 867.230469 96.207031 867.167969 96.207031 C 852.078125 96.207031 837.648438 102.632812 825.464844 114.816406 C 807.707031 132.695312 797.523438 159.851562 797.585938 189.25 C 797.585938 197.855469 790.675781 204.828125 782.128906 204.828125 C 782.128906 204.828125 782.066406 204.828125 782.066406 204.828125 "/><path style=" stroke:none;fill-rule:nonzero;fill:#2f5143;fill-opacity:1;" d="M 704.480469 810 C 695.933594 810 688.964844 803.03125 688.964844 794.484375 L 688.964844 453.101562 C 688.964844 448.617188 690.902344 444.375 694.296875 441.40625 C 697.632812 438.496094 702.054688 437.101562 706.542969 437.707031 C 791.523438 449.164062 928.570312 467.105469 950.574219 468.5 C 976.335938 454.132812 1089.320312 323.632812 1092.410156 297.628906 C 1092.410156 293.203125 1091.5625 252.46875 1062.527344 251.378906 C 1058.589844 253.5625 1049.617188 263.078125 1041.675781 271.503906 C 1018.765625 295.808594 980.398438 336.542969 913.722656 373.578125 C 909.964844 375.636719 905.476562 376.125 901.355469 374.730469 L 700.296875 308.839844 C 680.839844 302.476562 660.597656 299.203125 640.109375 299.203125 L 536.335938 299.203125 L 482.148438 301.871094 C 404.5 305.628906 337.039062 355.210938 310.183594 428.191406 C 283.878906 499.535156 269.996094 556.449219 269.996094 592.757812 C 269.996094 627.613281 311.335938 674.890625 327.277344 690.164062 C 333.460938 696.105469 333.703125 705.925781 327.761719 712.109375 C 321.824219 718.289062 312.003906 718.53125 305.820312 712.59375 C 298.972656 706.046875 238.964844 646.949219 238.964844 592.757812 C 238.964844 552.328125 253.085938 493.289062 281.03125 417.460938 C 312.183594 332.785156 390.558594 275.261719 480.632812 270.898438 L 535.609375 268.230469 L 640.109375 268.167969 C 663.871094 268.167969 687.386719 271.925781 709.9375 279.324219 L 904.566406 343.148438 C 963.304688 309.449219 996.703125 273.929688 1019.070312 250.226562 C 1036.648438 231.558594 1047.253906 220.34375 1061.378906 220.34375 C 1098.535156 220.34375 1123.445312 251.5 1123.445312 297.929688 C 1123.445312 333.753906 983.0625 499.65625 952.757812 499.65625 C 936.574219 499.65625 776.671875 478.441406 719.996094 470.863281 L 719.996094 794.484375 C 719.996094 803.03125 713.027344 810 704.480469 810 "/><path style=" stroke:none;fill-rule:nonzero;fill:#2f5143;fill-opacity:1;" d="M 363.101562 810 C 354.554688 810 347.585938 803.03125 347.585938 794.484375 C 347.585938 686.648438 362.980469 439.101562 363.101562 436.617188 C 363.648438 428.070312 371.042969 421.402344 379.589844 422.128906 C 388.136719 422.613281 394.621094 430.007812 394.136719 438.554688 C 393.953125 441.042969 378.617188 687.621094 378.617188 794.484375 C 378.617188 803.03125 371.648438 810 363.101562 810 "/><path style=" stroke:none;fill-rule:nonzero;fill:#2f5143;fill-opacity:1;" d="M 735.695312 268.109375 C 730.058594 268.109375 724.605469 265.078125 721.878906 259.742188 C 717.9375 252.226562 720.664062 243.074219 728.121094 239.015625 C 731.636719 237.136719 765.761719 220.34375 875.171875 220.34375 C 948.757812 220.34375 981.304688 228.890625 982.640625 229.253906 C 990.945312 231.496094 995.851562 240.042969 993.609375 248.289062 C 991.308594 256.59375 982.699219 261.441406 974.578125 259.257812 C 974.335938 259.199219 943.90625 251.378906 875.171875 251.378906 C 774.246094 251.378906 742.972656 266.289062 742.667969 266.472656 C 740.425781 267.5625 738.0625 268.109375 735.695312 268.109375 "/><path style=" stroke:none;fill-rule:nonzero;fill:#2f5143;fill-opacity:1;" d="M 1138.964844 747.929688 C 1133.75 747.929688 1128.660156 745.324219 1125.75 740.476562 C 1121.265625 733.203125 1123.566406 723.625 1130.839844 719.140625 C 1132.417969 718.230469 1169.996094 693.921875 1169.996094 639.308594 C 1169.996094 577.605469 1113.324219 381.519531 1112.777344 379.519531 C 1110.355469 371.273438 1115.140625 362.667969 1123.324219 360.304688 C 1131.628906 357.9375 1140.175781 362.667969 1142.539062 370.910156 C 1144.964844 379.09375 1201.03125 573.179688 1201.03125 639.308594 C 1201.03125 711.867188 1149.269531 744.292969 1147.085938 745.6875 C 1144.539062 747.203125 1141.75 747.929688 1138.964844 747.929688 "/><path style=" stroke:none;fill-rule:nonzero;fill:#2f5143;fill-opacity:1;" d="M 1092.410156 810 C 1083.863281 810 1076.894531 803.03125 1076.894531 794.484375 L 1076.894531 515.171875 C 1076.894531 506.625 1083.863281 499.65625 1092.410156 499.65625 C 1100.957031 499.65625 1107.929688 506.625 1107.929688 515.171875 L 1107.929688 794.484375 C 1107.929688 803.03125 1100.957031 810 1092.410156 810 "/></g></svg>