<svg xmlns="http://www.w3.org/2000/svg" xmlns:xlink="http://www.w3.org/1999/xlink" width="1920" zoomAndPan="magnify" viewBox="0 0 1440 809.999993" height="1080" preserveAspectRatio="xMidYMid meet" version="1.2"><defs><clipPath id="acc30a6349"><path d="M 343.15625 0 L 1028 0 L 1028 810 L 343.15625 810 Z M 343.15625 0 "/></clipPath></defs><g id="892d1093f2"><path style=" stroke:none;fill-rule:nonzero;fill:#2f5143;fill-opacity:1;" d="M 667.863281 580.507812 C 664.628906 580.507812 661.390625 579.273438 658.921875 576.800781 L 547.527344 465.40625 C 532.160156 450.027344 523.699219 429.597656 523.699219 407.875 C 523.699219 386.15625 532.160156 365.726562 547.523438 350.351562 C 562.894531 334.980469 583.324219 326.515625 605.050781 326.515625 C 626.78125 326.515625 647.210938 334.980469 662.578125 350.347656 L 667.867188 355.636719 L 673.15625 350.347656 C 688.523438 334.980469 708.953125 326.515625 730.6875 326.515625 C 752.417969 326.515625 772.847656 334.980469 788.21875 350.347656 C 803.582031 365.710938 812.042969 386.140625 812.042969 407.875 C 812.042969 429.609375 803.582031 450.042969 788.214844 465.40625 L 676.808594 576.800781 C 674.339844 579.273438 671.101562 580.507812 667.863281 580.507812 Z M 605.050781 351.8125 C 590.078125 351.8125 576 357.644531 565.414062 368.234375 C 554.828125 378.828125 548.996094 392.910156 548.996094 407.878906 C 548.996094 422.847656 554.828125 436.925781 565.417969 447.527344 L 667.867188 549.976562 L 770.328125 447.519531 C 780.917969 436.9375 786.75 422.855469 786.75 407.878906 C 786.75 392.898438 780.917969 378.820312 770.332031 368.234375 C 759.738281 357.644531 745.664062 351.8125 730.6875 351.8125 C 715.707031 351.8125 701.632812 357.644531 691.042969 368.234375 L 676.808594 382.464844 C 671.871094 387.40625 663.863281 387.40625 658.925781 382.464844 L 644.691406 368.234375 C 634.101562 357.644531 620.023438 351.8125 605.050781 351.8125 Z M 605.050781 351.8125 "/><g clip-rule="nonzero" clip-path="url(#acc30a6349)"><path style=" stroke:none;fill-rule:nonzero;fill:#2f5143;fill-opacity:1;" d="M 774.097656 809.742188 L 441.386719 809.742188 C 437.683594 809.742188 434.171875 808.121094 431.769531 805.304688 C 429.367188 802.492188 428.316406 798.765625 428.894531 795.113281 L 429.414062 791.824219 C 446.832031 682.746094 428.597656 571.152344 376.695312 469.097656 C 357.410156 431.183594 345.601562 383.023438 343.445312 333.488281 C 343.4375 333.304688 343.433594 333.125 343.433594 332.9375 C 343.433594 277.367188 358.207031 221.292969 386.164062 170.78125 C 413.230469 121.875 451.359375 80.21875 496.433594 50.3125 C 496.609375 50.195312 496.789062 50.082031 496.96875 49.976562 C 551.492188 17.597656 611.769531 0.03125 666.632812 0.316406 C 667.488281 0.339844 668.5 0.332031 669.476562 0.347656 C 669.542969 0.347656 669.625 0.347656 669.691406 0.351562 C 756.175781 1.703125 836.753906 36.519531 896.589844 98.382812 C 956.484375 160.308594 988.632812 242.144531 987.113281 328.816406 C 987.109375 329.035156 987.101562 329.25 987.09375 329.464844 C 987.09375 329.472656 987.09375 329.484375 987.09375 329.496094 C 986.316406 363.691406 994.933594 397.09375 1012.015625 426.085938 L 1023.714844 445.960938 C 1029.054688 455.164062 1029.054688 466.070312 1023.761719 475.203125 C 1018.496094 484.292969 1009.105469 489.703125 998.617188 489.703125 C 998.566406 489.703125 998.515625 489.703125 998.460938 489.703125 L 961.929688 489.550781 L 961.929688 601.929688 C 961.929688 640.644531 930.433594 672.140625 891.71875 672.140625 L 786.746094 672.140625 L 786.746094 797.09375 C 786.746094 804.078125 781.082031 809.742188 774.097656 809.742188 Z M 456.085938 784.445312 L 761.453125 784.445312 L 761.453125 659.492188 C 761.453125 652.507812 767.113281 646.84375 774.097656 646.84375 L 891.71875 646.84375 C 916.484375 646.84375 936.632812 626.695312 936.632812 601.929688 L 936.632812 476.851562 C 936.632812 473.484375 937.972656 470.261719 940.351562 467.886719 C 942.726562 465.527344 945.933594 464.203125 949.277344 464.203125 C 949.296875 464.203125 949.3125 464.203125 949.332031 464.203125 L 998.578125 464.410156 C 998.585938 464.410156 998.59375 464.410156 998.601562 464.410156 C 1000.5 464.410156 1001.464844 463.230469 1001.875 462.523438 C 1002.285156 461.8125 1002.832031 460.375 1001.875 458.722656 L 990.21875 438.925781 C 970.757812 405.890625 960.933594 367.878906 961.800781 329 C 961.804688 328.800781 961.808594 328.601562 961.820312 328.40625 C 963.226562 248.484375 933.601562 173.042969 878.40625 115.972656 C 823.296875 58.992188 749.0625 26.917969 669.375 25.648438 C 669.308594 25.648438 669.230469 25.648438 669.1875 25.648438 C 668.222656 25.632812 667.386719 25.617188 666.550781 25.617188 C 616.171875 25.308594 560.703125 41.609375 510.152344 71.570312 C 424.308594 128.664062 368.824219 231.09375 368.722656 332.671875 C 370.757812 378.574219 381.589844 422.941406 399.238281 457.632812 C 451.785156 560.949219 471.355469 673.699219 456.085938 784.445312 Z M 456.085938 784.445312 "/></g><path style=" stroke:none;fill-rule:nonzero;fill:#2f5143;fill-opacity:1;" d="M 667.863281 386.167969 C 660.878906 386.167969 655.214844 380.503906 655.214844 373.519531 L 655.214844 202.65625 C 655.214844 195.671875 660.878906 190.007812 667.863281 190.007812 C 674.847656 190.007812 680.511719 195.671875 680.511719 202.65625 L 680.511719 373.519531 C 680.511719 380.503906 674.847656 386.167969 667.863281 386.167969 Z M 667.863281 386.167969 "/><path style=" stroke:none;fill-rule:nonzero;fill:#2f5143;fill-opacity:1;" d="M 668.179688 215.320312 C 639.339844 215.320312 617.589844 177.257812 617.589844 126.789062 C 617.589844 79.765625 658.023438 43.023438 659.742188 41.484375 C 664.542969 37.183594 671.816406 37.183594 676.617188 41.484375 C 678.335938 43.023438 718.769531 79.765625 718.769531 126.789062 C 718.769531 177.257812 697.019531 215.320312 668.179688 215.320312 Z M 668.179688 69.25 C 658.1875 80.90625 642.886719 102.695312 642.886719 126.789062 C 642.886719 165.390625 657.867188 190.023438 668.179688 190.023438 C 678.492188 190.023438 693.472656 165.390625 693.472656 126.789062 C 693.472656 102.699219 678.175781 80.914062 668.179688 69.25 Z M 668.179688 69.25 "/><path style=" stroke:none;fill-rule:nonzero;fill:#2f5143;fill-opacity:1;" d="M 668.179688 325.980469 C 666.085938 325.980469 663.996094 325.464844 662.097656 324.421875 L 662.042969 324.390625 L 591.488281 289.917969 C 585.210938 286.851562 582.613281 279.277344 585.675781 273 C 588.742188 266.726562 596.316406 264.125 602.59375 267.191406 L 667.425781 298.871094 L 716.78125 267.84375 C 722.699219 264.125 730.503906 265.910156 734.21875 271.824219 C 737.9375 277.738281 736.15625 285.542969 730.242188 289.261719 L 674.910156 324.039062 C 672.855469 325.332031 670.519531 325.980469 668.179688 325.980469 Z M 668.179688 325.980469 "/><path style=" stroke:none;fill-rule:nonzero;fill:#2f5143;fill-opacity:1;" d="M 748.804688 291.203125 L 723.511719 291.203125 C 716.527344 291.203125 710.863281 285.539062 710.863281 278.554688 C 710.863281 229.738281 750.578125 190.023438 799.394531 190.023438 L 824.6875 190.023438 C 831.671875 190.023438 837.335938 195.6875 837.335938 202.671875 C 837.335938 251.488281 797.621094 291.203125 748.804688 291.203125 Z M 737.429688 265.90625 L 748.804688 265.90625 C 779.34375 265.90625 804.894531 244.144531 810.769531 215.320312 L 799.394531 215.320312 C 768.855469 215.320312 743.304688 237.078125 737.429688 265.90625 Z M 737.429688 265.90625 "/><path style=" stroke:none;fill-rule:nonzero;fill:#2f5143;fill-opacity:1;" d="M 597.039062 291.203125 L 571.746094 291.203125 C 522.929688 291.203125 483.214844 251.488281 483.214844 202.671875 C 483.214844 195.6875 488.875 190.023438 495.859375 190.023438 L 521.15625 190.023438 C 569.96875 190.023438 609.6875 229.738281 609.6875 278.554688 C 609.6875 285.539062 604.023438 291.203125 597.039062 291.203125 Z M 509.78125 215.320312 C 515.65625 244.144531 541.207031 265.90625 571.746094 265.90625 L 583.121094 265.90625 C 577.246094 237.078125 551.691406 215.320312 521.15625 215.320312 Z M 509.78125 215.320312 "/></g></svg>