<svg xmlns="http://www.w3.org/2000/svg" xmlns:xlink="http://www.w3.org/1999/xlink" width="1920" zoomAndPan="magnify" viewBox="0 0 1440 809.999993" height="1080" preserveAspectRatio="xMidYMid meet" version="1.2"><defs><clipPath id="5e8ae26e02"><path d="M 378.28125 63.28125 L 1061.71875 63.28125 L 1061.71875 746.71875 L 378.28125 746.71875 Z M 378.28125 63.28125 "/></clipPath><clipPath id="ef91b6e856"><path d="M 378.28125 253.125 C 378.28125 148.332031 463.332031 63.28125 568.125 63.28125 L 871.875 63.28125 C 976.667969 63.28125 1061.71875 148.332031 1061.71875 253.125 L 1061.71875 556.875 C 1061.71875 661.667969 976.667969 746.71875 871.875 746.71875 L 568.125 746.71875 C 463.332031 746.71875 378.28125 661.667969 378.28125 556.875 Z M 378.28125 253.125 "/></clipPath><clipPath id="7104a93061"><path d="M 593 278 L 831 278 L 831 516 L 593 516 Z M 593 278 "/></clipPath><clipPath id="f16dbaaf7f"><path d="M 811.882812 397.027344 L 792.898438 397.027344 C 792.898438 441.703125 756.703125 477.898438 712.027344 477.898438 L 712.027344 515.867188 C 777.710938 515.867188 830.867188 462.585938 830.867188 397.027344 Z M 712.027344 496.882812 L 712.027344 477.898438 C 667.351562 477.898438 631.152344 441.703125 631.152344 397.027344 L 593.183594 397.027344 C 593.183594 462.710938 646.46875 515.867188 712.027344 515.867188 Z M 612.167969 397.027344 L 631.152344 397.027344 C 631.152344 352.351562 667.351562 316.152344 712.027344 316.152344 L 712.027344 278.183594 C 646.339844 278.183594 593.183594 331.46875 593.183594 397.027344 Z M 712.027344 297.167969 L 712.027344 316.152344 C 756.703125 316.152344 792.898438 352.351562 792.898438 397.027344 L 830.867188 397.027344 C 830.867188 331.339844 777.585938 278.183594 712.027344 278.183594 Z M 712.027344 297.167969 "/></clipPath><clipPath id="f02c0205e3"><path d="M 763 448 L 856 448 L 856 541 L 763 541 Z M 763 448 "/></clipPath><clipPath id="04e5207a5a"><path d="M 823.527344 535.359375 C 830.996094 542.828125 843.019531 542.828125 850.359375 535.359375 C 857.699219 527.890625 857.828125 515.867188 850.359375 508.527344 Z M 795.9375 454.105469 C 788.46875 446.640625 776.445312 446.640625 769.105469 454.105469 C 761.765625 461.574219 761.640625 473.597656 769.105469 480.9375 Z M 836.816406 521.816406 L 850.234375 508.402344 L 795.9375 454.105469 L 782.523438 467.523438 L 769.105469 480.9375 L 823.402344 535.234375 Z M 836.816406 521.816406 "/></clipPath></defs><g id="d731107213"><g clip-rule="nonzero" clip-path="url(#5e8ae26e02)"><g clip-rule="nonzero" clip-path="url(#ef91b6e856)"><path style=" stroke:none;fill-rule:nonzero;fill:#2e5143;fill-opacity:1;" d="M 315 0 L 1125 0 L 1125 810 L 315 810 Z M 315 0 "/></g></g><g clip-rule="nonzero" clip-path="url(#7104a93061)"><g clip-rule="nonzero" clip-path="url(#f16dbaaf7f)"><path style=" stroke:none;fill-rule:nonzero;fill:#ffffff;fill-opacity:1;" d="M 315 0 L 1125 0 L 1125 810 L 315 810 Z M 315 0 "/></g></g><g clip-rule="nonzero" clip-path="url(#f02c0205e3)"><g clip-rule="nonzero" clip-path="url(#04e5207a5a)"><path style=" stroke:none;fill-rule:nonzero;fill:#ffffff;fill-opacity:1;" d="M 315 0 L 1125 0 L 1125 810 L 315 810 Z M 315 0 "/></g></g></g></svg>