<svg xmlns="http://www.w3.org/2000/svg" xmlns:xlink="http://www.w3.org/1999/xlink" width="1920" zoomAndPan="magnify" viewBox="0 0 1440 809.999993" height="1080" preserveAspectRatio="xMidYMid meet" version="1.2"><defs><clipPath id="02c77572ff"><path d="M 315 0 L 1125 0 L 1125 810 L 315 810 Z M 315 0 "/></clipPath><clipPath id="e89a31a7a2"><path d="M 720 0 C 496.324219 0 315 181.324219 315 405 C 315 628.675781 496.324219 810 720 810 C 943.675781 810 1125 628.675781 1125 405 C 1125 181.324219 943.675781 0 720 0 Z M 720 0 "/></clipPath><clipPath id="d9ef3e1a3c"><path d="M 605 120.25 L 835 120.25 L 835 349 L 605 349 Z M 605 120.25 "/></clipPath><clipPath id="8d869e4c39"><path d="M 544 379 L 896 379 L 896 689.5 L 544 689.5 Z M 544 379 "/></clipPath></defs><g id="aa7f9f71c5"><g clip-rule="nonzero" clip-path="url(#02c77572ff)"><g clip-rule="nonzero" clip-path="url(#e89a31a7a2)"><path style=" stroke:none;fill-rule:nonzero;fill:#f2d4b4;fill-opacity:1;" d="M 315 0 L 1125 0 L 1125 810 L 315 810 Z M 315 0 "/><path style="fill:none;stroke-width:34;stroke-linecap:butt;stroke-linejoin:miter;stroke:#2f5143;stroke-opacity:1;stroke-miterlimit:4;" d="M 540.00004 -0.0000266667 C 241.76565 -0.0000266667 0.0000128333 241.76561 0.0000128333 540.000001 C 0.0000128333 838.234391 241.76565 1080.000028 540.00004 1080.000028 C 838.23443 1080.000028 1080.000067 838.234391 1080.000067 540.000001 C 1080.000067 241.76561 838.23443 -0.0000266667 540.00004 -0.0000266667 Z M 540.00004 -0.0000266667 " transform="matrix(0.75,0,0,0.75,314.99999,0.00002)"/></g></g><g clip-rule="nonzero" clip-path="url(#d9ef3e1a3c)"><path style=" stroke:none;fill-rule:nonzero;fill:#2f5143;fill-opacity:1;" d="M 719.945312 348.359375 C 782.941406 348.359375 834.015625 297.304688 834.015625 234.324219 C 834.015625 171.339844 782.941406 120.296875 719.945312 120.296875 C 656.949219 120.296875 605.933594 171.355469 605.933594 234.324219 C 605.933594 297.289062 657.007812 348.359375 719.945312 348.359375 Z M 719.945312 348.359375 "/></g><g clip-rule="nonzero" clip-path="url(#8d869e4c39)"><path style=" stroke:none;fill-rule:nonzero;fill:#2f5143;fill-opacity:1;" d="M 882.523438 486.136719 C 875.285156 425.238281 823.570312 379.453125 762.304688 379.453125 L 677.570312 379.453125 C 616.316406 379.453125 564.722656 425.210938 557.394531 486.027344 L 544.386719 648.492188 C 543.476562 659.890625 550.964844 670.449219 562.140625 672.882812 C 611.78125 683.695312 664.8125 689.449219 719.945312 689.449219 C 775.078125 689.449219 828.074219 683.691406 877.761719 672.878906 C 888.9375 670.445312 896.429688 659.886719 895.519531 648.484375 Z M 722.660156 633.699219 C 711.617188 633.699219 702.664062 624.75 702.664062 613.707031 C 702.664062 602.667969 711.617188 593.71875 722.660156 593.71875 C 733.699219 593.71875 742.652344 602.671875 742.652344 613.707031 C 742.652344 624.746094 733.699219 633.699219 722.660156 633.699219 Z M 770.957031 529.953125 C 763.15625 540.578125 755.21875 546.140625 749.441406 550.207031 C 742.863281 554.808594 740.058594 556.78125 739.265625 567.535156 C 738.921875 572.28125 734.863281 575.9375 730.089844 575.9375 L 715.738281 575.9375 C 710.363281 575.9375 706.066406 571.289062 706.5 565.925781 C 708.484375 540.828125 718.230469 531.921875 730.539062 523.285156 C 735.535156 519.78125 739.847656 516.75 744.460938 510.476562 C 749.128906 504.125 749.667969 495.546875 745.875 488.058594 C 743.308594 482.996094 736.625 474.496094 720.617188 474.496094 C 699.710938 474.496094 693.308594 487.667969 691.488281 497.929688 C 690.714844 502.382812 686.9375 505.640625 682.417969 505.640625 L 667.914062 505.640625 C 662.320312 505.640625 657.902344 500.691406 658.695312 495.15625 C 662.679688 467.722656 682.417969 441.597656 720.617188 441.597656 C 744.800781 441.597656 765.214844 453.414062 775.226562 473.207031 C 784.65625 491.816406 783.015625 513.5625 770.957031 529.953125 Z M 770.957031 529.953125 "/></g></g></svg>