<svg xmlns="http://www.w3.org/2000/svg" xmlns:xlink="http://www.w3.org/1999/xlink" width="1920" zoomAndPan="magnify" viewBox="0 0 1440 809.999993" height="1080" preserveAspectRatio="xMidYMid meet" version="1.2"><defs><clipPath id="e148177b2e"><path d="M 350.535156 0 L 1160.535156 0 L 1160.535156 810 L 350.535156 810 Z M 350.535156 0 "/></clipPath><clipPath id="2281022bbb"><path d="M 755.535156 0 C 531.859375 0 350.535156 181.324219 350.535156 405 C 350.535156 628.675781 531.859375 810 755.535156 810 C 979.210938 810 1160.535156 628.675781 1160.535156 405 C 1160.535156 181.324219 979.210938 0 755.535156 0 Z M 755.535156 0 "/></clipPath><clipPath id="afcaba0923"><path d="M 483.925781 143.875 L 998 143.875 L 998 658 L 483.925781 658 Z M 483.925781 143.875 "/></clipPath></defs><g id="ff537ba80e"><g clip-rule="nonzero" clip-path="url(#e148177b2e)"><g clip-rule="nonzero" clip-path="url(#2281022bbb)"><path style=" stroke:none;fill-rule:nonzero;fill:#f2d4b4;fill-opacity:1;" d="M 350.535156 0 L 1160.535156 0 L 1160.535156 810 L 350.535156 810 Z M 350.535156 0 "/><path style="fill:none;stroke-width:30;stroke-linecap:butt;stroke-linejoin:miter;stroke:#2f5143;stroke-opacity:1;stroke-miterlimit:4;" d="M 539.99818 -0.0000266667 C 241.76379 -0.0000266667 -0.00184685 241.76561 -0.00184685 540.000001 C -0.00184685 838.234391 241.76379 1080.000028 539.99818 1080.000028 C 838.23257 1080.000028 1079.998207 838.234391 1079.998207 540.000001 C 1079.998207 241.76561 838.23257 -0.0000266667 539.99818 -0.0000266667 Z M 539.99818 -0.0000266667 " transform="matrix(0.75,0,0,0.75,350.536541,0.00002)"/></g></g><g clip-rule="nonzero" clip-path="url(#afcaba0923)"><path style=" stroke:none;fill-rule:nonzero;fill:#2f5143;fill-opacity:1;" d="M 529.359375 342.898438 C 529.359375 257.960938 598.011719 189.308594 682.953125 189.308594 C 767.84375 189.308594 836.542969 258.007812 836.542969 342.898438 C 836.542969 427.792969 767.84375 496.488281 682.953125 496.488281 C 598.011719 496.488281 529.359375 427.792969 529.359375 342.898438 Z M 974.441406 544.570312 L 853.832031 445.082031 C 871.667969 415.339844 881.976562 380.214844 881.976562 342.898438 C 882.480469 233.101562 792.75 143.875 682.953125 143.875 C 573.152344 143.875 483.925781 233.101562 483.925781 342.898438 C 483.925781 452.699219 573.152344 541.878906 682.953125 541.878906 C 720.265625 541.878906 755.390625 531.613281 785.132812 513.777344 L 884.121094 634.34375 C 908.433594 663.582031 952.226562 665.726562 978.730469 638.722656 C 1005.78125 612.21875 1003.636719 568.425781 974.441406 544.617188 L 974.441406 544.570312 "/></g><path style=" stroke:none;fill-rule:nonzero;fill:#2f5143;fill-opacity:1;" d="M 683.5 228.765625 C 657.496094 228.765625 633.730469 243.910156 622.921875 267.175781 L 618.039062 276.890625 C 615.894531 281.773438 615.347656 287.199219 617.492188 292.035156 C 619.132812 296.917969 622.921875 301.25 627.800781 303.394531 C 637.515625 308.277344 649.421875 303.941406 654.304688 293.679688 L 659.140625 283.960938 C 663.472656 274.199219 673.191406 268.269531 683.5 268.269531 C 696.453125 268.269531 707.8125 277.4375 709.957031 290.441406 C 711.050781 298.011719 708.359375 304.488281 702.929688 308.824219 L 670.5 333.683594 C 665.617188 337.46875 662.378906 343.445312 662.378906 349.375 L 662.378906 373.1875 C 662.378906 384 671.046875 393.167969 682.402344 393.167969 C 693.214844 393.167969 702.382812 384.5 702.382812 373.1875 L 702.382812 359.09375 L 727.289062 340.160156 C 744.578125 326.660156 753.246094 305.039062 749.460938 283.414062 C 743.484375 252.03125 715.386719 228.765625 683.5 228.765625 "/><path style=" stroke:none;fill-rule:nonzero;fill:#2f5143;fill-opacity:1;" d="M 706.71875 432.625 C 706.71875 446.082031 695.859375 456.984375 682.402344 456.984375 C 668.945312 456.984375 658.042969 446.082031 658.042969 432.625 C 658.042969 419.214844 668.945312 408.3125 682.402344 408.3125 C 695.859375 408.3125 706.71875 419.214844 706.71875 432.625 "/></g></svg>