<svg xmlns="http://www.w3.org/2000/svg" xmlns:xlink="http://www.w3.org/1999/xlink" width="1920" zoomAndPan="magnify" viewBox="0 0 1440 809.999993" height="1080" preserveAspectRatio="xMidYMid meet" version="1.2"><g id="b870c8a375"><path style=" stroke:none;fill-rule:nonzero;fill:#ffffff;fill-opacity:1;" d="M 506.152344 527.609375 C 508.628906 530.367188 512.160156 531.9375 515.863281 531.9375 L 923.964844 531.9375 C 927.671875 531.9375 931.203125 530.363281 933.679688 527.609375 C 936.15625 524.851562 937.34375 521.171875 936.949219 517.488281 C 931.253906 464.253906 906.152344 415.074219 866.273438 379.007812 C 841.605469 356.703125 812.484375 340.5625 781.136719 331.414062 C 814.472656 310.816406 836.742188 273.949219 836.742188 231.964844 C 836.742188 167.546875 784.335938 115.136719 719.917969 115.136719 C 655.5 115.136719 603.089844 167.546875 603.089844 231.964844 C 603.089844 273.945312 625.359375 310.816406 658.695312 331.414062 C 627.34375 340.558594 598.222656 356.699219 573.554688 379.007812 C 533.675781 415.074219 508.574219 464.253906 502.878906 517.492188 C 502.488281 521.175781 503.675781 524.855469 506.152344 527.609375 Z M 629.210938 231.964844 C 629.210938 181.949219 669.902344 141.257812 719.917969 141.257812 C 769.933594 141.257812 810.625 181.949219 810.625 231.964844 C 810.625 281.953125 769.980469 322.625 720.003906 322.671875 C 719.972656 322.671875 719.945312 322.667969 719.917969 322.667969 C 719.886719 322.667969 719.859375 322.671875 719.832031 322.671875 C 669.855469 322.625 629.210938 281.953125 629.210938 231.964844 Z M 719.832031 348.789062 C 719.859375 348.789062 719.890625 348.792969 719.917969 348.792969 C 719.949219 348.792969 719.976562 348.789062 720.003906 348.789062 C 813.511719 348.832031 892.285156 415.367188 908.886719 505.820312 L 530.945312 505.820312 C 547.546875 415.367188 626.320312 348.832031 719.832031 348.789062 Z M 936.324219 241.761719 C 938.875 244.3125 942.214844 245.585938 945.558594 245.585938 C 948.902344 245.585938 952.242188 244.3125 954.792969 241.761719 L 1068.945312 127.613281 L 1084.386719 143.050781 C 1089.492188 148.164062 1096.878906 149.792969 1103.65625 147.304688 C 1110.433594 144.816406 1115.007812 138.796875 1115.59375 131.597656 L 1124.691406 20.136719 C 1125.132812 14.769531 1123.203125 9.503906 1119.390625 5.691406 C 1115.582031 1.878906 1110.316406 -0.0351562 1104.945312 0.386719 L 1104.949219 0.386719 L 993.488281 9.484375 C 986.285156 10.074219 980.269531 14.648438 977.777344 21.421875 C 975.289062 28.199219 976.917969 35.585938 982.027344 40.695312 L 997.46875 56.136719 L 883.316406 170.289062 C 880.867188 172.738281 879.492188 176.058594 879.492188 179.523438 C 879.492188 182.984375 880.867188 186.304688 883.316406 188.757812 Z M 1025.171875 65.371094 C 1027.617188 62.921875 1028.996094 59.601562 1028.996094 56.136719 C 1028.996094 52.671875 1027.617188 49.351562 1025.171875 46.902344 L 1012.414062 34.148438 L 1097.914062 27.167969 L 1090.933594 112.667969 L 1078.175781 99.910156 C 1073.074219 94.8125 1064.808594 94.8125 1059.707031 99.910156 L 945.558594 214.0625 L 911.019531 179.527344 Z M 324.238281 131.59375 C 324.828125 138.796875 329.402344 144.816406 336.179688 147.304688 C 342.957031 149.792969 350.339844 148.164062 355.445312 143.054688 L 370.890625 127.613281 L 485.042969 241.761719 C 487.589844 244.3125 490.933594 245.585938 494.277344 245.585938 C 497.621094 245.585938 500.960938 244.3125 503.511719 241.761719 L 556.515625 188.757812 C 558.964844 186.304688 560.339844 182.984375 560.339844 179.523438 C 560.339844 176.058594 558.964844 172.738281 556.515625 170.289062 L 442.367188 56.136719 L 457.8125 40.691406 C 462.917969 35.582031 464.546875 28.203125 462.058594 21.421875 C 459.566406 14.648438 453.550781 10.074219 446.347656 9.484375 L 334.890625 0.386719 C 329.515625 -0.046875 324.253906 1.878906 320.445312 5.691406 C 316.632812 9.503906 314.703125 14.769531 315.140625 20.132812 Z M 427.421875 34.148438 L 414.664062 46.902344 C 412.214844 49.351562 410.839844 52.671875 410.839844 56.136719 C 410.839844 59.601562 412.214844 62.921875 414.664062 65.371094 L 528.816406 179.523438 L 494.277344 214.058594 L 380.125 99.910156 C 377.574219 97.359375 374.234375 96.085938 370.890625 96.085938 C 367.550781 96.085938 364.207031 97.359375 361.65625 99.910156 L 348.898438 112.664062 L 341.917969 27.167969 Z M 1124.691406 790.191406 L 1115.59375 678.730469 C 1115.007812 671.53125 1110.433594 665.511719 1103.65625 663.023438 C 1096.878906 660.535156 1089.496094 662.164062 1084.386719 667.269531 L 1068.945312 682.714844 L 954.792969 568.5625 C 952.34375 566.113281 949.023438 564.738281 945.558594 564.738281 C 942.09375 564.738281 938.773438 566.113281 936.324219 568.5625 L 883.316406 621.570312 C 878.21875 626.671875 878.21875 634.9375 883.316406 640.039062 L 997.46875 754.191406 L 982.027344 769.632812 C 976.917969 774.742188 975.289062 782.125 977.777344 788.902344 C 980.269531 795.679688 986.285156 800.253906 993.488281 800.839844 L 1104.945312 809.941406 C 1105.449219 809.980469 1105.949219 810 1106.449219 810 C 1111.289062 810 1115.9375 808.089844 1119.390625 804.632812 C 1123.199219 800.824219 1125.132812 795.558594 1124.691406 790.191406 Z M 1012.414062 776.179688 L 1025.171875 763.425781 C 1027.617188 760.972656 1028.996094 757.652344 1028.996094 754.191406 C 1028.996094 750.726562 1027.617188 747.40625 1025.171875 744.953125 L 911.019531 630.804688 L 945.558594 596.265625 L 1059.707031 710.417969 C 1062.15625 712.867188 1065.480469 714.242188 1068.941406 714.242188 C 1072.40625 714.242188 1075.726562 712.867188 1078.179688 710.417969 L 1090.933594 697.660156 L 1097.914062 783.160156 Z M 503.511719 568.5625 C 501.0625 566.113281 497.738281 564.734375 494.277344 564.734375 C 490.8125 564.734375 487.492188 566.113281 485.042969 568.5625 L 370.890625 682.714844 L 355.445312 667.265625 C 350.335938 662.15625 342.953125 660.527344 336.175781 663.019531 C 329.402344 665.511719 324.828125 671.53125 324.238281 678.726562 L 315.140625 790.1875 C 314.699219 795.554688 316.632812 800.824219 320.441406 804.632812 C 323.898438 808.085938 328.546875 810 333.382812 810 C 333.882812 810 334.386719 809.976562 334.886719 809.9375 L 334.882812 809.9375 L 446.347656 800.839844 C 453.546875 800.25 459.566406 795.675781 462.054688 788.902344 C 464.546875 782.125 462.917969 774.742188 457.808594 769.628906 L 442.367188 754.1875 L 556.515625 640.035156 C 561.617188 634.9375 561.617188 626.667969 556.515625 621.566406 Z M 414.664062 744.953125 C 412.214844 747.402344 410.839844 750.722656 410.839844 754.1875 C 410.839844 757.652344 412.214844 760.972656 414.664062 763.421875 L 427.421875 776.179688 L 341.921875 783.15625 L 348.902344 697.65625 L 361.65625 710.410156 C 364.105469 712.863281 367.425781 714.238281 370.890625 714.238281 C 374.355469 714.238281 377.675781 712.863281 380.125 710.414062 L 494.277344 596.261719 L 528.816406 630.800781 Z M 414.664062 744.953125 "/></g></svg>