<svg xmlns="http://www.w3.org/2000/svg" xmlns:xlink="http://www.w3.org/1999/xlink" width="1920" zoomAndPan="magnify" viewBox="0 0 1440 809.999993" height="1080" preserveAspectRatio="xMidYMid meet" version="1.2"><defs><clipPath id="69938579d1"><path d="M 374.230469 0 L 1065 0 L 1065 810 L 374.230469 810 Z M 374.230469 0 "/></clipPath></defs><g id="1406eafe0d"><g clip-rule="nonzero" clip-path="url(#69938579d1)"><path style=" stroke:none;fill-rule:nonzero;fill:#ffffff;fill-opacity:1;" d="M 403.863281 196.390625 C 406.917969 191.09375 413.691406 189.277344 418.984375 192.335938 L 480.125 227.613281 C 485.421875 230.667969 487.238281 237.4375 484.183594 242.734375 C 482.132812 246.285156 478.410156 248.273438 474.582031 248.273438 C 472.703125 248.273438 470.800781 247.796875 469.058594 246.792969 L 407.917969 211.515625 C 402.621094 208.457031 400.804688 201.6875 403.863281 196.390625 Z M 874.453125 127.917969 C 876.195312 128.921875 878.097656 129.398438 879.976562 129.398438 C 883.804688 129.398438 887.527344 127.410156 889.578125 123.859375 L 924.855469 62.714844 C 927.910156 57.417969 926.09375 50.648438 920.796875 47.59375 C 915.503906 44.539062 908.730469 46.355469 905.675781 51.648438 L 870.398438 112.792969 C 867.339844 118.089844 869.15625 124.859375 874.453125 127.914062 Z M 729.734375 92.910156 C 735.847656 92.910156 740.804688 87.953125 740.804688 81.839844 L 740.804688 11.242188 C 740.804688 5.125 735.847656 0.167969 729.734375 0.167969 C 723.617188 0.167969 718.660156 5.125 718.660156 11.242188 L 718.660156 81.839844 C 718.660156 87.953125 723.617188 92.910156 729.734375 92.910156 Z M 571.777344 130.902344 C 573.828125 134.453125 577.550781 136.4375 581.375 136.4375 C 583.253906 136.4375 585.160156 135.957031 586.902344 134.953125 C 592.195312 131.890625 594.011719 125.121094 590.949219 119.828125 L 555.628906 58.683594 C 552.570312 53.390625 545.796875 51.574219 540.503906 54.636719 C 535.210938 57.695312 533.394531 64.46875 536.457031 69.761719 Z M 1062.554688 184.242188 C 1059.496094 178.945312 1052.722656 177.128906 1047.429688 180.1875 L 986.332031 215.464844 C 981.035156 218.523438 979.222656 225.296875 982.277344 230.589844 C 984.328125 234.144531 988.050781 236.128906 991.875 236.128906 C 993.753906 236.128906 995.660156 235.648438 997.402344 234.644531 L 1058.5 199.367188 C 1063.796875 196.308594 1065.609375 189.539062 1062.554688 184.242188 Z M 801.394531 333.175781 C 795.777344 330.757812 789.265625 333.347656 786.847656 338.964844 C 767.527344 383.824219 778.101562 411.832031 790.378906 427.425781 C 792.5625 430.199219 795.808594 431.648438 799.085938 431.648438 C 801.484375 431.648438 803.894531 430.875 805.925781 429.277344 C 810.730469 425.496094 811.558594 418.535156 807.777344 413.730469 C 795.332031 397.917969 795.132812 375.710938 807.183594 347.722656 C 809.601562 342.105469 807.011719 335.59375 801.394531 333.175781 Z M 664.839844 429.277344 C 666.867188 430.875 669.28125 431.648438 671.679688 431.648438 C 674.957031 431.648438 678.203125 430.199219 680.386719 427.425781 C 692.660156 411.832031 703.238281 383.824219 683.917969 338.964844 C 681.496094 333.347656 674.984375 330.753906 669.367188 333.175781 C 663.753906 335.59375 661.160156 342.105469 663.578125 347.722656 C 675.632812 375.710938 675.433594 397.917969 662.988281 413.730469 C 659.203125 418.535156 660.03125 425.496094 664.839844 429.277344 Z M 609.644531 538.261719 L 534.101562 613.757812 C 531.941406 615.917969 529.109375 617 526.277344 617 C 523.445312 617 520.609375 615.917969 518.445312 613.757812 L 442.960938 538.273438 C 432.535156 527.847656 426.800781 513.953125 426.808594 499.148438 C 426.820312 484.367188 432.558594 470.503906 442.972656 460.121094 C 453.347656 449.71875 467.226562 443.976562 482.03125 443.976562 C 496.839844 443.976562 510.71875 449.71875 521.113281 460.140625 L 526.273438 465.300781 L 531.445312 460.128906 C 541.859375 449.714844 555.742188 443.976562 570.539062 443.976562 C 585.332031 443.976562 599.214844 449.714844 609.632812 460.132812 C 631.148438 481.644531 631.152344 516.695312 609.640625 538.261719 Z M 593.976562 475.789062 C 587.742188 469.554688 579.417969 466.121094 570.539062 466.121094 C 561.660156 466.121094 553.335938 469.554688 547.105469 475.785156 L 534.105469 488.785156 C 529.78125 493.109375 522.769531 493.109375 518.449219 488.785156 L 505.449219 475.789062 C 499.226562 469.550781 490.917969 466.121094 482.035156 466.121094 C 473.15625 466.121094 464.84375 469.550781 458.632812 475.777344 C 452.390625 482.003906 448.960938 490.300781 448.957031 499.160156 C 448.949219 508.046875 452.382812 516.375 458.621094 522.613281 L 526.28125 590.273438 L 593.980469 522.613281 C 606.867188 509.691406 606.871094 488.679688 593.980469 475.785156 Z M 1020.417969 481.015625 C 1032.449219 495.714844 1043.816406 509.597656 1041.207031 525.8125 C 1039.503906 536.394531 1032.050781 545.746094 1018.421875 554.402344 C 1009.730469 559.949219 1004.933594 564.769531 1004.183594 568.71875 C 1003.664062 571.445312 1005.023438 575.066406 1008.226562 579.484375 C 1011.496094 584.035156 1012.421875 589.6875 1010.796875 595.03125 C 1009.117188 600.4375 1005.1875 604.574219 999.988281 606.460938 C 994.964844 608.34375 989.941406 610.226562 984.90625 612.113281 L 1000.074219 621.414062 C 1004.769531 624.347656 1007.761719 629.074219 1008.375 634.4375 C 1009.046875 639.925781 1007.152344 645.28125 1003.167969 649.148438 C 994.101562 658.109375 993.664062 670.492188 993.195312 683.605469 C 992.703125 697.390625 992.144531 713.019531 979.421875 723.054688 C 966.03125 733.617188 943.492188 734.71875 904.054688 726.738281 C 877.457031 721.351562 856.121094 724.152344 840.644531 735.078125 C 823.796875 746.96875 812.984375 768.90625 808.511719 800.28125 C 807.730469 805.746094 803.054688 809.792969 797.554688 809.792969 C 797.496094 809.792969 797.441406 809.792969 797.386719 809.792969 L 507.6875 805.488281 C 503.6875 805.429688 500.03125 803.21875 498.121094 799.703125 C 496.210938 796.1875 496.347656 791.914062 498.476562 788.527344 C 524.367188 747.3125 541.441406 707.921875 549.371094 671.195312 C 541.835938 672.347656 534.125 672.945312 526.273438 672.945312 C 442.410156 672.945312 374.183594 604.695312 374.183594 520.808594 C 374.183594 456.273438 414.59375 401.003906 471.433594 378.953125 C 465.148438 299.519531 501.980469 226.890625 573.480469 178.613281 C 614.582031 150.855469 665.164062 133.230469 715.902344 128.980469 C 769.558594 124.488281 820.753906 134.613281 863.941406 158.265625 C 904.851562 180.667969 936.785156 213.96875 958.851562 257.234375 C 983.054688 304.683594 994.511719 362.910156 992.914062 430.292969 C 995.414062 450.476562 1008.6875 466.691406 1020.417969 481.019531 Z M 656.265625 520.804688 C 656.265625 449.152344 597.953125 390.859375 526.273438 390.859375 C 454.597656 390.859375 396.328125 449.152344 396.328125 520.804688 C 396.328125 592.460938 454.621094 650.796875 526.273438 650.796875 C 597.925781 650.796875 656.265625 592.484375 656.265625 520.804688 Z M 609.273438 354.828125 C 608.613281 354.945312 607.953125 355.003906 607.304688 355.003906 C 602.046875 355.003906 597.382812 351.242188 596.421875 345.886719 C 595.664062 341.671875 594.5 335.359375 581.046875 337.078125 C 565.742188 342.269531 554.90625 355.363281 552.507812 370.984375 C 623.9375 383.449219 678.40625 445.882812 678.40625 520.804688 C 678.40625 528.777344 677.769531 536.597656 676.582031 544.242188 C 679.4375 544.898438 682.382812 545.234375 685.398438 545.234375 C 706.75 545.234375 724.203125 527.859375 724.308594 506.5 L 724.308594 256.371094 C 724.234375 230.273438 705.121094 219.789062 688.777344 218.742188 C 672.765625 217.707031 654.554688 225.296875 648.484375 243.910156 C 659.898438 251 663.472656 260.125 664.300781 267.09375 C 665.023438 273.164062 660.683594 278.671875 654.613281 279.394531 C 654.167969 279.445312 653.726562 279.472656 653.289062 279.472656 C 647.757812 279.472656 642.980469 275.335938 642.308594 269.707031 C 641.898438 266.261719 638.726562 263.242188 632.9375 260.714844 C 631.074219 260.449219 629.1875 260.285156 627.171875 260.285156 C 603.640625 260.285156 584.5 279.488281 584.5 303.09375 C 584.5 307.011719 585.050781 310.933594 586.121094 314.6875 C 603.375 315.078125 615.136719 324.851562 618.210938 341.972656 C 619.292969 347.992188 615.292969 353.746094 609.273438 354.828125 Z M 1003.28125 495.042969 C 990.15625 479.003906 973.820312 459.046875 970.820312 432.019531 C 970.765625 431.523438 970.746094 431.019531 970.757812 430.519531 C 974.632812 276.835938 909.023438 208.199219 853.304688 177.683594 C 774.40625 134.476562 666.933594 142.222656 585.871094 196.960938 C 522.710938 239.609375 489.441406 302.980469 493.1875 372.351562 C 503.84375 369.980469 514.914062 368.71875 526.273438 368.71875 C 527.671875 368.71875 529.0625 368.738281 530.453125 368.777344 C 533.261719 347.851562 546.003906 329.761719 564.628906 320.054688 C 563.132812 314.539062 562.355469 308.816406 562.355469 303.09375 C 562.355469 267.320312 591.371094 238.207031 627.054688 238.144531 C 635.945312 208.769531 664.226562 194.980469 690.191406 196.644531 C 706.90625 197.714844 724.421875 205.5625 735.382812 220.503906 C 746.339844 205.558594 763.855469 197.714844 780.566406 196.644531 C 806.535156 194.976562 834.8125 208.765625 843.699219 238.144531 C 879.386719 238.207031 908.402344 267.320312 908.402344 303.09375 C 908.402344 308.816406 907.628906 314.539062 906.128906 320.054688 C 927.3125 331.097656 940.898438 352.980469 940.898438 377.550781 C 940.898438 399.117188 930.007812 419.226562 912.476562 431.195312 C 914.132812 436.988281 914.992188 443.007812 914.992188 449 C 914.992188 484.789062 885.875 513.90625 850.085938 513.90625 C 848.714844 513.90625 847.347656 513.863281 845.992188 513.78125 C 842.265625 543.945312 816.441406 567.382812 785.359375 567.382812 C 764.738281 567.382812 746.445312 557.042969 735.378906 541.285156 C 724.3125 557.042969 706.019531 567.382812 685.398438 567.382812 C 680.679688 567.382812 676.0625 566.851562 671.578125 565.816406 C 656.9375 612.980469 619.945312 650.394531 573.023438 665.585938 C 566.5 702.824219 551.15625 742.429688 527.289062 783.632812 L 788.195312 787.507812 C 794.453125 754.867188 807.777344 731.171875 827.875 716.984375 C 848.527344 702.410156 875.636719 698.386719 908.449219 705.03125 C 946.636719 712.761719 960.664062 709.640625 965.707031 705.664062 C 970.15625 702.160156 970.636719 694.699219 971.0625 682.816406 C 971.558594 668.902344 972.164062 651.886719 983.902344 637.472656 L 965.546875 626.214844 C 959.730469 622.726562 956.496094 616.296875 957.175781 609.457031 C 957.796875 602.644531 962.171875 596.945312 968.613281 594.5625 C 974.796875 592.253906 980.96875 589.941406 987.136719 587.628906 C 982.601562 579.769531 981.011719 572.03125 982.425781 564.585938 C 985.039062 550.835938 997.433594 541.53125 1006.527344 535.726562 C 1014.296875 530.792969 1018.722656 526.152344 1019.34375 522.296875 C 1020.367188 515.917969 1012.066406 505.777344 1003.28125 495.042969 Z M 806.460938 267.105469 C 807.28125 260.125 810.851562 250.996094 822.277344 243.902344 C 816.566406 226.394531 800.101562 218.648438 784.84375 218.648438 C 783.886719 218.648438 782.933594 218.679688 781.984375 218.742188 C 765.640625 219.789062 746.527344 230.273438 746.453125 256.371094 L 746.453125 506.554688 C 746.558594 527.859375 764.011719 545.234375 785.363281 545.234375 C 806.535156 545.234375 823.871094 528.179688 824.296875 507.097656 C 811.074219 497.671875 807.730469 482.078125 815.5 464.140625 C 817.929688 458.527344 824.453125 455.953125 830.058594 458.382812 C 835.671875 460.8125 838.25 467.332031 835.820312 472.941406 C 830.53125 485.152344 835.320312 488.410156 839.152344 490.308594 C 842.632812 491.261719 846.304688 491.757812 850.089844 491.757812 C 873.667969 491.757812 892.851562 472.578125 892.851562 448.996094 C 892.851562 443.167969 891.601562 437.300781 889.257812 431.945312 C 881.089844 421.628906 875.855469 425.226562 872.367188 427.652344 C 867.34375 431.140625 860.445312 429.898438 856.957031 424.878906 C 853.464844 419.859375 854.707031 412.960938 859.726562 409.46875 C 873.722656 399.738281 888.640625 400.90625 901 412.171875 C 911.972656 404.214844 918.757812 391.339844 918.757812 377.546875 C 918.757812 359.113281 907.128906 342.996094 889.734375 337.082031 C 876.265625 335.328125 875.101562 341.664062 874.34375 345.886719 C 873.382812 351.242188 868.714844 355 863.457031 355 C 862.808594 355 862.148438 354.945312 861.488281 354.824219 C 855.46875 353.742188 851.46875 347.988281 852.550781 341.96875 C 855.625 324.839844 867.394531 315.070312 884.640625 314.6875 C 885.707031 310.933594 886.261719 307.011719 886.261719 303.09375 C 886.261719 279.488281 867.117188 260.285156 843.589844 260.285156 C 841.578125 260.285156 839.691406 260.445312 837.832031 260.710938 C 832.035156 263.238281 828.855469 266.25 828.453125 269.691406 C 827.789062 275.324219 823.003906 279.46875 817.46875 279.46875 C 817.039062 279.46875 816.601562 279.445312 816.160156 279.394531 C 810.089844 278.679688 805.746094 273.175781 806.460938 267.105469 Z M 806.460938 267.105469 "/></g></g></svg>