<svg xmlns="http://www.w3.org/2000/svg" xmlns:xlink="http://www.w3.org/1999/xlink" width="1920" zoomAndPan="magnify" viewBox="0 0 1440 809.999993" height="1080" preserveAspectRatio="xMidYMid meet" version="1.2"><defs><clipPath id="21b77f7dd6"><path d="M 211 0 L 1229 0 L 1229 795.632812 L 211 795.632812 Z M 211 0 "/></clipPath></defs><g id="d10feae8fd"><g clip-rule="nonzero" clip-path="url(#21b77f7dd6)"><path style=" stroke:none;fill-rule:nonzero;fill:#ffffff;fill-opacity:1;" d="M 1181.347656 98.21875 C 1179.703125 97.945312 1178.050781 97.742188 1176.390625 97.613281 C 1174.730469 97.488281 1173.066406 97.429688 1171.398438 97.449219 C 1169.734375 97.46875 1168.074219 97.5625 1166.414062 97.726562 C 1164.757812 97.894531 1163.109375 98.132812 1161.472656 98.445312 C 1159.835938 98.753906 1158.21875 99.136719 1156.613281 99.59375 C 1155.011719 100.046875 1153.433594 100.574219 1151.875 101.167969 C 1150.320312 101.761719 1148.792969 102.425781 1147.296875 103.15625 C 1145.800781 103.886719 1144.335938 104.679688 1142.910156 105.539062 C 1141.480469 106.398438 1140.097656 107.320312 1138.75 108.300781 C 1137.40625 109.285156 1136.105469 110.324219 1134.851562 111.421875 C 1133.597656 112.515625 1132.394531 113.667969 1131.242188 114.871094 C 1130.089844 116.074219 1128.996094 117.328125 1127.953125 118.628906 C 1126.914062 119.929688 1125.929688 121.273438 1125.007812 122.660156 C 1124.085938 124.046875 1123.226562 125.472656 1122.433594 126.9375 C 1121.636719 128.398438 1120.90625 129.894531 1120.242188 131.421875 C 1119.582031 132.953125 1118.984375 134.507812 1118.460938 136.085938 L 1089.550781 228.894531 C 1076.414062 219.953125 1062.160156 213.472656 1046.78125 209.453125 C 1048.222656 208.34375 1049.632812 207.199219 1051.011719 206.015625 C 1052.390625 204.832031 1053.738281 203.613281 1055.054688 202.359375 C 1056.371094 201.109375 1057.65625 199.820312 1058.90625 198.503906 C 1060.15625 197.183594 1061.371094 195.832031 1062.550781 194.449219 C 1063.730469 193.066406 1064.875 191.65625 1065.984375 190.214844 C 1067.089844 188.773438 1068.160156 187.304688 1069.191406 185.808594 C 1070.222656 184.3125 1071.214844 182.789062 1072.164062 181.242188 C 1073.117188 179.691406 1074.03125 178.121094 1074.898438 176.523438 C 1075.769531 174.929688 1076.601562 173.3125 1077.386719 171.675781 C 1078.175781 170.035156 1078.917969 168.378906 1079.621094 166.703125 C 1080.320312 165.023438 1080.980469 163.332031 1081.59375 161.621094 C 1082.207031 159.910156 1082.773438 158.183594 1083.300781 156.445312 C 1083.824219 154.703125 1084.304688 152.949219 1084.738281 151.1875 C 1085.171875 149.421875 1085.558594 147.644531 1085.898438 145.859375 C 1086.242188 144.074219 1086.535156 142.28125 1086.785156 140.480469 C 1087.035156 138.679688 1087.234375 136.875 1087.390625 135.066406 C 1087.546875 133.253906 1087.65625 131.441406 1087.71875 129.625 C 1087.777344 127.808594 1087.792969 125.992188 1087.761719 124.171875 C 1087.726562 122.355469 1087.648438 120.539062 1087.519531 118.726562 C 1087.394531 116.914062 1087.222656 115.105469 1087 113.300781 C 1086.78125 111.496094 1086.515625 109.699219 1086.199219 107.910156 C 1085.886719 106.117188 1085.527344 104.339844 1085.121094 102.566406 C 1084.71875 100.792969 1084.265625 99.035156 1083.769531 97.285156 C 1083.273438 95.539062 1082.730469 93.804688 1082.144531 92.082031 C 1081.558594 90.363281 1080.929688 88.660156 1080.253906 86.96875 C 1079.578125 85.28125 1078.859375 83.613281 1078.101562 81.964844 C 1077.339844 80.3125 1076.535156 78.683594 1075.691406 77.074219 C 1074.84375 75.464844 1073.957031 73.878906 1073.03125 72.316406 C 1072.101562 70.753906 1071.136719 69.214844 1070.128906 67.703125 C 1069.121094 66.1875 1068.074219 64.703125 1066.992188 63.242188 C 1065.90625 61.785156 1064.785156 60.355469 1063.628906 58.953125 C 1062.46875 57.554688 1061.277344 56.183594 1060.046875 54.84375 C 1058.820312 53.503906 1057.554688 52.199219 1056.257812 50.925781 C 1054.960938 49.652344 1053.632812 48.414062 1052.273438 47.207031 C 1050.914062 46.003906 1049.519531 44.835938 1048.101562 43.703125 C 1046.679688 42.570312 1045.230469 41.472656 1043.75 40.414062 C 1042.273438 39.359375 1040.769531 38.339844 1039.238281 37.359375 C 1037.707031 36.378906 1036.152344 35.441406 1034.570312 34.539062 C 1032.992188 33.640625 1031.390625 32.78125 1029.765625 31.964844 C 1028.144531 31.148438 1026.5 30.375 1024.835938 29.644531 C 1023.171875 28.914062 1021.488281 28.226562 1019.789062 27.582031 C 1018.089844 26.9375 1016.375 26.335938 1014.644531 25.78125 C 1012.914062 25.226562 1011.171875 24.714844 1009.414062 24.25 C 1007.65625 23.785156 1005.886719 23.367188 1004.109375 22.992188 C 1002.332031 22.617188 1000.542969 22.292969 998.746094 22.011719 C 996.953125 21.730469 995.148438 21.496094 993.34375 21.308594 C 991.535156 21.121094 989.722656 20.976562 987.90625 20.882812 C 986.09375 20.789062 984.277344 20.742188 982.457031 20.742188 C 980.640625 20.742188 978.824219 20.789062 977.011719 20.882812 C 975.195312 20.976562 973.382812 21.121094 971.574219 21.308594 C 969.765625 21.496094 967.964844 21.730469 966.171875 22.011719 C 964.375 22.292969 962.585938 22.617188 960.808594 22.992188 C 959.03125 23.367188 957.261719 23.785156 955.503906 24.25 C 953.746094 24.714844 952.003906 25.226562 950.273438 25.78125 C 948.542969 26.335938 946.828125 26.9375 945.128906 27.582031 C 943.429688 28.226562 941.746094 28.914062 940.082031 29.644531 C 938.417969 30.375 936.773438 31.148438 935.152344 31.964844 C 933.527344 32.78125 931.925781 33.640625 930.347656 34.539062 C 928.765625 35.441406 927.210938 36.378906 925.679688 37.359375 C 924.148438 38.339844 922.644531 39.359375 921.167969 40.414062 C 919.6875 41.472656 918.238281 42.570312 916.816406 43.703125 C 915.398438 44.835938 914.003906 46.003906 912.644531 47.207031 C 911.285156 48.414062 909.953125 49.652344 908.660156 50.925781 C 907.363281 52.199219 906.097656 53.503906 904.871094 54.84375 C 903.640625 56.183594 902.445312 57.554688 901.289062 58.953125 C 900.128906 60.355469 899.007812 61.785156 897.925781 63.242188 C 896.839844 64.703125 895.796875 66.1875 894.789062 67.703125 C 893.78125 69.214844 892.8125 70.753906 891.886719 72.316406 C 890.960938 73.878906 890.074219 75.464844 889.226562 77.074219 C 888.382812 78.683594 887.578125 80.3125 886.816406 81.964844 C 886.054688 83.613281 885.339844 85.28125 884.664062 86.972656 C 883.988281 88.660156 883.359375 90.363281 882.773438 92.082031 C 882.1875 93.804688 881.644531 95.539062 881.148438 97.285156 C 880.652344 99.035156 880.199219 100.792969 879.792969 102.566406 C 879.390625 104.339844 879.03125 106.121094 878.714844 107.910156 C 878.402344 109.699219 878.136719 111.496094 877.917969 113.300781 C 877.695312 115.105469 877.523438 116.914062 877.394531 118.726562 C 877.269531 120.539062 877.191406 122.355469 877.15625 124.171875 C 877.125 125.992188 877.140625 127.808594 877.199219 129.625 C 877.261719 131.441406 877.371094 133.253906 877.527344 135.066406 C 877.679688 136.875 877.882812 138.679688 878.132812 140.480469 C 878.382812 142.28125 878.675781 144.074219 879.019531 145.859375 C 879.359375 147.644531 879.746094 149.421875 880.179688 151.1875 C 880.613281 152.949219 881.09375 154.703125 881.617188 156.445312 C 882.140625 158.183594 882.710938 159.910156 883.324219 161.621094 C 883.9375 163.332031 884.597656 165.023438 885.296875 166.703125 C 886 168.378906 886.742188 170.035156 887.53125 171.675781 C 888.316406 173.3125 889.148438 174.929688 890.015625 176.523438 C 890.886719 178.121094 891.800781 179.691406 892.753906 181.242188 C 893.703125 182.789062 894.695312 184.3125 895.726562 185.808594 C 896.757812 187.304688 897.828125 188.773438 898.933594 190.214844 C 900.042969 191.65625 901.183594 193.066406 902.367188 194.449219 C 903.546875 195.832031 904.761719 197.183594 906.011719 198.503906 C 907.261719 199.820312 908.546875 201.109375 909.863281 202.359375 C 911.179688 203.613281 912.527344 204.832031 913.90625 206.015625 C 915.285156 207.199219 916.695312 208.34375 918.136719 209.453125 C 909.460938 211.65625 901.097656 214.710938 893.039062 218.609375 C 884.984375 222.507812 877.402344 227.175781 870.292969 232.613281 C 865.515625 229.410156 860.519531 226.582031 855.3125 224.132812 C 850.105469 221.6875 844.742188 219.644531 839.222656 218.011719 C 833.703125 216.378906 828.09375 215.167969 822.394531 214.386719 C 816.691406 213.605469 810.964844 213.257812 805.210938 213.34375 L 794.222656 213.34375 C 796 212.042969 797.746094 210.695312 799.453125 209.300781 C 801.164062 207.910156 802.835938 206.472656 804.46875 204.992188 C 806.105469 203.511719 807.699219 201.992188 809.253906 200.425781 C 810.808594 198.863281 812.320312 197.261719 813.792969 195.617188 C 815.261719 193.976562 816.6875 192.296875 818.070312 190.578125 C 819.453125 188.863281 820.792969 187.109375 822.082031 185.324219 C 823.375 183.535156 824.617188 181.714844 825.8125 179.863281 C 827.007812 178.011719 828.15625 176.128906 829.253906 174.214844 C 830.351562 172.304688 831.398438 170.363281 832.394531 168.398438 C 833.390625 166.429688 834.335938 164.4375 835.226562 162.421875 C 836.117188 160.40625 836.957031 158.367188 837.742188 156.308594 C 838.527344 154.25 839.257812 152.167969 839.933594 150.070312 C 840.613281 147.972656 841.234375 145.855469 841.800781 143.726562 C 842.363281 141.59375 842.875 139.449219 843.328125 137.292969 C 843.78125 135.136719 844.179688 132.96875 844.519531 130.789062 C 844.859375 128.609375 845.144531 126.425781 845.367188 124.230469 C 845.59375 122.039062 845.761719 119.839844 845.875 117.640625 C 845.984375 115.4375 846.039062 113.234375 846.035156 111.027344 C 846.03125 108.824219 845.96875 106.621094 845.851562 104.417969 C 845.730469 102.21875 845.554688 100.019531 845.320312 97.828125 C 845.085938 95.636719 844.792969 93.453125 844.445312 91.273438 C 844.097656 89.097656 843.691406 86.929688 843.230469 84.777344 C 842.765625 82.621094 842.25 80.476562 841.675781 78.347656 C 841.101562 76.21875 840.472656 74.109375 839.785156 72.011719 C 839.101562 69.914062 838.363281 67.839844 837.570312 65.78125 C 836.777344 63.726562 835.929688 61.691406 835.03125 59.675781 C 834.132812 57.664062 833.179688 55.675781 832.175781 53.710938 C 831.171875 51.75 830.117188 49.8125 829.015625 47.90625 C 827.910156 45.996094 826.753906 44.121094 825.550781 42.273438 C 824.347656 40.425781 823.097656 38.609375 821.800781 36.828125 C 820.503906 35.046875 819.160156 33.296875 817.769531 31.585938 C 816.378906 29.875 814.945312 28.199219 813.46875 26.5625 C 811.992188 24.925781 810.472656 23.328125 808.914062 21.769531 C 807.355469 20.214844 805.753906 18.699219 804.113281 17.222656 C 802.472656 15.75 800.796875 14.320312 799.082031 12.933594 C 797.367188 11.546875 795.617188 10.207031 793.832031 8.914062 C 792.046875 7.617188 790.230469 6.371094 788.382812 5.171875 C 786.53125 3.972656 784.652344 2.820312 782.742188 1.722656 C 780.832031 0.621094 778.894531 -0.429688 776.929688 -1.429688 C 774.964844 -2.429688 772.972656 -3.378906 770.957031 -4.273438 C 768.945312 -5.167969 766.90625 -6.011719 764.847656 -6.800781 C 762.789062 -7.589844 760.710938 -8.324219 758.613281 -9.007812 C 756.519531 -9.6875 754.40625 -10.3125 752.273438 -10.882812 C 750.144531 -11.453125 748 -11.964844 745.84375 -12.421875 C 743.6875 -12.882812 741.519531 -13.28125 739.34375 -13.628906 C 737.164062 -13.972656 734.980469 -14.257812 732.789062 -14.488281 C 730.59375 -14.71875 728.398438 -14.890625 726.195312 -15.007812 C 723.992188 -15.121094 721.789062 -15.179688 719.585938 -15.179688 C 717.382812 -15.179688 715.175781 -15.121094 712.976562 -15.007812 C 710.773438 -14.890625 708.578125 -14.71875 706.382812 -14.488281 C 704.191406 -14.257812 702.007812 -13.972656 699.828125 -13.628906 C 697.652344 -13.28125 695.484375 -12.882812 693.328125 -12.421875 C 691.167969 -11.964844 689.027344 -11.453125 686.898438 -10.882812 C 684.765625 -10.3125 682.652344 -9.6875 680.554688 -9.007812 C 678.460938 -8.324219 676.382812 -7.589844 674.324219 -6.800781 C 672.265625 -6.011719 670.226562 -5.167969 668.210938 -4.273438 C 666.199219 -3.378906 664.207031 -2.429688 662.242188 -1.429688 C 660.277344 -0.429688 658.339844 0.621094 656.429688 1.722656 C 654.519531 2.820312 652.640625 3.972656 650.789062 5.171875 C 648.941406 6.371094 647.121094 7.617188 645.339844 8.914062 C 643.554688 10.207031 641.804688 11.546875 640.089844 12.933594 C 638.375 14.320312 636.699219 15.75 635.058594 17.222656 C 633.417969 18.699219 631.816406 20.214844 630.257812 21.769531 C 628.695312 23.328125 627.179688 24.925781 625.699219 26.5625 C 624.222656 28.199219 622.789062 29.875 621.402344 31.585938 C 620.011719 33.296875 618.667969 35.046875 617.371094 36.828125 C 616.074219 38.609375 614.820312 40.425781 613.617188 42.273438 C 612.414062 44.121094 611.261719 45.996094 610.15625 47.90625 C 609.050781 49.8125 608 51.75 606.996094 53.710938 C 605.992188 55.675781 605.039062 57.664062 604.140625 59.675781 C 603.242188 61.691406 602.394531 63.726562 601.601562 65.78125 C 600.808594 67.839844 600.070312 69.914062 599.382812 72.011719 C 598.699219 74.109375 598.070312 76.21875 597.496094 78.347656 C 596.921875 80.476562 596.40625 82.621094 595.941406 84.777344 C 595.480469 86.929688 595.074219 89.097656 594.726562 91.273438 C 594.378906 93.453125 594.085938 95.636719 593.851562 97.828125 C 593.617188 100.019531 593.441406 102.21875 593.320312 104.417969 C 593.203125 106.621094 593.140625 108.824219 593.136719 111.027344 C 593.132812 113.234375 593.1875 115.4375 593.296875 117.640625 C 593.40625 119.839844 593.578125 122.039062 593.800781 124.230469 C 594.027344 126.425781 594.3125 128.609375 594.652344 130.789062 C 594.992188 132.96875 595.390625 135.136719 595.84375 137.292969 C 596.296875 139.449219 596.804688 141.59375 597.371094 143.726562 C 597.9375 145.855469 598.558594 147.972656 599.234375 150.070312 C 599.914062 152.167969 600.644531 154.246094 601.429688 156.308594 C 602.214844 158.367188 603.054688 160.40625 603.945312 162.421875 C 604.835938 164.4375 605.78125 166.429688 606.777344 168.398438 C 607.773438 170.363281 608.820312 172.304688 609.917969 174.214844 C 611.015625 176.128906 612.160156 178.011719 613.359375 179.863281 C 614.554688 181.714844 615.796875 183.535156 617.089844 185.320312 C 618.378906 187.109375 619.714844 188.863281 621.097656 190.578125 C 622.484375 192.296875 623.910156 193.976562 625.378906 195.617188 C 626.851562 197.261719 628.363281 198.863281 629.917969 200.425781 C 631.472656 201.992188 633.066406 203.511719 634.699219 204.992188 C 636.335938 206.472656 638.007812 207.910156 639.714844 209.300781 C 641.425781 210.695312 643.171875 212.042969 644.949219 213.34375 L 633.960938 213.34375 C 628.289062 213.332031 622.648438 213.742188 617.035156 214.570312 C 611.421875 215.394531 605.902344 216.632812 600.476562 218.28125 C 595.046875 219.925781 589.769531 221.964844 584.644531 224.398438 C 579.519531 226.828125 574.601562 229.625 569.890625 232.785156 C 562.882812 227.496094 555.425781 222.945312 547.515625 219.132812 C 539.605469 215.320312 531.398438 212.320312 522.894531 210.132812 C 524.339844 209.019531 525.753906 207.871094 527.136719 206.6875 C 528.519531 205.503906 529.875 204.285156 531.195312 203.03125 C 532.515625 201.777344 533.804688 200.492188 535.058594 199.171875 C 536.3125 197.851562 537.53125 196.496094 538.714844 195.113281 C 539.898438 193.730469 541.046875 192.316406 542.160156 190.875 C 543.269531 189.429688 544.34375 187.960938 545.378906 186.460938 C 546.414062 184.960938 547.410156 183.4375 548.363281 181.886719 C 549.320312 180.335938 550.234375 178.761719 551.109375 177.164062 C 551.984375 175.566406 552.816406 173.945312 553.605469 172.304688 C 554.398438 170.664062 555.144531 169.003906 555.847656 167.324219 C 556.554688 165.644531 557.214844 163.949219 557.832031 162.234375 C 558.449219 160.519531 559.019531 158.792969 559.546875 157.050781 C 560.074219 155.304688 560.554688 153.550781 560.992188 151.78125 C 561.425781 150.011719 561.816406 148.234375 562.160156 146.445312 C 562.503906 144.65625 562.800781 142.859375 563.054688 141.054688 C 563.304688 139.253906 563.507812 137.441406 563.664062 135.628906 C 563.824219 133.8125 563.933594 131.996094 563.996094 130.175781 C 564.058594 128.355469 564.074219 126.535156 564.042969 124.714844 C 564.011719 122.894531 563.933594 121.074219 563.808594 119.257812 C 563.683594 117.441406 563.511719 115.628906 563.292969 113.820312 C 563.070312 112.011719 562.804688 110.210938 562.492188 108.414062 C 562.179688 106.621094 561.820312 104.835938 561.417969 103.058594 C 561.011719 101.285156 560.5625 99.519531 560.0625 97.769531 C 559.566406 96.015625 559.027344 94.277344 558.441406 92.554688 C 557.851562 90.828125 557.222656 89.121094 556.546875 87.429688 C 555.871094 85.738281 555.152344 84.0625 554.390625 82.410156 C 553.628906 80.753906 552.828125 79.121094 551.980469 77.507812 C 551.132812 75.894531 550.246094 74.304688 549.316406 72.738281 C 548.390625 71.171875 547.421875 69.628906 546.410156 68.113281 C 545.402344 66.597656 544.355469 65.109375 543.269531 63.644531 C 542.183594 62.183594 541.0625 60.75 539.902344 59.34375 C 538.742188 57.941406 537.546875 56.566406 536.316406 55.226562 C 535.085938 53.882812 533.820312 52.574219 532.519531 51.296875 C 531.222656 50.019531 529.890625 48.777344 528.527344 47.570312 C 527.164062 46.363281 525.769531 45.191406 524.347656 44.054688 C 522.921875 42.917969 521.46875 41.820312 519.988281 40.757812 C 518.507812 39.699219 517 38.679688 515.464844 37.695312 C 513.933594 36.714844 512.375 35.769531 510.792969 34.871094 C 509.210938 33.96875 507.605469 33.109375 505.976562 32.289062 C 504.351562 31.46875 502.703125 30.695312 501.035156 29.960938 C 499.367188 29.226562 497.683594 28.539062 495.980469 27.894531 C 494.277344 27.246094 492.558594 26.644531 490.824219 26.089844 C 489.089844 25.53125 487.34375 25.019531 485.582031 24.554688 C 483.820312 24.085938 482.050781 23.667969 480.269531 23.292969 C 478.484375 22.917969 476.695312 22.589844 474.894531 22.308594 C 473.09375 22.027344 471.289062 21.789062 469.476562 21.601562 C 467.667969 21.414062 465.851562 21.273438 464.03125 21.179688 C 462.214844 21.085938 460.394531 21.035156 458.570312 21.035156 C 456.75 21.035156 454.929688 21.085938 453.113281 21.179688 C 451.292969 21.273438 449.476562 21.414062 447.664062 21.601562 C 445.855469 21.789062 444.046875 22.027344 442.25 22.308594 C 440.449219 22.589844 438.660156 22.917969 436.875 23.292969 C 435.09375 23.667969 433.320312 24.085938 431.5625 24.554688 C 429.800781 25.019531 428.054688 25.53125 426.320312 26.089844 C 424.585938 26.644531 422.867188 27.246094 421.164062 27.894531 C 419.460938 28.539062 417.773438 29.226562 416.109375 29.960938 C 414.441406 30.695312 412.792969 31.46875 411.167969 32.289062 C 409.539062 33.109375 407.933594 33.96875 406.351562 34.871094 C 404.769531 35.769531 403.210938 36.714844 401.675781 37.695312 C 400.144531 38.679688 398.636719 39.699219 397.15625 40.757812 C 395.675781 41.820312 394.222656 42.917969 392.796875 44.054688 C 391.375 45.191406 389.980469 46.363281 388.617188 47.570312 C 387.253906 48.777344 385.921875 50.019531 384.625 51.296875 C 383.324219 52.574219 382.058594 53.882812 380.828125 55.226562 C 379.597656 56.566406 378.402344 57.941406 377.242188 59.34375 C 376.082031 60.75 374.960938 62.183594 373.875 63.644531 C 372.789062 65.109375 371.742188 66.597656 370.734375 68.113281 C 369.722656 69.628906 368.753906 71.171875 367.828125 72.738281 C 366.898438 74.304688 366.011719 75.894531 365.164062 77.507812 C 364.316406 79.121094 363.515625 80.753906 362.753906 82.410156 C 361.992188 84.0625 361.273438 85.738281 360.597656 87.429688 C 359.921875 89.121094 359.292969 90.828125 358.703125 92.554688 C 358.117188 94.277344 357.578125 96.015625 357.078125 97.769531 C 356.582031 99.519531 356.132812 101.285156 355.726562 103.058594 C 355.324219 104.835938 354.964844 106.621094 354.652344 108.414062 C 354.339844 110.210938 354.070312 112.011719 353.851562 113.820312 C 353.632812 115.628906 353.460938 117.441406 353.335938 119.257812 C 353.210938 121.074219 353.132812 122.894531 353.101562 124.714844 C 353.070312 126.535156 353.085938 128.355469 353.148438 130.175781 C 353.210938 131.996094 353.320312 133.8125 353.476562 135.628906 C 353.636719 137.441406 353.839844 139.253906 354.089844 141.054688 C 354.339844 142.859375 354.640625 144.65625 354.984375 146.445312 C 355.328125 148.234375 355.714844 150.011719 356.152344 151.78125 C 356.589844 153.550781 357.070312 155.304688 357.597656 157.050781 C 358.125 158.792969 358.695312 160.519531 359.3125 162.234375 C 359.929688 163.949219 360.589844 165.644531 361.292969 167.324219 C 362 169.003906 362.746094 170.664062 363.539062 172.304688 C 364.328125 173.945312 365.160156 175.566406 366.035156 177.164062 C 366.910156 178.761719 367.824219 180.335938 368.78125 181.886719 C 369.734375 183.4375 370.730469 184.960938 371.765625 186.460938 C 372.800781 187.960938 373.875 189.429688 374.984375 190.875 C 376.097656 192.316406 377.242188 193.730469 378.429688 195.113281 C 379.613281 196.496094 380.832031 197.851562 382.085938 199.171875 C 383.339844 200.492188 384.628906 201.777344 385.949219 203.03125 C 387.269531 204.285156 388.621094 205.503906 390.007812 206.6875 C 391.390625 207.871094 392.804688 209.019531 394.25 210.132812 C 378.871094 214.148438 364.617188 220.628906 351.480469 229.570312 L 322.910156 136.085938 C 322.476562 134.296875 321.957031 132.53125 321.351562 130.792969 C 320.746094 129.050781 320.058594 127.347656 319.285156 125.675781 C 318.511719 124.003906 317.65625 122.371094 316.722656 120.785156 C 315.789062 119.195312 314.78125 117.660156 313.695312 116.167969 C 312.613281 114.679688 311.457031 113.25 310.230469 111.875 C 309.007812 110.496094 307.714844 109.1875 306.363281 107.9375 C 305.007812 106.6875 303.597656 105.507812 302.125 104.398438 C 300.65625 103.289062 299.136719 102.253906 297.5625 101.292969 C 295.992188 100.332031 294.378906 99.449219 292.71875 98.648438 C 291.0625 97.847656 289.367188 97.128906 287.636719 96.492188 C 285.910156 95.855469 284.152344 95.308594 282.371094 94.84375 C 280.589844 94.382812 278.785156 94.007812 276.96875 93.71875 C 275.148438 93.433594 273.316406 93.238281 271.480469 93.132812 C 269.640625 93.023438 267.800781 93.007812 265.960938 93.082031 C 264.121094 93.15625 262.289062 93.320312 260.460938 93.574219 C 258.636719 93.828125 256.832031 94.171875 255.039062 94.605469 C 253.25 95.035156 251.484375 95.554688 249.746094 96.160156 C 248.003906 96.765625 246.296875 97.453125 244.625 98.226562 C 242.953125 99 241.324219 99.851562 239.734375 100.785156 C 238.148438 101.71875 236.609375 102.726562 235.121094 103.808594 C 233.628906 104.894531 232.199219 106.046875 230.820312 107.273438 C 229.445312 108.496094 228.132812 109.789062 226.882812 111.140625 C 225.636719 112.496094 224.457031 113.90625 223.34375 115.375 C 222.234375 116.84375 221.199219 118.367188 220.238281 119.9375 C 219.277344 121.507812 218.394531 123.125 217.589844 124.78125 C 216.789062 126.4375 216.070312 128.132812 215.433594 129.859375 C 214.796875 131.589844 214.246094 133.34375 213.785156 135.128906 C 213.320312 136.910156 212.945312 138.710938 212.65625 140.53125 C 212.371094 142.351562 212.171875 144.179688 212.066406 146.019531 C 211.960938 147.859375 211.941406 149.699219 212.015625 151.539062 C 212.089844 153.378906 212.253906 155.210938 212.507812 157.035156 C 212.761719 158.859375 213.101562 160.667969 213.535156 162.457031 L 249.035156 372.757812 C 250.410156 381.257812 252.460938 389.589844 255.179688 397.757812 C 257.902344 405.925781 261.257812 413.824219 265.25 421.453125 C 269.246094 429.078125 273.824219 436.339844 278.984375 443.226562 C 284.148438 450.117188 289.832031 456.550781 296.03125 462.523438 L 433.300781 595.566406 C 438.441406 600.574219 443.214844 605.910156 447.617188 611.574219 C 452.023438 617.238281 456.019531 623.179688 459.605469 629.394531 C 463.195312 635.613281 466.335938 642.042969 469.035156 648.695312 C 471.738281 655.34375 473.96875 662.144531 475.730469 669.101562 C 473.691406 670.148438 471.730469 671.328125 469.851562 672.644531 C 467.96875 673.957031 466.1875 675.390625 464.5 676.945312 C 462.816406 678.5 461.242188 680.160156 459.78125 681.929688 C 458.320312 683.699219 456.988281 685.554688 455.777344 687.507812 C 454.570312 689.457031 453.5 691.476562 452.566406 693.570312 C 451.632812 695.667969 450.84375 697.816406 450.203125 700.015625 C 449.558594 702.21875 449.066406 704.453125 448.730469 706.722656 C 448.390625 708.988281 448.207031 711.269531 448.175781 713.5625 L 448.175781 744.667969 C 448.175781 746.328125 448.257812 747.984375 448.417969 749.640625 C 448.582031 751.292969 448.824219 752.933594 449.148438 754.5625 C 449.472656 756.191406 449.878906 757.800781 450.359375 759.390625 C 450.839844 760.980469 451.398438 762.542969 452.035156 764.074219 C 452.671875 765.609375 453.382812 767.109375 454.164062 768.574219 C 454.945312 770.039062 455.800781 771.460938 456.722656 772.84375 C 457.644531 774.226562 458.632812 775.558594 459.6875 776.839844 C 460.742188 778.125 461.855469 779.355469 463.03125 780.527344 C 464.203125 781.703125 465.433594 782.816406 466.71875 783.871094 C 468 784.925781 469.332031 785.914062 470.714844 786.835938 C 472.097656 787.757812 473.519531 788.613281 474.984375 789.394531 C 476.449219 790.175781 477.949219 790.886719 479.484375 791.523438 C 481.015625 792.15625 482.578125 792.71875 484.167969 793.199219 C 485.757812 793.679688 487.367188 794.085938 488.996094 794.410156 C 490.625 794.734375 492.265625 794.976562 493.917969 795.140625 C 495.574219 795.300781 497.230469 795.382812 498.890625 795.382812 L 681.464844 795.382812 C 683.414062 795.296875 685.347656 795.097656 687.273438 794.785156 C 689.199219 794.472656 691.097656 794.046875 692.972656 793.511719 C 694.847656 792.972656 696.683594 792.328125 698.480469 791.574219 C 700.28125 790.824219 702.03125 789.964844 703.726562 789.007812 C 705.425781 788.050781 707.0625 786.992188 708.632812 785.84375 C 710.207031 784.691406 711.710938 783.453125 713.136719 782.125 C 714.566406 780.796875 715.910156 779.390625 717.171875 777.902344 C 718.433594 776.417969 719.605469 774.863281 720.683594 773.238281 C 721.824219 774.832031 723.054688 776.355469 724.378906 777.804688 C 725.699219 779.253906 727.101562 780.621094 728.585938 781.90625 C 730.066406 783.191406 731.621094 784.382812 733.246094 785.484375 C 734.871094 786.582031 736.554688 787.582031 738.296875 788.484375 C 740.039062 789.382812 741.828125 790.179688 743.664062 790.867188 C 745.5 791.554688 747.371094 792.132812 749.277344 792.601562 C 751.183594 793.066406 753.109375 793.421875 755.054688 793.660156 C 757.003906 793.898438 758.957031 794.023438 760.917969 794.03125 L 943.492188 794.03125 C 945.152344 794.03125 946.8125 793.949219 948.464844 793.785156 C 950.117188 793.625 951.757812 793.378906 953.386719 793.054688 C 955.015625 792.730469 956.625 792.328125 958.214844 791.847656 C 959.804688 791.363281 961.367188 790.804688 962.902344 790.171875 C 964.433594 789.535156 965.933594 788.824219 967.398438 788.042969 C 968.863281 787.257812 970.289062 786.40625 971.667969 785.484375 C 973.050781 784.5625 974.382812 783.574219 975.667969 782.519531 C 976.949219 781.464844 978.179688 780.351562 979.355469 779.175781 C 980.527344 778 981.640625 776.773438 982.695312 775.488281 C 983.75 774.203125 984.738281 772.871094 985.660156 771.492188 C 986.582031 770.109375 987.4375 768.6875 988.21875 767.222656 C 989.003906 765.757812 989.710938 764.257812 990.347656 762.722656 C 990.984375 761.1875 991.542969 759.625 992.023438 758.039062 C 992.507812 756.449219 992.910156 754.839844 993.234375 753.210938 C 993.558594 751.582031 993.800781 749.941406 993.964844 748.285156 C 994.125 746.632812 994.207031 744.976562 994.207031 743.316406 L 994.207031 713.5625 C 994.179688 711.269531 993.992188 708.988281 993.652344 706.722656 C 993.316406 704.453125 992.824219 702.21875 992.183594 700.015625 C 991.539062 697.816406 990.75 695.667969 989.816406 693.570312 C 988.882812 691.476562 987.8125 689.457031 986.605469 687.507812 C 985.394531 685.558594 984.0625 683.699219 982.601562 681.929688 C 981.140625 680.160156 979.566406 678.5 977.882812 676.945312 C 976.195312 675.390625 974.414062 673.957031 972.535156 672.644531 C 970.652344 671.328125 968.691406 670.148438 966.652344 669.101562 C 968.34375 662.171875 970.5 655.390625 973.121094 648.757812 C 975.738281 642.121094 978.800781 635.699219 982.300781 629.484375 C 985.800781 623.269531 989.707031 617.320312 994.023438 611.640625 C 998.339844 605.960938 1003.019531 600.605469 1008.070312 595.566406 L 1145.167969 462.015625 C 1151.351562 456.070312 1157.019531 449.671875 1162.175781 442.824219 C 1167.335938 435.972656 1171.917969 428.757812 1175.925781 421.175781 C 1179.929688 413.59375 1183.308594 405.742188 1186.0625 397.621094 C 1188.816406 389.5 1190.90625 381.210938 1192.335938 372.757812 L 1227.835938 162.457031 C 1228.117188 160.644531 1228.3125 158.824219 1228.417969 156.992188 C 1228.523438 155.160156 1228.539062 153.328125 1228.464844 151.496094 C 1228.390625 149.664062 1228.226562 147.839844 1227.972656 146.023438 C 1227.722656 144.203125 1227.382812 142.40625 1226.953125 140.621094 C 1226.523438 138.835938 1226.011719 137.078125 1225.410156 135.34375 C 1224.808594 133.613281 1224.125 131.910156 1223.359375 130.246094 C 1222.59375 128.578125 1221.746094 126.953125 1220.820312 125.371094 C 1219.898438 123.785156 1218.894531 122.25 1217.820312 120.765625 C 1216.746094 119.277344 1215.601562 117.847656 1214.386719 116.476562 C 1213.167969 115.101562 1211.890625 113.789062 1210.546875 112.539062 C 1209.203125 111.289062 1207.800781 110.109375 1206.34375 109 C 1204.882812 107.886719 1203.375 106.847656 1201.8125 105.882812 C 1200.253906 104.917969 1198.648438 104.03125 1197.003906 103.226562 C 1195.355469 102.417969 1193.671875 101.691406 1191.957031 101.046875 C 1190.238281 100.40625 1188.492188 99.847656 1186.71875 99.375 C 1184.949219 98.902344 1183.15625 98.515625 1181.347656 98.21875 Z M 627.367188 111.574219 C 627.359375 110.058594 627.390625 108.542969 627.457031 107.03125 C 627.523438 105.515625 627.625 104.003906 627.765625 102.496094 C 627.90625 100.988281 628.082031 99.480469 628.296875 97.980469 C 628.511719 96.480469 628.761719 94.988281 629.050781 93.5 C 629.335938 92.011719 629.660156 90.53125 630.019531 89.058594 C 630.378906 87.585938 630.777344 86.125 631.207031 84.671875 C 631.640625 83.21875 632.105469 81.777344 632.609375 80.347656 C 633.113281 78.917969 633.648438 77.5 634.222656 76.097656 C 634.792969 74.695312 635.398438 73.308594 636.039062 71.933594 C 636.679688 70.558594 637.355469 69.203125 638.0625 67.863281 C 638.769531 66.519531 639.507812 65.199219 640.277344 63.894531 C 641.050781 62.589844 641.855469 61.304688 642.6875 60.039062 C 643.523438 58.777344 644.390625 57.53125 645.285156 56.308594 C 646.179688 55.085938 647.105469 53.886719 648.0625 52.710938 C 649.015625 51.535156 650 50.378906 651.007812 49.253906 C 652.019531 48.125 653.058594 47.019531 654.125 45.941406 C 655.191406 44.863281 656.28125 43.8125 657.398438 42.789062 C 658.515625 41.765625 659.65625 40.769531 660.824219 39.800781 C 661.988281 38.832031 663.175781 37.894531 664.390625 36.984375 C 665.601562 36.074219 666.835938 35.195312 668.089844 34.34375 C 669.34375 33.496094 670.621094 32.675781 671.917969 31.890625 C 673.210938 31.105469 674.527344 30.347656 675.859375 29.628906 C 677.191406 28.90625 678.539062 28.214844 679.90625 27.558594 C 681.273438 26.902344 682.652344 26.28125 684.050781 25.695312 C 685.445312 25.105469 686.855469 24.550781 688.28125 24.03125 C 689.703125 23.511719 691.140625 23.03125 692.589844 22.582031 C 694.035156 22.132812 695.492188 21.71875 696.960938 21.34375 C 698.429688 20.964844 699.90625 20.625 701.390625 20.320312 C 702.875 20.015625 704.367188 19.746094 705.863281 19.515625 C 707.359375 19.285156 708.863281 19.089844 710.371094 18.933594 C 711.878906 18.777344 713.386719 18.65625 714.902344 18.570312 C 716.414062 18.488281 717.929688 18.441406 719.445312 18.433594 C 720.960938 18.421875 722.476562 18.449219 723.988281 18.515625 C 725.503906 18.582031 727.015625 18.683594 728.523438 18.824219 C 730.03125 18.960938 731.539062 19.136719 733.039062 19.351562 C 734.539062 19.566406 736.03125 19.816406 737.519531 20.101562 C 739.007812 20.386719 740.488281 20.710938 741.960938 21.070312 C 743.433594 21.429688 744.898438 21.824219 746.351562 22.253906 C 747.804688 22.6875 749.246094 23.152344 750.675781 23.652344 C 752.105469 24.15625 753.519531 24.691406 754.925781 25.261719 C 756.328125 25.835938 757.71875 26.441406 759.089844 27.078125 C 760.464844 27.71875 761.824219 28.390625 763.164062 29.097656 C 764.503906 29.804688 765.828125 30.542969 767.132812 31.3125 C 768.4375 32.082031 769.722656 32.886719 770.988281 33.71875 C 772.253906 34.554688 773.496094 35.417969 774.722656 36.3125 C 775.945312 37.207031 777.144531 38.132812 778.320312 39.085938 C 779.5 40.042969 780.652344 41.023438 781.78125 42.035156 C 782.910156 43.046875 784.015625 44.082031 785.09375 45.148438 C 786.171875 46.210938 787.222656 47.300781 788.25 48.417969 C 789.273438 49.535156 790.269531 50.675781 791.238281 51.839844 C 792.207031 53.007812 793.148438 54.195312 794.058594 55.40625 C 794.96875 56.617188 795.851562 57.851562 796.699219 59.105469 C 797.550781 60.359375 798.367188 61.636719 799.15625 62.929688 C 799.945312 64.226562 800.699219 65.539062 801.421875 66.871094 C 802.144531 68.203125 802.835938 69.550781 803.492188 70.917969 C 804.148438 72.28125 804.773438 73.664062 805.359375 75.058594 C 805.949219 76.457031 806.503906 77.867188 807.023438 79.289062 C 807.542969 80.714844 808.027344 82.148438 808.480469 83.597656 C 808.929688 85.042969 809.34375 86.5 809.71875 87.96875 C 810.097656 89.4375 810.441406 90.910156 810.746094 92.394531 C 811.050781 93.878906 811.320312 95.371094 811.550781 96.871094 C 811.785156 98.367188 811.980469 99.871094 812.136719 101.375 C 812.296875 102.882812 812.417969 104.394531 812.503906 105.90625 C 812.585938 107.421875 812.632812 108.933594 812.644531 110.449219 C 812.65625 111.964844 812.628906 113.480469 812.5625 114.996094 C 812.5 116.507812 812.398438 118.019531 812.257812 119.53125 C 812.121094 121.039062 811.945312 122.542969 811.734375 124.042969 C 811.519531 125.542969 811.273438 127.039062 810.988281 128.527344 C 810.699219 130.015625 810.378906 131.496094 810.019531 132.96875 C 809.664062 134.441406 809.269531 135.90625 808.839844 137.359375 C 808.410156 138.8125 807.941406 140.253906 807.441406 141.683594 C 806.941406 143.113281 806.40625 144.53125 805.835938 145.933594 C 805.265625 147.339844 804.660156 148.726562 804.023438 150.101562 C 803.382812 151.476562 802.710938 152.835938 802.007812 154.175781 C 801.300781 155.519531 800.5625 156.839844 799.792969 158.144531 C 799.023438 159.453125 798.222656 160.738281 797.386719 162.003906 C 796.554688 163.269531 795.691406 164.515625 794.796875 165.738281 C 793.902344 166.960938 792.980469 168.160156 792.027344 169.339844 C 791.074219 170.519531 790.089844 171.671875 789.082031 172.800781 C 788.070312 173.933594 787.035156 175.035156 785.96875 176.117188 C 784.90625 177.195312 783.816406 178.246094 782.699219 179.273438 C 781.585938 180.296875 780.445312 181.296875 779.28125 182.265625 C 778.113281 183.234375 776.925781 184.175781 775.714844 185.085938 C 774.503906 186 773.273438 186.878906 772.019531 187.730469 C 770.765625 188.582031 769.492188 189.402344 768.195312 190.191406 C 766.902344 190.976562 765.589844 191.734375 764.257812 192.457031 C 762.925781 193.183594 761.578125 193.871094 760.210938 194.53125 C 758.847656 195.1875 757.464844 195.8125 756.070312 196.402344 C 754.675781 196.992188 753.265625 197.546875 751.839844 198.066406 C 750.417969 198.589844 748.984375 199.074219 747.535156 199.523438 C 746.089844 199.976562 744.632812 200.390625 743.164062 200.769531 C 741.695312 201.148438 740.222656 201.488281 738.738281 201.796875 C 737.253906 202.101562 735.761719 202.371094 734.265625 202.605469 C 732.765625 202.839844 731.265625 203.035156 729.757812 203.195312 C 728.25 203.355469 726.742188 203.476562 725.226562 203.5625 C 723.714844 203.648438 722.199219 203.695312 720.683594 203.707031 C 719.167969 203.714844 717.652344 203.6875 716.136719 203.621094 C 714.621094 203.554688 713.105469 203.453125 711.59375 203.3125 C 710.085938 203.171875 708.578125 202.992188 707.078125 202.78125 C 705.574219 202.566406 704.078125 202.316406 702.589844 202.027344 C 701.097656 201.738281 699.617188 201.414062 698.144531 201.054688 C 696.671875 200.695312 695.207031 200.300781 693.75 199.867188 C 692.296875 199.4375 690.855469 198.96875 689.421875 198.464844 C 687.992188 197.964844 686.574219 197.425781 685.167969 196.851562 C 683.761719 196.28125 682.371094 195.675781 680.996094 195.035156 C 679.621094 194.394531 678.261719 193.71875 676.921875 193.011719 C 675.578125 192.304688 674.253906 191.566406 672.949219 190.792969 C 671.640625 190.023438 670.355469 189.21875 669.089844 188.382812 C 667.824219 187.546875 666.578125 186.683594 665.351562 185.785156 C 664.128906 184.890625 662.925781 183.964844 661.75 183.007812 C 660.570312 182.054688 659.414062 181.070312 658.285156 180.058594 C 657.152344 179.046875 656.050781 178.007812 654.96875 176.941406 C 653.890625 175.875 652.835938 174.785156 651.8125 173.667969 C 650.785156 172.550781 649.785156 171.40625 648.816406 170.242188 C 647.847656 169.074219 646.90625 167.886719 645.992188 166.671875 C 645.082031 165.460938 644.199219 164.226562 643.347656 162.96875 C 642.5 161.714844 641.679688 160.4375 640.890625 159.140625 C 640.101562 157.847656 639.34375 156.53125 638.621094 155.199219 C 637.894531 153.863281 637.207031 152.515625 636.546875 151.148438 C 635.890625 149.78125 635.265625 148.398438 634.675781 147 C 634.085938 145.601562 633.53125 144.191406 633.007812 142.765625 C 632.488281 141.34375 632.003906 139.90625 631.550781 138.457031 C 631.101562 137.007812 630.6875 135.546875 630.308594 134.078125 C 629.929688 132.609375 629.585938 131.132812 629.28125 129.648438 C 628.972656 128.160156 628.703125 126.667969 628.46875 125.167969 C 628.238281 123.671875 628.039062 122.167969 627.878906 120.65625 C 627.722656 119.148438 627.597656 117.636719 627.511719 116.121094 C 627.429688 114.609375 627.378906 113.09375 627.367188 111.574219 Z M 1031.738281 337.59375 C 1030.621094 336.574219 1029.464844 335.59375 1028.273438 334.664062 C 1027.078125 333.730469 1025.851562 332.84375 1024.59375 332.003906 C 1023.332031 331.164062 1022.042969 330.375 1020.71875 329.636719 C 1019.398438 328.894531 1018.050781 328.207031 1016.675781 327.570312 C 1015.304688 326.933594 1013.90625 326.351562 1012.488281 325.824219 C 1011.070312 325.292969 1009.632812 324.820312 1008.179688 324.402344 C 1006.722656 323.984375 1005.253906 323.621094 1003.769531 323.3125 C 1002.289062 323.007812 1000.796875 322.757812 999.292969 322.566406 C 997.792969 322.375 996.285156 322.242188 994.773438 322.167969 C 993.257812 322.089844 991.746094 322.074219 990.234375 322.113281 C 988.71875 322.152344 987.210938 322.253906 985.703125 322.410156 C 984.195312 322.566406 982.699219 322.777344 981.210938 323.050781 C 979.71875 323.320312 978.242188 323.648438 976.777344 324.035156 C 975.3125 324.417969 973.867188 324.859375 972.433594 325.355469 C 971.003906 325.851562 969.59375 326.398438 968.207031 327.003906 C 966.816406 327.609375 965.453125 328.265625 964.117188 328.972656 C 949.1875 339.390625 934.929688 350.660156 921.347656 362.785156 L 921.347656 328.972656 C 921.347656 322.492188 920.808594 316.054688 919.71875 309.664062 C 918.632812 303.273438 917.019531 297.019531 914.875 290.90625 C 912.730469 284.789062 910.085938 278.894531 906.945312 273.222656 C 903.804688 267.554688 900.207031 262.1875 896.160156 257.128906 C 900.308594 254.375 904.636719 251.941406 909.140625 249.828125 C 913.648438 247.710938 918.285156 245.9375 923.054688 244.507812 C 927.820312 243.074219 932.667969 242 937.59375 241.28125 C 942.523438 240.5625 947.472656 240.210938 952.453125 240.222656 L 1013.480469 240.222656 C 1019.476562 240.222656 1025.425781 240.75 1031.328125 241.804688 C 1037.230469 242.859375 1042.996094 244.421875 1048.621094 246.5 C 1054.246094 248.578125 1059.644531 251.132812 1064.816406 254.167969 C 1069.988281 257.203125 1074.851562 260.667969 1079.410156 264.566406 L 1075.859375 276.0625 C 1073.800781 282.136719 1071.308594 288.027344 1068.378906 293.734375 C 1065.449219 299.4375 1062.113281 304.898438 1058.378906 310.109375 C 1054.640625 315.324219 1050.539062 320.234375 1046.074219 324.839844 C 1041.609375 329.445312 1036.832031 333.695312 1031.738281 337.59375 Z M 982.375 55.113281 C 983.546875 55.109375 984.722656 55.136719 985.894531 55.191406 C 987.066406 55.246094 988.234375 55.328125 989.402344 55.441406 C 990.574219 55.554688 991.738281 55.695312 992.898438 55.863281 C 994.058594 56.03125 995.214844 56.230469 996.367188 56.457031 C 997.519531 56.683594 998.664062 56.9375 999.804688 57.222656 C 1000.941406 57.503906 1002.074219 57.8125 1003.199219 58.152344 C 1004.320312 58.492188 1005.4375 58.855469 1006.542969 59.25 C 1007.648438 59.640625 1008.746094 60.0625 1009.828125 60.507812 C 1010.914062 60.957031 1011.988281 61.429688 1013.050781 61.929688 C 1014.113281 62.425781 1015.160156 62.953125 1016.199219 63.503906 C 1017.234375 64.054688 1018.257812 64.632812 1019.265625 65.234375 C 1020.273438 65.832031 1021.265625 66.460938 1022.242188 67.109375 C 1023.21875 67.757812 1024.179688 68.433594 1025.125 69.128906 C 1026.066406 69.828125 1026.996094 70.546875 1027.902344 71.289062 C 1028.8125 72.03125 1029.703125 72.796875 1030.574219 73.582031 C 1031.445312 74.371094 1032.296875 75.175781 1033.128906 76.007812 C 1033.957031 76.835938 1034.769531 77.683594 1035.558594 78.550781 C 1036.347656 79.417969 1037.117188 80.304688 1037.863281 81.210938 C 1038.609375 82.117188 1039.332031 83.039062 1040.035156 83.980469 C 1040.734375 84.921875 1041.414062 85.882812 1042.066406 86.855469 C 1042.71875 87.832031 1043.351562 88.820312 1043.953125 89.828125 C 1044.558594 90.832031 1045.140625 91.851562 1045.695312 92.886719 C 1046.25 93.917969 1046.78125 94.964844 1047.285156 96.027344 C 1047.789062 97.085938 1048.265625 98.160156 1048.714844 99.242188 C 1049.167969 100.324219 1049.589844 101.417969 1049.988281 102.523438 C 1050.386719 103.628906 1050.753906 104.742188 1051.097656 105.863281 C 1051.441406 106.988281 1051.753906 108.117188 1052.042969 109.253906 C 1052.328125 110.394531 1052.589844 111.539062 1052.820312 112.6875 C 1053.050781 113.839844 1053.253906 114.996094 1053.425781 116.15625 C 1053.601562 117.316406 1053.746094 118.480469 1053.863281 119.648438 C 1053.980469 120.816406 1054.070312 121.984375 1054.128906 123.15625 C 1054.1875 124.328125 1054.21875 125.503906 1054.21875 126.675781 C 1054.222656 127.851562 1054.195312 129.023438 1054.140625 130.195312 C 1054.082031 131.367188 1054 132.539062 1053.886719 133.707031 C 1053.773438 134.875 1053.632812 136.039062 1053.460938 137.199219 C 1053.289062 138.359375 1053.089844 139.515625 1052.863281 140.667969 C 1052.636719 141.820312 1052.382812 142.964844 1052.097656 144.105469 C 1051.8125 145.242188 1051.503906 146.375 1051.164062 147.496094 C 1050.824219 148.621094 1050.457031 149.734375 1050.066406 150.839844 C 1049.671875 151.949219 1049.25 153.042969 1048.800781 154.128906 C 1048.355469 155.210938 1047.878906 156.285156 1047.378906 157.347656 C 1046.878906 158.410156 1046.355469 159.457031 1045.800781 160.492188 C 1045.25 161.527344 1044.671875 162.550781 1044.070312 163.558594 C 1043.46875 164.566406 1042.84375 165.558594 1042.191406 166.535156 C 1041.539062 167.511719 1040.867188 168.472656 1040.167969 169.414062 C 1039.472656 170.359375 1038.75 171.285156 1038.007812 172.191406 C 1037.261719 173.101562 1036.496094 173.988281 1035.710938 174.859375 C 1034.921875 175.730469 1034.117188 176.582031 1033.285156 177.414062 C 1032.457031 178.242188 1031.609375 179.054688 1030.742188 179.84375 C 1029.871094 180.632812 1028.984375 181.398438 1028.078125 182.144531 C 1027.171875 182.890625 1026.246094 183.613281 1025.304688 184.3125 C 1024.363281 185.011719 1023.40625 185.691406 1022.429688 186.34375 C 1021.453125 186.996094 1020.464844 187.625 1019.457031 188.230469 C 1018.453125 188.835938 1017.433594 189.414062 1016.398438 189.96875 C 1015.363281 190.523438 1014.316406 191.050781 1013.253906 191.554688 C 1012.195312 192.054688 1011.121094 192.53125 1010.039062 192.984375 C 1008.953125 193.433594 1007.859375 193.855469 1006.753906 194.253906 C 1005.652344 194.648438 1004.539062 195.019531 1003.414062 195.359375 C 1002.292969 195.703125 1001.160156 196.015625 1000.023438 196.300781 C 998.882812 196.589844 997.738281 196.847656 996.589844 197.078125 C 995.4375 197.304688 994.28125 197.507812 993.121094 197.679688 C 991.960938 197.855469 990.796875 198 989.628906 198.117188 C 988.460938 198.230469 987.289062 198.320312 986.117188 198.378906 C 984.945312 198.4375 983.773438 198.464844 982.601562 198.464844 C 981.425781 198.46875 980.253906 198.4375 979.082031 198.382812 C 977.910156 198.324219 976.738281 198.242188 975.570312 198.125 C 974.402344 198.011719 973.238281 197.871094 972.078125 197.699219 C 970.914062 197.527344 969.757812 197.328125 968.609375 197.097656 C 967.457031 196.871094 966.3125 196.613281 965.171875 196.328125 C 964.035156 196.046875 962.902344 195.734375 961.78125 195.394531 C 960.65625 195.054688 959.542969 194.6875 958.4375 194.292969 C 957.332031 193.894531 956.238281 193.476562 955.152344 193.027344 C 954.066406 192.578125 952.996094 192.101562 951.933594 191.601562 C 950.871094 191.101562 949.824219 190.574219 948.789062 190.019531 C 947.753906 189.46875 946.734375 188.890625 945.726562 188.289062 C 944.71875 187.683594 943.726562 187.058594 942.75 186.40625 C 941.773438 185.753906 940.816406 185.078125 939.871094 184.378906 C 938.929688 183.683594 938.003906 182.960938 937.097656 182.214844 C 936.1875 181.472656 935.300781 180.707031 934.429688 179.917969 C 933.558594 179.128906 932.710938 178.320312 931.878906 177.492188 C 931.050781 176.664062 930.242188 175.8125 929.453125 174.945312 C 928.664062 174.074219 927.898438 173.1875 927.152344 172.28125 C 926.40625 171.371094 925.683594 170.449219 924.984375 169.503906 C 924.285156 168.5625 923.609375 167.605469 922.957031 166.628906 C 922.304688 165.652344 921.675781 164.660156 921.074219 163.65625 C 920.46875 162.648438 919.890625 161.628906 919.339844 160.59375 C 918.785156 159.558594 918.257812 158.511719 917.753906 157.449219 C 917.253906 156.386719 916.777344 155.316406 916.328125 154.230469 C 915.878906 153.148438 915.457031 152.054688 915.058594 150.949219 C 914.664062 149.84375 914.296875 148.730469 913.957031 147.605469 C 913.613281 146.484375 913.300781 145.351562 913.015625 144.214844 C 912.730469 143.074219 912.472656 141.929688 912.246094 140.78125 C 912.015625 139.628906 911.816406 138.472656 911.644531 137.3125 C 911.46875 136.152344 911.328125 134.984375 911.210938 133.816406 C 911.097656 132.648438 911.011719 131.480469 910.953125 130.308594 C 910.894531 129.136719 910.867188 127.960938 910.867188 126.789062 C 910.867188 125.617188 910.894531 124.449219 910.953125 123.277344 C 911.007812 122.109375 911.09375 120.941406 911.210938 119.773438 C 911.324219 118.609375 911.46875 117.445312 911.640625 116.289062 C 911.8125 115.128906 912.011719 113.976562 912.238281 112.828125 C 912.46875 111.675781 912.722656 110.535156 913.007812 109.398438 C 913.292969 108.261719 913.605469 107.132812 913.941406 106.011719 C 914.28125 104.890625 914.648438 103.78125 915.042969 102.675781 C 915.4375 101.574219 915.859375 100.480469 916.304688 99.398438 C 916.753906 98.316406 917.226562 97.246094 917.726562 96.1875 C 918.226562 95.128906 918.753906 94.082031 919.304688 93.046875 C 919.855469 92.015625 920.433594 90.996094 921.035156 89.988281 C 921.636719 88.984375 922.261719 87.996094 922.910156 87.019531 C 923.558594 86.046875 924.234375 85.085938 924.929688 84.144531 C 925.628906 83.203125 926.347656 82.28125 927.089844 81.375 C 927.832031 80.46875 928.59375 79.582031 929.378906 78.710938 C 930.167969 77.84375 930.972656 76.996094 931.800781 76.164062 C 932.628906 75.335938 933.472656 74.527344 934.339844 73.738281 C 935.207031 72.953125 936.09375 72.1875 937 71.441406 C 937.902344 70.699219 938.824219 69.976562 939.765625 69.277344 C 940.703125 68.578125 941.660156 67.902344 942.632812 67.25 C 943.605469 66.597656 944.59375 65.96875 945.597656 65.367188 C 946.601562 64.761719 947.621094 64.183594 948.652344 63.628906 C 949.683594 63.078125 950.730469 62.546875 951.789062 62.046875 C 952.84375 61.542969 953.914062 61.066406 954.996094 60.617188 C 956.078125 60.167969 957.167969 59.742188 958.273438 59.347656 C 959.375 58.949219 960.484375 58.582031 961.605469 58.238281 C 962.726562 57.894531 963.851562 57.582031 964.988281 57.292969 C 966.125 57.007812 967.265625 56.75 968.414062 56.519531 C 969.5625 56.289062 970.714844 56.085938 971.875 55.910156 C 973.03125 55.734375 974.195312 55.589844 975.359375 55.472656 C 976.527344 55.355469 977.691406 55.265625 978.863281 55.207031 C 980.03125 55.144531 981.203125 55.113281 982.375 55.113281 Z M 805.210938 247.152344 C 806.542969 247.15625 807.875 247.191406 809.207031 247.257812 C 810.535156 247.328125 811.863281 247.425781 813.191406 247.5625 C 814.515625 247.695312 815.839844 247.859375 817.15625 248.058594 C 818.476562 248.253906 819.789062 248.484375 821.09375 248.746094 C 822.402344 249.007812 823.699219 249.300781 824.992188 249.628906 C 826.285156 249.953125 827.570312 250.3125 828.84375 250.699219 C 830.117188 251.089844 831.382812 251.507812 832.636719 251.957031 C 833.890625 252.410156 835.132812 252.890625 836.367188 253.402344 C 837.597656 253.910156 838.8125 254.453125 840.019531 255.023438 C 841.222656 255.59375 842.410156 256.195312 843.585938 256.824219 C 844.761719 257.453125 845.921875 258.109375 847.0625 258.796875 C 848.207031 259.484375 849.332031 260.195312 850.4375 260.9375 C 851.546875 261.679688 852.636719 262.445312 853.707031 263.238281 C 854.777344 264.035156 855.824219 264.855469 856.855469 265.699219 C 857.886719 266.546875 858.894531 267.417969 859.882812 268.3125 C 860.871094 269.207031 861.835938 270.125 862.777344 271.066406 C 863.71875 272.011719 864.636719 272.976562 865.535156 273.960938 C 866.429688 274.949219 867.300781 275.957031 868.144531 276.988281 C 868.992188 278.019531 869.8125 279.070312 870.605469 280.140625 C 871.398438 281.210938 872.167969 282.296875 872.90625 283.40625 C 873.648438 284.515625 874.363281 285.640625 875.046875 286.78125 C 875.734375 287.925781 876.390625 289.082031 877.019531 290.257812 C 877.648438 291.433594 878.25 292.621094 878.820312 293.828125 C 879.390625 295.03125 879.933594 296.25 880.445312 297.480469 C 880.957031 298.710938 881.4375 299.953125 881.886719 301.207031 C 882.335938 302.460938 882.757812 303.726562 883.144531 305 C 883.535156 306.277344 883.890625 307.558594 884.214844 308.851562 C 884.542969 310.144531 884.835938 311.445312 885.097656 312.75 C 885.359375 314.058594 885.589844 315.371094 885.789062 316.6875 C 885.984375 318.003906 886.152344 319.328125 886.285156 320.652344 C 886.417969 321.980469 886.519531 323.308594 886.585938 324.640625 C 886.652344 325.96875 886.6875 327.300781 886.691406 328.636719 L 886.691406 391.351562 L 839.695312 432.433594 L 825.15625 315.617188 C 825.089844 315.066406 824.996094 314.515625 824.878906 313.972656 C 824.757812 313.425781 824.609375 312.890625 824.4375 312.359375 C 824.265625 311.828125 824.066406 311.308594 823.839844 310.796875 C 823.617188 310.289062 823.367188 309.789062 823.09375 309.304688 C 822.820312 308.816406 822.523438 308.347656 822.207031 307.890625 C 821.886719 307.433594 821.542969 306.992188 821.179688 306.566406 C 820.820312 306.144531 820.4375 305.738281 820.035156 305.355469 C 819.628906 304.96875 819.210938 304.601562 818.773438 304.257812 C 818.332031 303.914062 817.878906 303.59375 817.410156 303.292969 C 816.9375 302.992188 816.453125 302.714844 815.957031 302.464844 C 815.460938 302.210938 814.953125 301.984375 814.433594 301.78125 C 813.914062 301.578125 813.382812 301.402344 812.847656 301.253906 C 812.3125 301.101562 811.769531 300.976562 811.21875 300.882812 C 810.667969 300.785156 810.117188 300.714844 809.5625 300.671875 C 809.003906 300.628906 808.449219 300.613281 807.890625 300.625 C 807.332031 300.636719 806.777344 300.675781 806.222656 300.742188 C 805.671875 300.808594 805.121094 300.902344 804.578125 301.023438 C 804.03125 301.140625 803.496094 301.289062 802.964844 301.460938 C 802.433594 301.636719 801.914062 301.835938 801.402344 302.058594 C 800.894531 302.28125 800.394531 302.53125 799.910156 302.804688 C 799.421875 303.078125 798.953125 303.375 798.496094 303.695312 C 798.039062 304.015625 797.597656 304.355469 797.175781 304.71875 C 796.75 305.082031 796.347656 305.464844 795.960938 305.867188 C 795.574219 306.269531 795.207031 306.6875 794.863281 307.128906 C 794.519531 307.566406 794.199219 308.019531 793.898438 308.492188 C 793.597656 308.960938 793.320312 309.445312 793.070312 309.941406 C 792.816406 310.4375 792.589844 310.949219 792.386719 311.46875 C 792.183594 311.988281 792.007812 312.515625 791.859375 313.050781 C 791.707031 313.589844 791.582031 314.132812 791.488281 314.679688 C 791.390625 315.230469 791.320312 315.78125 791.277344 316.339844 C 791.234375 316.894531 791.21875 317.453125 791.230469 318.007812 C 791.242188 318.566406 791.28125 319.121094 791.347656 319.675781 L 805.886719 438.011719 L 632.777344 438.011719 L 647.316406 319.675781 C 647.382812 319.121094 647.421875 318.566406 647.433594 318.007812 C 647.445312 317.453125 647.429688 316.894531 647.386719 316.339844 C 647.34375 315.78125 647.273438 315.230469 647.175781 314.679688 C 647.082031 314.132812 646.957031 313.589844 646.804688 313.050781 C 646.65625 312.515625 646.480469 311.988281 646.277344 311.46875 C 646.074219 310.949219 645.847656 310.4375 645.59375 309.941406 C 645.34375 309.445312 645.066406 308.960938 644.765625 308.492188 C 644.464844 308.019531 644.144531 307.566406 643.800781 307.128906 C 643.457031 306.6875 643.089844 306.269531 642.703125 305.867188 C 642.320312 305.464844 641.914062 305.082031 641.492188 304.71875 C 641.066406 304.355469 640.625 304.015625 640.167969 303.695312 C 639.710938 303.375 639.242188 303.078125 638.753906 302.804688 C 638.269531 302.53125 637.769531 302.28125 637.261719 302.058594 C 636.75 301.835938 636.230469 301.636719 635.699219 301.460938 C 635.167969 301.289062 634.632812 301.144531 634.085938 301.023438 C 633.542969 300.902344 632.992188 300.808594 632.441406 300.742188 C 631.886719 300.675781 631.332031 300.636719 630.773438 300.625 C 630.214844 300.613281 629.660156 300.628906 629.101562 300.671875 C 628.546875 300.714844 627.996094 300.785156 627.445312 300.882812 C 626.898438 300.976562 626.351562 301.101562 625.816406 301.253906 C 625.28125 301.402344 624.75 301.578125 624.230469 301.78125 C 623.710938 301.984375 623.203125 302.210938 622.707031 302.464844 C 622.210938 302.714844 621.726562 302.992188 621.253906 303.292969 C 620.785156 303.59375 620.332031 303.914062 619.890625 304.257812 C 619.453125 304.601562 619.035156 304.96875 618.628906 305.355469 C 618.226562 305.738281 617.84375 306.144531 617.484375 306.566406 C 617.121094 306.992188 616.777344 307.433594 616.460938 307.890625 C 616.140625 308.347656 615.84375 308.816406 615.570312 309.304688 C 615.296875 309.789062 615.046875 310.289062 614.824219 310.796875 C 614.597656 311.308594 614.402344 311.828125 614.226562 312.359375 C 614.054688 312.890625 613.90625 313.425781 613.785156 313.972656 C 613.667969 314.515625 613.574219 315.066406 613.507812 315.617188 L 599.136719 430.742188 C 582.230469 415.527344 566.339844 401.835938 552.480469 390 L 552.480469 328.636719 C 552.480469 327.300781 552.511719 325.96875 552.578125 324.636719 C 552.644531 323.304688 552.742188 321.976562 552.871094 320.648438 C 553.003906 319.320312 553.164062 318 553.363281 316.679688 C 553.558594 315.359375 553.785156 314.046875 554.046875 312.738281 C 554.304688 311.429688 554.597656 310.128906 554.921875 308.835938 C 555.246094 307.542969 555.601562 306.257812 555.988281 304.980469 C 556.375 303.707031 556.792969 302.441406 557.242188 301.183594 C 557.691406 299.929688 558.171875 298.683594 558.683594 297.453125 C 559.191406 296.222656 559.734375 295.003906 560.300781 293.796875 C 560.871094 292.589844 561.472656 291.402344 562.101562 290.226562 C 562.730469 289.046875 563.386719 287.890625 564.070312 286.746094 C 564.757812 285.601562 565.472656 284.476562 566.210938 283.367188 C 566.953125 282.257812 567.71875 281.167969 568.515625 280.097656 C 569.308594 279.023438 570.128906 277.972656 570.976562 276.945312 C 571.820312 275.914062 572.691406 274.902344 573.585938 273.914062 C 574.484375 272.925781 575.402344 271.960938 576.34375 271.019531 C 577.289062 270.074219 578.253906 269.15625 579.242188 268.261719 C 580.230469 267.367188 581.238281 266.496094 582.269531 265.648438 C 583.300781 264.800781 584.351562 263.984375 585.421875 263.1875 C 586.492188 262.394531 587.582031 261.625 588.691406 260.886719 C 589.800781 260.144531 590.925781 259.429688 592.070312 258.746094 C 593.214844 258.058594 594.375 257.402344 595.550781 256.773438 C 596.726562 256.144531 597.917969 255.546875 599.125 254.976562 C 600.328125 254.40625 601.546875 253.867188 602.78125 253.355469 C 604.011719 252.84375 605.253906 252.367188 606.511719 251.917969 C 607.765625 251.46875 609.03125 251.046875 610.308594 250.660156 C 611.585938 250.273438 612.871094 249.917969 614.164062 249.59375 C 615.457031 249.269531 616.757812 248.980469 618.066406 248.71875 C 619.375 248.457031 620.6875 248.230469 622.003906 248.035156 C 623.324219 247.839844 624.648438 247.675781 625.976562 247.546875 C 627.300781 247.414062 628.632812 247.316406 629.964844 247.25 C 631.296875 247.1875 632.628906 247.152344 633.960938 247.152344 Z M 759.902344 566.65625 L 747.734375 665.722656 C 745.023438 666.449219 742.398438 667.40625 739.851562 668.585938 C 737.308594 669.769531 734.886719 671.15625 732.582031 672.757812 C 730.277344 674.355469 728.125 676.140625 726.128906 678.109375 C 724.128906 680.078125 722.316406 682.203125 720.683594 684.484375 C 719.03125 682.1875 717.195312 680.050781 715.171875 678.074219 C 713.148438 676.09375 710.96875 674.304688 708.632812 672.707031 C 706.300781 671.105469 703.84375 669.71875 701.269531 668.546875 C 698.695312 667.375 696.039062 666.433594 693.296875 665.722656 L 681.125 566.65625 C 680.039062 557.964844 678.363281 549.390625 676.097656 540.925781 C 673.832031 532.464844 671 524.199219 667.597656 516.125 C 664.199219 508.054688 660.261719 500.25 655.789062 492.71875 C 651.316406 485.1875 646.351562 477.996094 640.894531 471.144531 L 800.476562 471.144531 C 795.015625 477.996094 790.050781 485.1875 785.578125 492.71875 C 781.105469 500.25 777.171875 508.054688 773.769531 516.125 C 770.371094 524.199219 767.535156 532.464844 765.269531 540.925781 C 763.007812 549.390625 761.328125 557.964844 760.242188 566.65625 Z M 458.996094 55.113281 C 460.167969 55.113281 461.339844 55.140625 462.511719 55.199219 C 463.683594 55.253906 464.851562 55.34375 466.019531 55.457031 C 467.1875 55.570312 468.351562 55.714844 469.511719 55.886719 C 470.671875 56.058594 471.828125 56.261719 472.976562 56.488281 C 474.128906 56.71875 475.273438 56.976562 476.410156 57.261719 C 477.546875 57.546875 478.679688 57.859375 479.800781 58.199219 C 480.925781 58.539062 482.039062 58.90625 483.140625 59.300781 C 484.246094 59.695312 485.339844 60.117188 486.425781 60.566406 C 487.507812 61.015625 488.582031 61.492188 489.640625 61.992188 C 490.699219 62.496094 491.75 63.023438 492.78125 63.574219 C 493.816406 64.128906 494.839844 64.707031 495.84375 65.308594 C 496.851562 65.914062 497.839844 66.539062 498.816406 67.191406 C 499.792969 67.84375 500.75 68.519531 501.691406 69.21875 C 502.636719 69.917969 503.558594 70.636719 504.464844 71.382812 C 505.375 72.125 506.261719 72.890625 507.128906 73.679688 C 508 74.46875 508.847656 75.277344 509.679688 76.105469 C 510.507812 76.933594 511.316406 77.785156 512.105469 78.652344 C 512.890625 79.523438 513.65625 80.410156 514.402344 81.316406 C 515.144531 82.222656 515.867188 83.148438 516.566406 84.089844 C 517.265625 85.035156 517.941406 85.992188 518.59375 86.96875 C 519.242188 87.941406 519.871094 88.933594 520.472656 89.941406 C 521.078125 90.945312 521.65625 91.964844 522.207031 93 C 522.761719 94.035156 523.289062 95.082031 523.789062 96.144531 C 524.292969 97.203125 524.765625 98.277344 525.214844 99.359375 C 525.664062 100.441406 526.085938 101.539062 526.480469 102.640625 C 526.878906 103.746094 527.246094 104.859375 527.585938 105.980469 C 527.925781 107.105469 528.238281 108.234375 528.523438 109.371094 C 528.808594 110.511719 529.066406 111.65625 529.292969 112.804688 C 529.523438 113.957031 529.722656 115.113281 529.894531 116.273438 C 530.066406 117.433594 530.210938 118.597656 530.328125 119.761719 C 530.441406 120.929688 530.527344 122.101562 530.585938 123.273438 C 530.644531 124.445312 530.671875 125.617188 530.671875 126.789062 C 530.671875 127.960938 530.644531 129.132812 530.585938 130.304688 C 530.527344 131.476562 530.441406 132.648438 530.328125 133.816406 C 530.210938 134.980469 530.066406 136.144531 529.894531 137.304688 C 529.722656 138.46875 529.523438 139.621094 529.292969 140.773438 C 529.066406 141.921875 528.808594 143.066406 528.523438 144.207031 C 528.238281 145.34375 527.925781 146.472656 527.585938 147.597656 C 527.246094 148.71875 526.878906 149.832031 526.480469 150.9375 C 526.085938 152.042969 525.664062 153.136719 525.214844 154.21875 C 524.765625 155.300781 524.292969 156.375 523.789062 157.433594 C 523.289062 158.496094 522.761719 159.542969 522.207031 160.578125 C 521.65625 161.613281 521.078125 162.632812 520.472656 163.636719 C 519.871094 164.644531 519.242188 165.636719 518.59375 166.609375 C 517.941406 167.585938 517.265625 168.546875 516.566406 169.488281 C 515.867188 170.429688 515.144531 171.355469 514.402344 172.261719 C 513.65625 173.167969 512.890625 174.054688 512.105469 174.925781 C 511.316406 175.792969 510.507812 176.644531 509.679688 177.472656 C 508.847656 178.300781 508 179.109375 507.128906 179.898438 C 506.261719 180.6875 505.375 181.453125 504.464844 182.195312 C 503.558594 182.941406 502.636719 183.664062 501.691406 184.359375 C 500.75 185.058594 499.792969 185.734375 498.816406 186.386719 C 497.839844 187.039062 496.851562 187.664062 495.84375 188.269531 C 494.839844 188.871094 493.816406 189.449219 492.78125 190.003906 C 491.75 190.554688 490.699219 191.082031 489.640625 191.585938 C 488.582031 192.085938 487.507812 192.5625 486.425781 193.011719 C 485.339844 193.460938 484.246094 193.882812 483.140625 194.277344 C 482.039062 194.671875 480.925781 195.039062 479.800781 195.378906 C 478.679688 195.71875 477.546875 196.035156 476.410156 196.320312 C 475.273438 196.601562 474.128906 196.859375 472.976562 197.089844 C 471.828125 197.316406 470.671875 197.519531 469.511719 197.691406 C 468.351562 197.863281 467.1875 198.007812 466.019531 198.121094 C 464.851562 198.238281 463.683594 198.324219 462.511719 198.378906 C 461.339844 198.4375 460.167969 198.464844 458.996094 198.464844 C 457.820312 198.464844 456.648438 198.4375 455.476562 198.378906 C 454.304688 198.324219 453.136719 198.238281 451.96875 198.121094 C 450.800781 198.007812 449.636719 197.863281 448.476562 197.691406 C 447.316406 197.519531 446.160156 197.316406 445.011719 197.089844 C 443.859375 196.859375 442.714844 196.601562 441.578125 196.320312 C 440.441406 196.035156 439.308594 195.71875 438.1875 195.378906 C 437.066406 195.039062 435.953125 194.671875 434.847656 194.277344 C 433.742188 193.882812 432.648438 193.460938 431.566406 193.011719 C 430.480469 192.5625 429.410156 192.085938 428.347656 191.585938 C 427.289062 191.082031 426.242188 190.554688 425.207031 190.003906 C 424.171875 189.449219 423.152344 188.871094 422.144531 188.269531 C 421.140625 187.664062 420.148438 187.039062 419.171875 186.386719 C 418.199219 185.734375 417.238281 185.058594 416.296875 184.359375 C 415.355469 183.664062 414.429688 182.941406 413.523438 182.195312 C 412.617188 181.453125 411.726562 180.6875 410.859375 179.898438 C 409.988281 179.109375 409.140625 178.300781 408.3125 177.472656 C 407.480469 176.644531 406.671875 175.792969 405.886719 174.925781 C 405.097656 174.054688 404.332031 173.167969 403.585938 172.261719 C 402.84375 171.355469 402.121094 170.429688 401.421875 169.488281 C 400.722656 168.546875 400.050781 167.585938 399.398438 166.609375 C 398.746094 165.636719 398.117188 164.644531 397.515625 163.640625 C 396.910156 162.632812 396.332031 161.613281 395.78125 160.578125 C 395.226562 159.542969 394.699219 158.496094 394.199219 157.433594 C 393.699219 156.375 393.222656 155.300781 392.773438 154.21875 C 392.324219 153.136719 391.902344 152.042969 391.507812 150.9375 C 391.113281 149.832031 390.746094 148.71875 390.402344 147.597656 C 390.0625 146.472656 389.75 145.34375 389.464844 144.207031 C 389.179688 143.066406 388.921875 141.921875 388.695312 140.773438 C 388.464844 139.621094 388.265625 138.46875 388.09375 137.304688 C 387.921875 136.144531 387.777344 134.980469 387.664062 133.816406 C 387.546875 132.648438 387.460938 131.476562 387.402344 130.304688 C 387.347656 129.132812 387.316406 127.960938 387.316406 126.789062 C 387.316406 125.617188 387.347656 124.445312 387.402344 123.273438 C 387.460938 122.101562 387.546875 120.929688 387.664062 119.761719 C 387.777344 118.597656 387.921875 117.433594 388.09375 116.273438 C 388.265625 115.113281 388.464844 113.957031 388.695312 112.804688 C 388.921875 111.65625 389.179688 110.511719 389.464844 109.375 C 389.75 108.234375 390.0625 107.105469 390.402344 105.980469 C 390.746094 104.859375 391.113281 103.746094 391.507812 102.640625 C 391.902344 101.539062 392.324219 100.441406 392.773438 99.359375 C 393.222656 98.277344 393.699219 97.203125 394.199219 96.144531 C 394.699219 95.082031 395.226562 94.035156 395.78125 93 C 396.332031 91.964844 396.910156 90.945312 397.515625 89.941406 C 398.117188 88.933594 398.746094 87.941406 399.398438 86.96875 C 400.050781 85.992188 400.722656 85.035156 401.421875 84.089844 C 402.121094 83.148438 402.84375 82.222656 403.585938 81.316406 C 404.332031 80.410156 405.097656 79.523438 405.886719 78.652344 C 406.671875 77.785156 407.480469 76.933594 408.3125 76.105469 C 409.140625 75.277344 409.988281 74.46875 410.859375 73.679688 C 411.726562 72.890625 412.617188 72.125 413.523438 71.382812 C 414.429688 70.636719 415.355469 69.917969 416.296875 69.21875 C 417.238281 68.519531 418.199219 67.84375 419.171875 67.191406 C 420.148438 66.539062 421.140625 65.914062 422.144531 65.308594 C 423.152344 64.707031 424.171875 64.128906 425.207031 63.574219 C 426.242188 63.023438 427.289062 62.496094 428.347656 61.992188 C 429.410156 61.492188 430.480469 61.015625 431.566406 60.566406 C 432.648438 60.117188 433.742188 59.695312 434.847656 59.300781 C 435.953125 58.90625 437.066406 58.539062 438.1875 58.199219 C 439.308594 57.859375 440.441406 57.546875 441.578125 57.261719 C 442.714844 56.976562 443.859375 56.71875 445.011719 56.488281 C 446.160156 56.261719 447.316406 56.058594 448.476562 55.886719 C 449.636719 55.714844 450.800781 55.570312 451.96875 55.457031 C 453.136719 55.34375 454.304688 55.253906 455.476562 55.199219 C 456.648438 55.140625 457.820312 55.113281 458.996094 55.113281 Z M 428.398438 239.375 L 489.421875 239.375 C 494.316406 239.414062 499.183594 239.804688 504.019531 240.546875 C 508.855469 241.289062 513.613281 242.375 518.292969 243.808594 C 522.972656 245.238281 527.523438 247 531.949219 249.089844 C 536.375 251.179688 540.625 253.578125 544.703125 256.28125 C 540.578125 261.375 536.914062 266.777344 533.714844 272.496094 C 530.511719 278.210938 527.816406 284.160156 525.628906 290.335938 C 523.4375 296.511719 521.789062 302.832031 520.675781 309.289062 C 519.566406 315.746094 519.007812 322.25 519.007812 328.804688 L 519.007812 361.261719 C 505.851562 349.792969 492.101562 339.085938 477.757812 329.140625 C 476.421875 328.433594 475.058594 327.777344 473.667969 327.171875 C 472.28125 326.570312 470.871094 326.019531 469.441406 325.523438 C 468.011719 325.027344 466.5625 324.585938 465.097656 324.203125 C 463.632812 323.816406 462.15625 323.488281 460.667969 323.21875 C 459.175781 322.949219 457.679688 322.734375 456.171875 322.578125 C 454.667969 322.421875 453.15625 322.324219 451.644531 322.28125 C 450.128906 322.242188 448.617188 322.261719 447.105469 322.335938 C 445.59375 322.410156 444.085938 322.546875 442.582031 322.738281 C 441.082031 322.929688 439.589844 323.175781 438.105469 323.484375 C 436.621094 323.789062 435.152344 324.152344 433.699219 324.570312 C 432.242188 324.988281 430.804688 325.464844 429.386719 325.992188 C 427.96875 326.523438 426.574219 327.105469 425.199219 327.742188 C 423.824219 328.378906 422.476562 329.066406 421.15625 329.804688 C 419.835938 330.546875 418.542969 331.335938 417.285156 332.171875 C 416.023438 333.011719 414.796875 333.898438 413.605469 334.832031 C 412.410156 335.765625 411.257812 336.742188 410.140625 337.765625 C 404.972656 333.8125 400.132812 329.496094 395.617188 324.816406 C 391.097656 320.136719 386.957031 315.144531 383.1875 309.84375 C 379.421875 304.542969 376.070312 298.992188 373.132812 293.1875 C 370.199219 287.382812 367.714844 281.390625 365.679688 275.214844 L 362.128906 263.71875 C 366.707031 259.804688 371.597656 256.324219 376.796875 253.28125 C 381.996094 250.234375 387.421875 247.675781 393.078125 245.597656 C 398.730469 243.519531 404.527344 241.957031 410.460938 240.914062 C 416.394531 239.867188 422.371094 239.355469 428.398438 239.375 Z M 319.527344 437.671875 C 314.640625 432.933594 310.15625 427.839844 306.082031 422.386719 C 302.007812 416.933594 298.390625 411.191406 295.230469 405.160156 C 292.070312 399.128906 289.410156 392.886719 287.25 386.429688 C 285.085938 379.972656 283.449219 373.386719 282.335938 366.671875 L 247.34375 157.050781 C 247.234375 156.367188 247.15625 155.683594 247.113281 154.996094 C 247.066406 154.308594 247.054688 153.617188 247.074219 152.929688 C 247.09375 152.238281 247.144531 151.554688 247.230469 150.867188 C 247.3125 150.183594 247.425781 149.503906 247.574219 148.832031 C 247.722656 148.15625 247.898438 147.492188 248.109375 146.835938 C 248.316406 146.175781 248.558594 145.53125 248.828125 144.894531 C 249.097656 144.261719 249.394531 143.640625 249.722656 143.035156 C 250.050781 142.425781 250.40625 141.835938 250.789062 141.261719 C 251.171875 140.6875 251.578125 140.132812 252.015625 139.597656 C 252.449219 139.0625 252.90625 138.550781 253.390625 138.054688 C 253.871094 137.5625 254.375 137.09375 254.902344 136.648438 C 255.429688 136.203125 255.976562 135.785156 256.539062 135.386719 C 257.105469 134.992188 257.6875 134.625 258.289062 134.285156 C 258.890625 133.945312 259.503906 133.636719 260.132812 133.351562 C 260.761719 133.070312 261.402344 132.816406 262.054688 132.59375 C 262.707031 132.371094 263.371094 132.179688 264.039062 132.019531 C 264.710938 131.855469 265.386719 131.726562 266.070312 131.628906 C 266.753906 131.53125 267.4375 131.464844 268.128906 131.433594 C 268.816406 131.398438 269.503906 131.398438 270.195312 131.425781 C 270.882812 131.457031 271.570312 131.519531 272.253906 131.617188 C 272.933594 131.710938 273.613281 131.835938 274.285156 131.996094 C 274.953125 132.152344 275.617188 132.339844 276.269531 132.5625 C 276.925781 132.78125 277.566406 133.03125 278.195312 133.3125 C 278.828125 133.589844 279.441406 133.898438 280.042969 134.238281 C 280.644531 134.574219 281.230469 134.9375 281.796875 135.332031 C 282.367188 135.722656 282.914062 136.140625 283.441406 136.582031 C 283.96875 137.027344 284.476562 137.492188 284.960938 137.984375 C 285.445312 138.472656 285.90625 138.984375 286.34375 139.519531 C 286.78125 140.054688 287.191406 140.605469 287.578125 141.179688 C 287.964844 141.75 288.320312 142.339844 288.652344 142.945312 C 288.980469 143.550781 289.28125 144.167969 289.554688 144.800781 C 289.828125 145.4375 290.070312 146.082031 290.28125 146.738281 L 333.390625 285.359375 C 335.980469 293.480469 339.1875 301.355469 343.003906 308.980469 C 346.820312 316.605469 351.203125 323.886719 356.152344 330.832031 C 361.101562 337.773438 366.554688 344.292969 372.519531 350.386719 C 378.480469 356.480469 384.878906 362.078125 391.710938 367.179688 C 390.871094 372.414062 390.53125 377.679688 390.699219 382.976562 C 390.867188 388.277344 391.539062 393.511719 392.710938 398.679688 C 393.882812 403.851562 395.539062 408.863281 397.675781 413.714844 C 399.808594 418.566406 402.386719 423.171875 405.40625 427.53125 C 430.1875 467.371094 458.082031 504.902344 489.085938 540.117188 C 489.460938 540.527344 489.851562 540.917969 490.265625 541.289062 C 490.675781 541.65625 491.105469 542.007812 491.550781 542.335938 C 492 542.664062 492.460938 542.96875 492.9375 543.253906 C 493.414062 543.535156 493.902344 543.796875 494.40625 544.03125 C 494.90625 544.265625 495.417969 544.476562 495.941406 544.660156 C 496.464844 544.847656 496.996094 545.003906 497.53125 545.136719 C 498.070312 545.269531 498.613281 545.378906 499.164062 545.457031 C 499.710938 545.535156 500.261719 545.589844 500.816406 545.613281 C 501.371094 545.640625 501.925781 545.636719 502.476562 545.609375 C 503.03125 545.578125 503.582031 545.523438 504.128906 545.4375 C 504.679688 545.355469 505.222656 545.246094 505.757812 545.109375 C 506.296875 544.972656 506.824219 544.8125 507.347656 544.621094 C 507.867188 544.433594 508.378906 544.21875 508.878906 543.980469 C 509.378906 543.742188 509.867188 543.480469 510.339844 543.195312 C 510.816406 542.90625 511.273438 542.597656 511.71875 542.265625 C 512.164062 541.933594 512.589844 541.582031 513 541.207031 C 513.410156 540.835938 513.800781 540.441406 514.171875 540.03125 C 514.542969 539.617188 514.890625 539.1875 515.21875 538.742188 C 515.546875 538.296875 515.855469 537.835938 516.136719 537.359375 C 516.421875 536.882812 516.679688 536.394531 516.917969 535.890625 C 517.152344 535.390625 517.363281 534.878906 517.546875 534.355469 C 517.734375 533.832031 517.890625 533.300781 518.027344 532.765625 C 518.160156 532.226562 518.265625 531.683594 518.34375 531.132812 C 518.425781 530.585938 518.476562 530.035156 518.503906 529.480469 C 518.527344 528.925781 518.527344 528.375 518.496094 527.820312 C 518.46875 527.265625 518.414062 526.714844 518.332031 526.167969 C 518.246094 525.617188 518.136719 525.078125 518 524.539062 C 517.867188 524 517.703125 523.472656 517.515625 522.949219 C 517.328125 522.429688 517.113281 521.917969 516.875 521.417969 C 516.636719 520.917969 516.375 520.429688 516.089844 519.957031 C 515.800781 519.480469 515.492188 519.019531 515.164062 518.578125 C 514.832031 518.132812 514.476562 517.707031 514.105469 517.296875 C 484.636719 483.625 458.097656 447.785156 434.480469 409.78125 C 427.382812 398.285156 417.578125 376.984375 431.101562 363.460938 C 432.027344 362.53125 433.015625 361.671875 434.070312 360.890625 C 435.125 360.105469 436.230469 359.40625 437.386719 358.785156 C 438.542969 358.164062 439.742188 357.636719 440.976562 357.195312 C 442.214844 356.75 443.476562 356.402344 444.761719 356.148438 C 446.050781 355.894531 447.351562 355.734375 448.660156 355.675781 C 449.972656 355.613281 451.28125 355.648438 452.585938 355.78125 C 453.894531 355.914062 455.183594 356.140625 456.453125 356.464844 C 457.726562 356.789062 458.96875 357.203125 460.179688 357.710938 C 468.125 362.613281 490.4375 380.871094 523.910156 409.609375 C 542.167969 425.332031 563.976562 444.433594 588.316406 466.074219 L 595.925781 472.667969 C 599.425781 475.800781 602.777344 479.085938 605.980469 482.523438 C 609.183594 485.960938 612.226562 489.535156 615.105469 493.25 C 617.984375 496.964844 620.6875 500.800781 623.21875 504.761719 C 625.75 508.71875 628.09375 512.785156 630.257812 516.957031 C 632.417969 521.128906 634.386719 525.390625 636.160156 529.742188 C 637.9375 534.089844 639.511719 538.511719 640.882812 543.007812 C 642.257812 547.5 643.425781 552.046875 644.386719 556.644531 C 645.347656 561.246094 646.101562 565.878906 646.640625 570.546875 L 658.136719 663.355469 L 509.203125 663.355469 C 507.097656 654.617188 504.398438 646.066406 501.097656 637.707031 C 497.796875 629.34375 493.933594 621.253906 489.5 613.433594 C 485.070312 605.617188 480.113281 598.140625 474.636719 591.015625 C 469.160156 583.890625 463.214844 577.179688 456.796875 570.882812 Z M 696.511719 744.667969 C 696.511719 745.742188 696.410156 746.808594 696.210938 747.863281 C 696.007812 748.921875 695.707031 749.949219 695.308594 750.949219 C 694.910156 751.945312 694.421875 752.898438 693.84375 753.804688 C 693.261719 754.710938 692.601562 755.550781 691.863281 756.332031 C 691.121094 757.113281 690.3125 757.8125 689.4375 758.441406 C 688.5625 759.066406 687.636719 759.601562 686.660156 760.050781 C 685.683594 760.5 684.671875 760.851562 683.628906 761.109375 C 682.582031 761.363281 681.523438 761.519531 680.449219 761.574219 L 497.875 761.574219 C 496.800781 761.519531 495.742188 761.363281 494.699219 761.109375 C 493.652344 760.851562 492.644531 760.5 491.667969 760.050781 C 490.6875 759.601562 489.761719 759.066406 488.886719 758.441406 C 488.011719 757.8125 487.207031 757.113281 486.464844 756.332031 C 485.726562 755.550781 485.0625 754.710938 484.484375 753.804688 C 483.90625 752.898438 483.414062 751.945312 483.019531 750.949219 C 482.621094 749.949219 482.320312 748.921875 482.117188 747.863281 C 481.914062 746.808594 481.816406 745.742188 481.816406 744.667969 L 481.816406 713.5625 C 481.820312 712.683594 481.902344 711.8125 482.050781 710.949219 C 482.203125 710.085938 482.425781 709.238281 482.71875 708.410156 C 483.011719 707.585938 483.371094 706.789062 483.800781 706.019531 C 484.226562 705.253906 484.714844 704.527344 485.261719 703.84375 C 485.808594 703.15625 486.410156 702.523438 487.066406 701.9375 C 487.71875 701.351562 488.417969 700.828125 489.160156 700.359375 C 489.902344 699.890625 490.679688 699.488281 491.492188 699.152344 C 492.300781 698.8125 493.132812 698.546875 493.988281 698.347656 L 680.621094 698.347656 C 681.652344 698.410156 682.667969 698.5625 683.671875 698.8125 C 684.675781 699.058594 685.648438 699.394531 686.59375 699.820312 C 687.535156 700.246094 688.429688 700.753906 689.277344 701.347656 C 690.125 701.9375 690.914062 702.597656 691.640625 703.332031 C 692.367188 704.070312 693.023438 704.863281 693.605469 705.71875 C 694.1875 706.574219 694.683594 707.472656 695.101562 708.421875 C 695.515625 709.367188 695.84375 710.34375 696.082031 711.347656 C 696.316406 712.355469 696.460938 713.375 696.511719 714.40625 Z M 959.550781 744.667969 C 959.550781 745.222656 959.527344 745.773438 959.472656 746.324219 C 959.417969 746.875 959.335938 747.421875 959.226562 747.964844 C 959.121094 748.507812 958.984375 749.046875 958.824219 749.574219 C 958.664062 750.105469 958.476562 750.625 958.265625 751.136719 C 958.054688 751.648438 957.816406 752.148438 957.554688 752.636719 C 957.296875 753.125 957.011719 753.597656 956.703125 754.058594 C 956.394531 754.519531 956.066406 754.964844 955.714844 755.390625 C 955.363281 755.820312 954.992188 756.230469 954.601562 756.621094 C 954.210938 757.011719 953.800781 757.382812 953.371094 757.734375 C 952.945312 758.085938 952.5 758.417969 952.039062 758.722656 C 951.578125 759.03125 951.105469 759.316406 950.617188 759.578125 C 950.128906 759.835938 949.628906 760.074219 949.117188 760.285156 C 948.605469 760.496094 948.085938 760.683594 947.554688 760.84375 C 947.023438 761.003906 946.488281 761.140625 945.945312 761.246094 C 945.402344 761.355469 944.855469 761.4375 944.304688 761.492188 C 943.753906 761.546875 943.199219 761.574219 942.648438 761.574219 L 760.917969 761.574219 C 760.363281 761.574219 759.8125 761.546875 759.261719 761.492188 C 758.710938 761.4375 758.164062 761.355469 757.621094 761.25 C 757.078125 761.140625 756.539062 761.003906 756.011719 760.84375 C 755.480469 760.683594 754.960938 760.496094 754.449219 760.285156 C 753.9375 760.074219 753.4375 759.835938 752.949219 759.578125 C 752.460938 759.316406 751.988281 759.03125 751.527344 758.722656 C 751.066406 758.417969 750.621094 758.085938 750.195312 757.734375 C 749.765625 757.382812 749.355469 757.011719 748.964844 756.621094 C 748.574219 756.230469 748.203125 755.820312 747.851562 755.390625 C 747.5 754.964844 747.171875 754.519531 746.863281 754.058594 C 746.554688 753.597656 746.269531 753.125 746.007812 752.636719 C 745.75 752.148438 745.511719 751.648438 745.300781 751.136719 C 745.089844 750.625 744.902344 750.105469 744.742188 749.574219 C 744.582031 749.046875 744.445312 748.507812 744.339844 747.964844 C 744.230469 747.421875 744.148438 746.875 744.09375 746.324219 C 744.039062 745.773438 744.011719 745.222656 744.011719 744.667969 L 744.011719 713.5625 C 744.0625 712.53125 744.207031 711.511719 744.445312 710.503906 C 744.679688 709.496094 745.007812 708.523438 745.421875 707.574219 C 745.839844 706.628906 746.339844 705.726562 746.917969 704.875 C 747.5 704.019531 748.15625 703.222656 748.882812 702.488281 C 749.609375 701.753906 750.398438 701.089844 751.246094 700.5 C 752.09375 699.910156 752.988281 699.402344 753.933594 698.976562 C 754.875 698.550781 755.847656 698.214844 756.851562 697.964844 C 757.855469 697.71875 758.871094 697.5625 759.902344 697.503906 L 946.875 697.503906 C 947.730469 697.699219 948.5625 697.96875 949.371094 698.304688 C 950.179688 698.644531 950.957031 699.046875 951.699219 699.515625 C 952.441406 699.980469 953.140625 700.507812 953.796875 701.09375 C 954.449219 701.675781 955.050781 702.3125 955.601562 702.996094 C 956.148438 703.683594 956.636719 704.410156 957.0625 705.175781 C 957.488281 705.941406 957.847656 706.738281 958.144531 707.566406 C 958.4375 708.394531 958.65625 709.238281 958.808594 710.105469 C 958.960938 710.96875 959.039062 711.839844 959.046875 712.71875 Z M 1158.863281 366.671875 C 1157.785156 373.390625 1156.179688 379.976562 1154.039062 386.4375 C 1151.898438 392.898438 1149.257812 399.144531 1146.113281 405.175781 C 1142.964844 411.207031 1139.359375 416.949219 1135.285156 422.402344 C 1131.214844 427.855469 1126.734375 432.945312 1121.839844 437.671875 L 984.570312 571.222656 C 978.15625 577.515625 972.207031 584.226562 966.730469 591.355469 C 961.253906 598.480469 956.300781 605.953125 951.867188 613.773438 C 947.4375 621.59375 943.570312 629.683594 940.269531 638.042969 C 936.972656 646.40625 934.269531 654.953125 932.167969 663.691406 L 782.386719 663.691406 L 793.882812 570.882812 C 794.425781 566.214844 795.175781 561.582031 796.136719 556.984375 C 797.097656 552.382812 798.265625 547.839844 799.640625 543.34375 C 801.011719 538.851562 802.585938 534.429688 804.363281 530.078125 C 806.136719 525.726562 808.105469 521.464844 810.265625 517.292969 C 812.429688 513.121094 814.773438 509.058594 817.304688 505.097656 C 819.835938 501.140625 822.539062 497.300781 825.417969 493.589844 C 828.296875 489.875 831.339844 486.300781 834.542969 482.863281 C 837.746094 479.421875 841.097656 476.136719 844.597656 473.003906 L 852.207031 466.410156 C 921.515625 405.046875 968.175781 364.980469 980.683594 357.882812 C 981.890625 357.382812 983.125 356.972656 984.390625 356.65625 C 985.65625 356.339844 986.9375 356.117188 988.234375 355.992188 C 989.53125 355.863281 990.832031 355.832031 992.136719 355.894531 C 993.4375 355.960938 994.730469 356.117188 996.007812 356.375 C 997.289062 356.628906 998.542969 356.972656 999.769531 357.414062 C 1000.996094 357.851562 1002.1875 358.378906 1003.335938 358.996094 C 1004.488281 359.609375 1005.585938 360.304688 1006.636719 361.082031 C 1007.683594 361.859375 1008.667969 362.707031 1009.589844 363.628906 C 1023.117188 377.152344 1013.308594 398.453125 1006.210938 409.949219 C 982.609375 447.964844 956.070312 483.804688 926.585938 517.464844 C 926.21875 517.886719 925.867188 518.324219 925.539062 518.777344 C 925.210938 519.234375 924.910156 519.703125 924.625 520.1875 C 924.34375 520.671875 924.089844 521.171875 923.855469 521.679688 C 923.625 522.191406 923.417969 522.710938 923.234375 523.242188 C 923.054688 523.773438 922.898438 524.3125 922.769531 524.859375 C 922.640625 525.402344 922.539062 525.953125 922.464844 526.511719 C 922.390625 527.066406 922.34375 527.625 922.324219 528.183594 C 922.304688 528.746094 922.3125 529.304688 922.347656 529.863281 C 922.382812 530.425781 922.445312 530.980469 922.535156 531.535156 C 922.625 532.085938 922.742188 532.636719 922.886719 533.175781 C 923.03125 533.71875 923.199219 534.253906 923.398438 534.777344 C 923.59375 535.304688 923.8125 535.816406 924.0625 536.320312 C 924.308594 536.824219 924.578125 537.316406 924.875 537.792969 C 925.167969 538.269531 925.484375 538.730469 925.828125 539.175781 C 926.167969 539.621094 926.527344 540.050781 926.910156 540.460938 C 927.292969 540.871094 927.695312 541.261719 928.113281 541.632812 C 928.535156 542.003906 928.972656 542.351562 929.429688 542.679688 C 929.882812 543.007812 930.351562 543.3125 930.839844 543.59375 C 931.324219 543.875 931.820312 544.132812 932.332031 544.367188 C 932.839844 544.597656 933.359375 544.804688 933.890625 544.988281 C 934.421875 545.167969 934.960938 545.324219 935.507812 545.453125 C 936.050781 545.582031 936.601562 545.683594 937.160156 545.757812 C 937.714844 545.835938 938.273438 545.882812 938.832031 545.902344 C 939.394531 545.921875 939.953125 545.914062 940.511719 545.878906 C 941.074219 545.84375 941.628906 545.78125 942.183594 545.691406 C 942.734375 545.601562 943.285156 545.484375 943.824219 545.339844 C 944.367188 545.199219 944.902344 545.027344 945.425781 544.832031 C 945.953125 544.636719 946.46875 544.414062 946.972656 544.167969 C 947.476562 543.921875 947.964844 543.652344 948.441406 543.355469 C 948.917969 543.0625 949.378906 542.746094 949.828125 542.402344 C 950.273438 542.0625 950.699219 541.703125 951.109375 541.320312 C 951.523438 540.9375 951.914062 540.539062 952.285156 540.117188 C 983.21875 504.828125 1011.058594 467.242188 1035.792969 427.359375 C 1038.785156 423.007812 1041.335938 418.40625 1043.449219 413.566406 C 1045.5625 408.722656 1047.195312 403.726562 1048.355469 398.574219 C 1049.511719 393.417969 1050.171875 388.203125 1050.335938 382.921875 C 1050.496094 377.640625 1050.15625 372.394531 1049.316406 367.179688 C 1056.164062 362.074219 1062.570312 356.464844 1068.539062 350.359375 C 1074.507812 344.253906 1079.964844 337.722656 1084.917969 330.761719 C 1089.867188 323.804688 1094.246094 316.503906 1098.054688 308.863281 C 1101.867188 301.222656 1105.0625 293.328125 1107.640625 285.1875 L 1150.75 146.738281 C 1151.101562 145.621094 1151.542969 144.539062 1152.066406 143.492188 C 1152.59375 142.445312 1153.195312 141.445312 1153.878906 140.496094 C 1154.5625 139.542969 1155.316406 138.652344 1156.136719 137.816406 C 1156.960938 136.984375 1157.84375 136.222656 1158.785156 135.527344 C 1159.730469 134.832031 1160.722656 134.21875 1161.761719 133.679688 C 1162.800781 133.140625 1163.878906 132.6875 1164.988281 132.320312 C 1166.101562 131.949219 1167.234375 131.671875 1168.390625 131.480469 C 1169.546875 131.289062 1170.707031 131.191406 1171.878906 131.183594 L 1175.429688 131.183594 C 1176.164062 131.28125 1176.890625 131.414062 1177.613281 131.582031 C 1178.332031 131.753906 1179.042969 131.960938 1179.742188 132.203125 C 1180.441406 132.445312 1181.128906 132.722656 1181.800781 133.035156 C 1182.472656 133.347656 1183.125 133.691406 1183.761719 134.070312 C 1184.398438 134.449219 1185.011719 134.863281 1185.605469 135.304688 C 1186.203125 135.746094 1186.773438 136.214844 1187.320312 136.714844 C 1187.863281 137.214844 1188.382812 137.742188 1188.878906 138.292969 C 1189.371094 138.847656 1189.832031 139.421875 1190.269531 140.023438 C 1190.703125 140.621094 1191.105469 141.242188 1191.476562 141.882812 C 1191.847656 142.523438 1192.183594 143.183594 1192.488281 143.859375 C 1192.792969 144.535156 1193.0625 145.222656 1193.292969 145.925781 C 1193.527344 146.628906 1193.726562 147.339844 1193.886719 148.0625 C 1194.046875 148.785156 1194.171875 149.515625 1194.257812 150.25 C 1194.34375 150.988281 1194.394531 151.722656 1194.40625 152.464844 C 1194.417969 153.207031 1194.390625 153.945312 1194.328125 154.683594 C 1194.265625 155.421875 1194.164062 156.152344 1194.023438 156.878906 Z M 1158.863281 366.671875 "/></g></g></svg>