<svg xmlns="http://www.w3.org/2000/svg" xmlns:xlink="http://www.w3.org/1999/xlink" width="1920" zoomAndPan="magnify" viewBox="0 0 1440 809.999993" height="1080" preserveAspectRatio="xMidYMid meet" version="1.2"><g id="f236d84ffe"><path style=" stroke:none;fill-rule:nonzero;fill:#ffffff;fill-opacity:1;" d="M 1087.917969 96.074219 C 1042.585938 50.742188 981.742188 24.167969 916.609375 21.269531 C 853.796875 18.40625 796.308594 38.464844 758.699219 76.082031 L 719.710938 115.070312 L 700.71875 96.074219 C 697.859375 93.214844 694.933594 90.429688 691.941406 87.714844 C 688.945312 85.003906 685.886719 82.363281 682.761719 79.800781 C 679.640625 77.234375 676.453125 74.75 673.207031 72.34375 C 669.960938 69.9375 666.660156 67.609375 663.300781 65.363281 C 659.9375 63.121094 656.527344 60.957031 653.058594 58.878906 C 649.59375 56.804688 646.078125 54.8125 642.515625 52.90625 C 638.949219 51.003906 635.339844 49.1875 631.6875 47.457031 C 628.035156 45.730469 624.34375 44.09375 620.609375 42.546875 C 616.875 41 613.105469 39.546875 609.300781 38.183594 C 605.496094 36.824219 601.660156 35.554688 597.792969 34.382812 C 593.925781 33.210938 590.03125 32.132812 586.113281 31.152344 C 582.191406 30.167969 578.25 29.285156 574.285156 28.496094 C 570.324219 27.707031 566.34375 27.015625 562.34375 26.421875 C 558.347656 25.832031 554.335938 25.335938 550.316406 24.941406 C 546.292969 24.542969 542.265625 24.246094 538.230469 24.046875 C 534.191406 23.851562 530.152344 23.75 526.113281 23.75 C 522.070312 23.75 518.03125 23.851562 513.996094 24.046875 C 509.960938 24.246094 505.929688 24.542969 501.910156 24.941406 C 497.886719 25.335938 493.878906 25.832031 489.878906 26.421875 C 485.882812 27.015625 481.902344 27.707031 477.9375 28.496094 C 473.976562 29.285156 470.035156 30.167969 466.113281 31.152344 C 462.195312 32.132812 458.300781 33.210938 454.433594 34.382812 C 450.566406 35.558594 446.730469 36.824219 442.925781 38.1875 C 439.121094 39.546875 435.351562 41 431.617188 42.546875 C 427.882812 44.09375 424.191406 45.730469 420.535156 47.460938 C 416.882812 49.1875 413.273438 51.003906 409.710938 52.910156 C 406.148438 54.8125 402.632812 56.804688 399.167969 58.882812 C 395.699219 60.960938 392.285156 63.121094 388.925781 65.367188 C 385.566406 67.613281 382.261719 69.9375 379.019531 72.34375 C 375.773438 74.753906 372.585938 77.238281 369.464844 79.800781 C 366.339844 82.367188 363.28125 85.003906 360.285156 87.71875 C 357.292969 90.433594 354.367188 93.21875 351.507812 96.074219 C 348.652344 98.933594 345.863281 101.859375 343.152344 104.851562 C 340.4375 107.847656 337.796875 110.90625 335.234375 114.03125 C 332.671875 117.15625 330.183594 120.339844 327.777344 123.585938 C 325.371094 126.832031 323.042969 130.132812 320.800781 133.496094 C 318.554688 136.855469 316.394531 140.269531 314.316406 143.734375 C 312.238281 147.199219 310.246094 150.714844 308.339844 154.28125 C 306.4375 157.84375 304.621094 161.453125 302.890625 165.105469 C 301.164062 168.757812 299.527344 172.453125 297.980469 176.183594 C 296.433594 179.917969 294.980469 183.6875 293.621094 187.492188 C 292.257812 191.296875 290.992188 195.132812 289.816406 199 C 288.644531 202.867188 287.566406 206.761719 286.585938 210.683594 C 285.601562 214.601562 284.71875 218.542969 283.929688 222.507812 C 283.140625 226.472656 282.449219 230.453125 281.859375 234.449219 C 281.265625 238.445312 280.769531 242.457031 280.375 246.476562 C 279.976562 250.5 279.679688 254.527344 279.484375 258.566406 C 279.285156 262.601562 279.183594 266.640625 279.183594 270.679688 C 279.183594 274.722656 279.285156 278.761719 279.484375 282.796875 C 279.679688 286.832031 279.976562 290.863281 280.375 294.882812 C 280.769531 298.90625 281.265625 302.914062 281.859375 306.914062 C 282.449219 310.910156 283.140625 314.890625 283.929688 318.855469 C 284.71875 322.816406 285.605469 326.761719 286.585938 330.679688 C 287.566406 334.601562 288.644531 338.492188 289.820312 342.359375 C 290.992188 346.226562 292.257812 350.0625 293.621094 353.867188 C 294.980469 357.671875 296.4375 361.441406 297.980469 365.175781 C 299.527344 368.910156 301.164062 372.601562 302.894531 376.257812 C 304.621094 379.910156 306.4375 383.519531 308.34375 387.082031 C 310.25 390.644531 312.238281 394.160156 314.316406 397.628906 C 316.394531 401.09375 318.554688 404.507812 320.800781 407.867188 C 323.046875 411.226562 325.371094 414.53125 327.78125 417.777344 C 330.1875 421.023438 332.671875 424.207031 335.238281 427.332031 C 337.800781 430.453125 340.4375 433.511719 343.152344 436.507812 C 345.867188 439.503906 348.652344 442.429688 351.511719 445.285156 L 380.179688 473.957031 C 380.046875 474.757812 379.929688 475.550781 379.8125 476.347656 L 379.714844 477.007812 C 376.316406 500.40625 383.476562 523.269531 399.355469 539.746094 C 401.078125 541.542969 402.882812 543.253906 404.777344 544.871094 C 406.671875 546.488281 408.640625 548.007812 410.6875 549.429688 C 412.734375 550.851562 414.84375 552.164062 417.023438 553.375 C 419.199219 554.582031 421.433594 555.679688 423.71875 556.667969 C 426.007812 557.652344 428.339844 558.523438 430.714844 559.273438 C 433.089844 560.027344 435.496094 560.65625 437.933594 561.167969 C 440.371094 561.679688 442.828125 562.066406 445.304688 562.332031 C 447.78125 562.597656 450.265625 562.738281 452.753906 562.753906 L 453.507812 562.753906 C 455.238281 562.753906 457.019531 562.679688 458.949219 562.519531 C 456.621094 584.789062 463.828125 606.332031 478.984375 622.050781 C 480.707031 623.851562 482.515625 625.558594 484.40625 627.179688 C 486.300781 628.796875 488.269531 630.316406 490.316406 631.738281 C 492.363281 633.160156 494.472656 634.472656 496.652344 635.683594 C 498.828125 636.894531 501.0625 637.992188 503.351562 638.976562 C 505.636719 639.960938 507.96875 640.832031 510.34375 641.585938 C 512.71875 642.335938 515.125 642.96875 517.5625 643.480469 C 520 643.992188 522.457031 644.378906 524.933594 644.644531 C 527.410156 644.910156 529.894531 645.050781 532.386719 645.066406 L 533.136719 645.070312 C 534.871094 645.070312 536.648438 644.996094 538.578125 644.839844 C 536.246094 667.109375 543.457031 688.648438 558.613281 704.371094 C 560.335938 706.167969 562.144531 707.875 564.035156 709.496094 C 565.929688 711.113281 567.898438 712.632812 569.945312 714.054688 C 571.988281 715.472656 574.101562 716.789062 576.277344 717.996094 C 578.453125 719.207031 580.6875 720.304688 582.972656 721.289062 C 585.261719 722.277344 587.59375 723.144531 589.964844 723.898438 C 592.339844 724.648438 594.746094 725.28125 597.183594 725.792969 C 599.621094 726.304688 602.078125 726.691406 604.554688 726.957031 C 607.03125 727.222656 609.511719 727.363281 612.003906 727.378906 L 612.761719 727.386719 C 614.492188 727.386719 616.273438 727.308594 618.203125 727.152344 C 615.875 749.421875 623.082031 770.960938 638.238281 786.679688 C 639.960938 788.480469 641.769531 790.1875 643.664062 791.808594 C 645.554688 793.425781 647.527344 794.945312 649.570312 796.367188 C 651.617188 797.785156 653.730469 799.101562 655.90625 800.3125 C 658.085938 801.519531 660.316406 802.617188 662.605469 803.601562 C 664.890625 804.589844 667.222656 805.457031 669.597656 806.210938 C 671.972656 806.960938 674.378906 807.59375 676.816406 808.105469 C 679.253906 808.617188 681.710938 809.003906 684.1875 809.269531 C 686.664062 809.535156 689.148438 809.675781 691.640625 809.691406 L 692.390625 809.691406 C 695.6875 809.667969 698.96875 809.433594 702.234375 808.980469 C 712.132812 807.703125 721.394531 804.554688 730.019531 799.535156 C 735.703125 796.253906 740.871094 792.300781 745.53125 787.679688 L 812.578125 720.632812 C 814.0625 719.144531 815.472656 717.617188 816.804688 716.042969 C 818.011719 716.019531 819.21875 715.96875 820.421875 715.886719 C 821.628906 715.804688 822.832031 715.695312 824.03125 715.554688 C 825.230469 715.414062 826.425781 715.246094 827.617188 715.050781 C 828.808594 714.851562 829.996094 714.628906 831.175781 714.375 C 832.355469 714.121094 833.53125 713.835938 834.699219 713.527344 C 835.867188 713.214844 837.023438 712.875 838.175781 712.507812 C 839.324219 712.140625 840.46875 711.75 841.597656 711.328125 C 842.730469 710.90625 843.851562 710.457031 844.960938 709.980469 C 846.070312 709.503906 847.171875 709 848.257812 708.472656 C 849.34375 707.945312 850.414062 707.390625 851.472656 706.808594 C 852.53125 706.226562 853.578125 705.621094 854.605469 704.992188 C 855.636719 704.359375 856.652344 703.703125 857.648438 703.023438 C 858.648438 702.34375 859.628906 701.640625 860.59375 700.914062 C 861.558594 700.1875 862.503906 699.4375 863.433594 698.664062 C 864.359375 697.890625 865.269531 697.097656 866.160156 696.28125 C 867.050781 695.464844 867.917969 694.625 868.769531 693.765625 C 869.617188 692.910156 870.449219 692.03125 871.253906 691.132812 C 872.0625 690.234375 872.847656 689.316406 873.609375 688.378906 C 874.371094 687.441406 875.113281 686.488281 875.828125 685.515625 C 876.546875 684.542969 877.238281 683.554688 877.910156 682.550781 C 878.578125 681.542969 879.222656 680.523438 879.84375 679.488281 C 880.460938 678.449219 881.054688 677.398438 881.625 676.335938 C 882.195312 675.269531 882.738281 674.191406 883.253906 673.097656 C 883.773438 672.007812 884.261719 670.902344 884.726562 669.789062 C 885.191406 668.671875 885.628906 667.546875 886.039062 666.410156 C 886.449219 665.277344 886.832031 664.128906 887.183594 662.976562 C 887.539062 661.820312 887.867188 660.660156 888.164062 659.488281 C 888.460938 658.316406 888.734375 657.140625 888.972656 655.957031 C 889.214844 654.773438 889.429688 653.585938 889.613281 652.390625 C 889.796875 651.199219 889.953125 650 890.082031 648.800781 C 890.207031 647.597656 890.304688 646.394531 890.371094 645.1875 C 890.441406 643.984375 890.480469 642.777344 890.492188 641.566406 L 890.519531 640.886719 C 890.519531 638.949219 890.429688 636.945312 890.222656 634.75 C 892.410156 634.949219 894.398438 635.046875 896.324219 635.046875 L 896.976562 635.019531 C 898.191406 635.011719 899.40625 634.972656 900.621094 634.90625 C 901.835938 634.839844 903.046875 634.742188 904.257812 634.613281 C 905.46875 634.488281 906.671875 634.332031 907.875 634.148438 C 909.078125 633.960938 910.273438 633.75 911.464844 633.503906 C 912.65625 633.261719 913.839844 632.988281 915.019531 632.6875 C 916.199219 632.386719 917.367188 632.058594 918.53125 631.699219 C 919.691406 631.34375 920.84375 630.957031 921.988281 630.542969 C 923.132812 630.128906 924.265625 629.6875 925.386719 629.21875 C 926.507812 628.75 927.617188 628.253906 928.714844 627.730469 C 929.816406 627.207031 930.898438 626.65625 931.96875 626.082031 C 933.042969 625.503906 934.097656 624.902344 935.140625 624.277344 C 936.179688 623.648438 937.207031 622.996094 938.21875 622.320312 C 939.226562 621.640625 940.21875 620.941406 941.195312 620.214844 C 942.171875 619.488281 943.128906 618.738281 944.070312 617.96875 C 945.007812 617.195312 945.929688 616.402344 946.828125 615.582031 C 947.730469 614.765625 948.609375 613.929688 949.46875 613.070312 C 950.332031 612.207031 951.167969 611.328125 951.984375 610.425781 C 952.804688 609.527344 953.597656 608.605469 954.371094 607.667969 C 955.144531 606.726562 955.890625 605.769531 956.617188 604.796875 C 957.34375 603.820312 958.046875 602.828125 958.722656 601.816406 C 959.398438 600.804688 960.050781 599.78125 960.679688 598.738281 C 961.308594 597.695312 961.910156 596.640625 962.484375 595.570312 C 963.0625 594.5 963.609375 593.414062 964.132812 592.316406 C 964.65625 591.21875 965.152344 590.109375 965.625 588.988281 C 966.09375 587.867188 966.535156 586.734375 966.949219 585.589844 C 967.363281 584.445312 967.75 583.292969 968.105469 582.132812 C 968.464844 580.96875 968.792969 579.796875 969.097656 578.621094 C 969.398438 577.441406 969.667969 576.257812 969.914062 575.066406 C 970.15625 573.875 970.371094 572.675781 970.554688 571.476562 C 970.742188 570.273438 970.898438 569.066406 971.023438 567.859375 C 971.148438 566.648438 971.246094 565.4375 971.3125 564.222656 C 971.382812 563.007812 971.417969 561.792969 971.429688 560.578125 C 971.445312 558.402344 971.351562 556.15625 971.144531 553.785156 C 973.335938 553.988281 975.339844 554.085938 977.289062 554.085938 L 977.945312 554.058594 C 986.21875 553.96875 994.257812 552.558594 1002.066406 549.824219 C 1003.855469 549.207031 1005.621094 548.519531 1007.359375 547.769531 C 1009.097656 547.015625 1010.804688 546.199219 1012.480469 545.316406 C 1014.15625 544.433594 1015.796875 543.492188 1017.402344 542.484375 C 1019.007812 541.476562 1020.570312 540.410156 1022.09375 539.285156 C 1023.617188 538.160156 1025.097656 536.976562 1026.53125 535.738281 C 1027.964844 534.5 1029.347656 533.207031 1030.683594 531.863281 C 1032.019531 530.519531 1033.300781 529.128906 1034.53125 527.6875 C 1035.757812 526.246094 1036.929688 524.761719 1038.046875 523.230469 C 1039.164062 521.699219 1040.21875 520.128906 1041.21875 518.515625 C 1042.214844 516.90625 1043.148438 515.261719 1044.019531 513.578125 C 1044.890625 511.894531 1045.699219 510.183594 1046.4375 508.441406 C 1047.179688 506.695312 1047.851562 504.929688 1048.460938 503.132812 C 1049.066406 501.339844 1049.605469 499.523438 1050.074219 497.6875 C 1050.542969 495.851562 1050.941406 494.003906 1051.265625 492.136719 C 1051.59375 490.269531 1051.851562 488.394531 1052.035156 486.511719 C 1052.222656 484.625 1052.335938 482.734375 1052.375 480.839844 L 1087.921875 445.289062 C 1090.777344 442.429688 1093.558594 439.5 1096.269531 436.503906 C 1098.976562 433.507812 1101.613281 430.449219 1104.171875 427.324219 C 1106.734375 424.199219 1109.214844 421.011719 1111.617188 417.765625 C 1114.023438 414.515625 1116.34375 411.214844 1118.585938 407.851562 C 1120.828125 404.492188 1122.984375 401.078125 1125.058594 397.609375 C 1127.132812 394.144531 1129.121094 390.628906 1131.023438 387.0625 C 1132.925781 383.5 1134.742188 379.890625 1136.464844 376.238281 C 1138.191406 372.585938 1139.824219 368.890625 1141.371094 365.160156 C 1142.914062 361.425781 1144.363281 357.65625 1145.722656 353.851562 C 1147.082031 350.046875 1148.347656 346.210938 1149.519531 342.34375 C 1150.691406 338.480469 1151.765625 334.585938 1152.746094 330.667969 C 1153.726562 326.746094 1154.609375 322.808594 1155.398438 318.84375 C 1156.183594 314.882812 1156.875 310.902344 1157.464844 306.90625 C 1158.058594 302.910156 1158.550781 298.902344 1158.949219 294.878906 C 1159.34375 290.859375 1159.640625 286.832031 1159.835938 282.796875 C 1160.035156 278.761719 1160.132812 274.726562 1160.132812 270.683594 C 1160.132812 266.644531 1160.035156 262.605469 1159.835938 258.570312 C 1159.640625 254.535156 1159.34375 250.507812 1158.949219 246.488281 C 1158.550781 242.46875 1158.058594 238.460938 1157.464844 234.464844 C 1156.875 230.46875 1156.183594 226.488281 1155.398438 222.523438 C 1154.609375 218.5625 1153.726562 214.621094 1152.746094 210.703125 C 1151.765625 206.78125 1150.691406 202.890625 1149.519531 199.023438 C 1148.347656 195.15625 1147.082031 191.320312 1145.722656 187.515625 C 1144.363281 183.714844 1142.914062 179.945312 1141.371094 176.210938 C 1139.824219 172.476562 1138.191406 168.785156 1136.464844 165.132812 C 1134.742188 161.476562 1132.925781 157.871094 1131.023438 154.304688 C 1129.121094 150.742188 1127.132812 147.226562 1125.058594 143.757812 C 1122.984375 140.292969 1120.828125 136.878906 1118.585938 133.515625 C 1116.34375 130.15625 1114.023438 126.851562 1111.617188 123.605469 C 1109.214844 120.359375 1106.734375 117.171875 1104.171875 114.046875 C 1101.613281 110.921875 1098.976562 107.859375 1096.269531 104.863281 C 1093.558594 101.867188 1090.777344 98.941406 1087.921875 96.082031 Z M 476.046875 523.382812 C 471.359375 526.355469 466.28125 528.3125 460.8125 529.257812 C 458.390625 529.6875 455.953125 529.90625 453.5 529.917969 L 453.101562 529.917969 C 450.285156 529.894531 447.503906 529.59375 444.75 529.015625 C 441.996094 528.433594 439.324219 527.589844 436.742188 526.476562 C 434.15625 525.359375 431.707031 524.003906 429.394531 522.398438 C 427.082031 520.796875 424.949219 518.980469 423 516.949219 C 419.488281 513.285156 416.769531 509.101562 414.847656 504.398438 C 413.316406 500.65625 412.335938 496.773438 411.902344 492.75 C 411.46875 488.730469 411.597656 484.726562 412.292969 480.742188 C 413.097656 476.121094 414.578125 471.730469 416.726562 467.5625 C 418.878906 463.398438 421.601562 459.648438 424.902344 456.316406 L 490.605469 390.617188 C 491.585938 389.636719 492.609375 388.703125 493.679688 387.824219 C 494.753906 386.945312 495.867188 386.117188 497.019531 385.347656 C 498.171875 384.578125 499.359375 383.863281 500.582031 383.210938 C 501.804688 382.554688 503.054688 381.960938 504.335938 381.429688 C 505.617188 380.898438 506.921875 380.433594 508.25 380.03125 C 509.574219 379.628906 510.917969 379.289062 512.277344 379.019531 C 513.640625 378.75 515.007812 378.542969 516.390625 378.410156 C 517.769531 378.273438 519.152344 378.203125 520.539062 378.203125 C 521.925781 378.203125 523.308594 378.269531 524.691406 378.40625 C 526.070312 378.542969 527.441406 378.746094 528.800781 379.015625 C 530.160156 379.285156 531.503906 379.621094 532.832031 380.023438 C 534.15625 380.425781 535.460938 380.894531 536.742188 381.421875 C 538.023438 381.953125 539.277344 382.546875 540.5 383.199219 C 541.722656 383.851562 542.910156 384.566406 544.0625 385.335938 C 545.21875 386.105469 546.328125 386.929688 547.402344 387.808594 C 548.472656 388.691406 549.5 389.621094 550.480469 390.601562 C 551.460938 391.582031 552.390625 392.609375 553.269531 393.679688 C 554.152344 394.75 554.976562 395.863281 555.746094 397.015625 C 556.515625 398.171875 557.230469 399.359375 557.882812 400.582031 C 558.535156 401.804688 559.128906 403.058594 559.660156 404.339844 C 560.1875 405.621094 560.65625 406.921875 561.058594 408.25 C 561.460938 409.578125 561.796875 410.921875 562.066406 412.28125 C 562.335938 413.640625 562.539062 415.011719 562.675781 416.390625 C 562.8125 417.773438 562.878906 419.15625 562.878906 420.542969 C 562.878906 421.929688 562.808594 423.3125 562.675781 424.691406 C 562.539062 426.074219 562.335938 427.441406 562.0625 428.800781 C 561.792969 430.164062 561.457031 431.507812 561.050781 432.832031 C 560.648438 434.160156 560.183594 435.464844 559.652344 436.746094 C 559.121094 438.027344 558.527344 439.277344 557.875 440.5 C 557.21875 441.722656 556.507812 442.910156 555.734375 444.0625 C 554.964844 445.214844 554.140625 446.328125 553.257812 447.398438 C 552.378906 448.472656 551.449219 449.496094 550.464844 450.476562 L 549.1875 451.757812 C 549.125 451.8125 483.421875 517.523438 483.421875 517.523438 C 481.179688 519.75 478.722656 521.703125 476.046875 523.382812 Z M 557.277344 604.613281 C 552.8125 607.714844 547.929688 609.867188 542.625 611.070312 C 539.375 611.832031 536.078125 612.21875 532.738281 612.230469 C 529.921875 612.203125 527.140625 611.898438 524.386719 611.316406 C 521.632812 610.734375 518.964844 609.886719 516.378906 608.773438 C 513.796875 607.660156 511.347656 606.304688 509.03125 604.703125 C 506.71875 603.101562 504.585938 601.289062 502.632812 599.265625 C 500.375 596.910156 498.433594 594.320312 496.804688 591.496094 C 495.175781 588.671875 493.910156 585.695312 493.007812 582.5625 C 491.972656 579.019531 491.398438 575.402344 491.285156 571.710938 C 491.171875 568.023438 491.519531 564.378906 492.332031 560.777344 C 493.53125 555.457031 495.625 550.511719 498.613281 545.953125 C 500.335938 543.308594 502.304688 540.867188 504.53125 538.632812 L 570.234375 472.929688 C 571.214844 471.953125 572.242188 471.03125 573.316406 470.15625 C 574.386719 469.28125 575.5 468.464844 576.652344 467.699219 C 577.804688 466.933594 578.992188 466.226562 580.210938 465.578125 C 581.433594 464.929688 582.683594 464.34375 583.964844 463.816406 C 585.242188 463.292969 586.542969 462.828125 587.867188 462.433594 C 589.191406 462.035156 590.535156 461.699219 591.890625 461.433594 C 593.25 461.167969 594.613281 460.96875 595.992188 460.835938 C 597.367188 460.703125 598.75 460.636719 600.132812 460.640625 C 601.515625 460.640625 602.894531 460.710938 604.269531 460.847656 C 605.644531 460.988281 607.011719 461.191406 608.367188 461.464844 C 609.726562 461.734375 611.0625 462.074219 612.386719 462.476562 C 613.710938 462.878906 615.011719 463.34375 616.289062 463.875 C 617.566406 464.40625 618.8125 464.996094 620.03125 465.648438 C 621.253906 466.300781 622.4375 467.011719 623.585938 467.78125 C 624.734375 468.550781 625.84375 469.375 626.914062 470.25 C 627.984375 471.128906 629.007812 472.058594 629.984375 473.035156 C 630.960938 474.011719 631.890625 475.035156 632.769531 476.105469 C 633.644531 477.175781 634.46875 478.285156 635.238281 479.433594 C 636.007812 480.582031 636.71875 481.765625 637.371094 482.984375 C 638.023438 484.207031 638.617188 485.453125 639.144531 486.730469 C 639.675781 488.007812 640.144531 489.308594 640.546875 490.632812 C 640.949219 491.953125 641.285156 493.292969 641.558594 494.648438 C 641.832031 496.007812 642.035156 497.371094 642.171875 498.75 C 642.3125 500.125 642.382812 501.503906 642.382812 502.886719 C 642.386719 504.269531 642.320312 505.648438 642.1875 507.027344 C 642.054688 508.402344 641.855469 509.769531 641.589844 511.128906 C 641.324219 512.484375 640.992188 513.824219 640.59375 515.148438 C 640.195312 516.472656 639.730469 517.777344 639.207031 519.054688 C 638.679688 520.335938 638.09375 521.585938 637.445312 522.808594 C 636.796875 524.027344 636.089844 525.214844 635.328125 526.367188 C 634.5625 527.519531 633.742188 528.632812 632.867188 529.703125 C 631.996094 530.777344 631.070312 531.804688 630.097656 532.785156 L 628.808594 534.074219 C 628.75 534.125 563.042969 599.832031 563.042969 599.832031 C 561.265625 601.597656 559.34375 603.191406 557.277344 604.613281 Z M 624.445312 692.890625 C 621.117188 693.832031 617.722656 694.359375 614.265625 694.46875 C 613.761719 694.488281 613.265625 694.542969 612.757812 694.542969 L 612.355469 694.542969 C 610.792969 694.523438 609.234375 694.417969 607.679688 694.226562 C 605.277344 693.945312 602.914062 693.457031 600.597656 692.769531 C 598.277344 692.078125 596.035156 691.191406 593.867188 690.113281 C 591.703125 689.035156 589.644531 687.78125 587.695312 686.347656 C 585.746094 684.914062 583.933594 683.320312 582.261719 681.574219 C 579.578125 678.769531 577.339844 675.648438 575.554688 672.199219 C 573.769531 668.753906 572.507812 665.125 571.765625 661.316406 C 571.09375 657.945312 570.824219 654.539062 570.953125 651.101562 C 571.082031 647.664062 571.609375 644.289062 572.527344 640.972656 C 573.585938 637.199219 575.101562 633.613281 577.070312 630.222656 C 579.039062 626.828125 581.402344 623.734375 584.15625 620.941406 L 649.925781 555.183594 C 650.90625 554.214844 651.9375 553.296875 653.007812 552.429688 C 654.082031 551.5625 655.195312 550.75 656.347656 549.992188 C 657.5 549.230469 658.6875 548.53125 659.910156 547.886719 C 661.132812 547.246094 662.382812 546.664062 663.660156 546.144531 C 664.9375 545.625 666.238281 545.167969 667.5625 544.773438 C 668.882812 544.378906 670.222656 544.050781 671.578125 543.789062 C 672.933594 543.527344 674.296875 543.332031 675.671875 543.203125 C 677.046875 543.074219 678.421875 543.011719 679.804688 543.019531 C 681.183594 543.023438 682.5625 543.097656 683.933594 543.238281 C 685.304688 543.378906 686.667969 543.585938 688.023438 543.859375 C 689.375 544.136719 690.710938 544.472656 692.03125 544.878906 C 693.351562 545.285156 694.648438 545.75 695.921875 546.285156 C 697.195312 546.816406 698.4375 547.40625 699.65625 548.058594 C 700.871094 548.714844 702.050781 549.425781 703.199219 550.195312 C 704.34375 550.960938 705.449219 551.785156 706.515625 552.660156 C 707.582031 553.539062 708.601562 554.464844 709.578125 555.441406 C 710.550781 556.417969 711.476562 557.441406 712.351562 558.507812 C 713.226562 559.574219 714.046875 560.683594 714.816406 561.832031 C 715.582031 562.980469 716.289062 564.160156 716.941406 565.378906 C 717.59375 566.59375 718.183594 567.839844 718.710938 569.117188 C 719.242188 570.390625 719.707031 571.6875 720.109375 573.007812 C 720.511719 574.328125 720.847656 575.664062 721.121094 577.019531 C 721.390625 578.371094 721.597656 579.734375 721.734375 581.105469 C 721.875 582.480469 721.945312 583.855469 721.949219 585.238281 C 721.953125 586.617188 721.886719 587.996094 721.757812 589.367188 C 721.625 590.742188 721.425781 592.105469 721.164062 593.460938 C 720.898438 594.816406 720.566406 596.152344 720.171875 597.476562 C 719.777344 598.800781 719.316406 600.097656 718.796875 601.375 C 718.273438 602.652344 717.6875 603.902344 717.042969 605.121094 C 716.398438 606.34375 715.695312 607.527344 714.933594 608.679688 C 714.175781 609.832031 713.359375 610.941406 712.488281 612.015625 C 711.621094 613.085938 710.699219 614.113281 709.730469 615.09375 L 708.390625 616.4375 L 698.609375 626.214844 L 642.683594 682.140625 C 640.152344 684.679688 637.339844 686.863281 634.25 688.683594 C 631.160156 690.503906 627.890625 691.90625 624.445312 692.890625 Z M 799.75 680.234375 C 798.734375 683.476562 797.351562 686.550781 795.59375 689.453125 C 793.835938 692.359375 791.753906 695.015625 789.351562 697.414062 L 781.902344 704.863281 L 722.308594 764.460938 C 720.339844 766.417969 718.199219 768.167969 715.886719 769.707031 C 713.574219 771.246094 711.136719 772.550781 708.570312 773.613281 C 706.003906 774.675781 703.359375 775.480469 700.636719 776.027344 C 697.910156 776.570312 695.160156 776.847656 692.382812 776.855469 L 691.988281 776.855469 C 689.171875 776.835938 686.386719 776.539062 683.632812 775.960938 C 680.878906 775.382812 678.207031 774.539062 675.621094 773.425781 C 673.035156 772.3125 670.585938 770.953125 668.273438 769.347656 C 665.964844 767.742188 663.832031 765.921875 661.886719 763.886719 C 650.878906 752.472656 647.917969 735.925781 652.75 721.195312 C 653.859375 717.8125 655.347656 714.605469 657.210938 711.574219 C 659.078125 708.542969 661.269531 705.769531 663.789062 703.253906 L 729.492188 637.550781 C 730.324219 636.71875 731.1875 635.921875 732.082031 635.164062 C 732.976562 634.40625 733.90625 633.683594 734.859375 633.003906 C 735.816406 632.320312 736.800781 631.679688 737.808594 631.078125 C 738.820312 630.480469 739.851562 629.921875 740.910156 629.410156 C 741.964844 628.894531 743.039062 628.425781 744.136719 628 C 745.230469 627.578125 746.339844 627.199219 747.46875 626.867188 C 748.59375 626.535156 749.734375 626.25 750.882812 626.011719 C 752.035156 625.777344 753.191406 625.585938 754.359375 625.445312 C 755.523438 625.304688 756.695312 625.214844 757.867188 625.171875 C 759.042969 625.128906 760.214844 625.132812 761.386719 625.1875 C 762.5625 625.242188 763.730469 625.34375 764.894531 625.496094 C 766.058594 625.648438 767.214844 625.847656 768.363281 626.097656 C 769.511719 626.347656 770.648438 626.640625 771.773438 626.984375 C 772.894531 627.328125 774.003906 627.714844 775.09375 628.152344 C 776.183594 628.585938 777.253906 629.066406 778.304688 629.589844 C 779.355469 630.113281 780.386719 630.683594 781.386719 631.292969 C 782.390625 631.902344 783.367188 632.550781 784.320312 633.242188 C 785.269531 633.933594 786.1875 634.664062 787.078125 635.433594 C 787.964844 636.199219 788.820312 637.003906 789.644531 637.839844 C 790.464844 638.679688 791.25 639.550781 792 640.457031 C 792.75 641.363281 793.460938 642.296875 794.128906 643.257812 C 794.800781 644.222656 795.433594 645.210938 796.023438 646.230469 C 796.609375 647.246094 797.15625 648.285156 797.660156 649.34375 C 798.160156 650.40625 798.621094 651.488281 799.03125 652.585938 C 799.445312 653.6875 799.808594 654.800781 800.128906 655.933594 C 800.449219 657.0625 800.722656 658.203125 800.945312 659.355469 C 801.171875 660.507812 801.347656 661.671875 801.476562 662.835938 C 801.601562 664.003906 801.683594 665.175781 801.714844 666.351562 C 801.742188 667.523438 801.726562 668.699219 801.65625 669.871094 C 801.589844 671.042969 801.472656 672.210938 801.308594 673.375 C 801.144531 674.535156 800.933594 675.691406 800.671875 676.835938 C 800.410156 677.980469 800.105469 679.113281 799.75 680.234375 Z M 1007.222656 508.878906 C 1006.238281 509.855469 1005.210938 510.78125 1004.136719 511.65625 C 1003.0625 512.53125 1001.949219 513.351562 1000.796875 514.117188 C 999.640625 514.882812 998.453125 515.59375 997.230469 516.242188 C 996.007812 516.894531 994.757812 517.480469 993.476562 518.007812 C 992.195312 518.535156 990.894531 519 989.566406 519.402344 C 988.242188 519.800781 986.898438 520.136719 985.539062 520.40625 C 984.183594 520.671875 982.8125 520.875 981.433594 521.011719 C 980.058594 521.144531 978.675781 521.214844 977.289062 521.214844 C 975.90625 521.214844 974.523438 521.144531 973.144531 521.011719 C 971.765625 520.875 970.398438 520.671875 969.039062 520.40625 C 967.683594 520.136719 966.339844 519.800781 965.011719 519.402344 C 963.6875 519 962.382812 518.535156 961.105469 518.007812 C 959.824219 517.480469 958.570312 516.894531 957.347656 516.242188 C 956.125 515.59375 954.9375 514.882812 953.785156 514.117188 C 952.628906 513.351562 951.515625 512.53125 950.445312 511.65625 C 949.371094 510.78125 948.34375 509.855469 947.359375 508.878906 L 838.125 399.644531 C 837.429688 398.953125 836.675781 398.335938 835.863281 397.789062 C 835.046875 397.246094 834.1875 396.785156 833.28125 396.410156 C 832.375 396.035156 831.441406 395.753906 830.480469 395.5625 C 829.519531 395.371094 828.550781 395.273438 827.570312 395.273438 C 826.589844 395.273438 825.617188 395.371094 824.65625 395.5625 C 823.695312 395.753906 822.761719 396.035156 821.859375 396.410156 C 820.953125 396.785156 820.09375 397.246094 819.277344 397.789062 C 818.460938 398.335938 817.707031 398.953125 817.015625 399.644531 C 816.324219 400.339844 815.703125 401.09375 815.160156 401.90625 C 814.613281 402.722656 814.15625 403.582031 813.78125 404.488281 C 813.40625 405.394531 813.121094 406.328125 812.929688 407.289062 C 812.738281 408.25 812.644531 409.21875 812.644531 410.199219 C 812.644531 411.179688 812.738281 412.152344 812.929688 413.113281 C 813.121094 414.074219 813.40625 415.007812 813.78125 415.914062 C 814.15625 416.816406 814.613281 417.679688 815.160156 418.492188 C 815.703125 419.308594 816.324219 420.0625 817.015625 420.753906 L 926.25 529.988281 C 928.941406 532.675781 931.222656 535.671875 933.097656 538.976562 C 934.972656 542.285156 936.371094 545.78125 937.296875 549.46875 C 938.179688 552.894531 938.628906 556.375 938.640625 559.914062 C 938.644531 561.300781 938.574219 562.683594 938.4375 564.0625 C 938.304688 565.441406 938.101562 566.8125 937.832031 568.171875 C 937.558594 569.53125 937.222656 570.875 936.820312 572.203125 C 936.417969 573.527344 935.953125 574.832031 935.421875 576.113281 C 934.894531 577.394531 934.300781 578.644531 933.648438 579.867188 C 932.992188 581.089844 932.28125 582.28125 931.511719 583.433594 C 930.742188 584.585938 929.917969 585.695312 929.039062 586.769531 C 928.160156 587.839844 927.226562 588.867188 926.25 589.847656 C 925.269531 590.828125 924.242188 591.757812 923.171875 592.636719 C 922.097656 593.515625 920.984375 594.339844 919.832031 595.109375 C 918.679688 595.882812 917.492188 596.59375 916.269531 597.246094 C 915.046875 597.898438 913.796875 598.492188 912.515625 599.023438 C 911.234375 599.550781 909.929688 600.019531 908.601562 600.421875 C 907.277344 600.824219 905.933594 601.160156 904.574219 601.429688 C 903.214844 601.699219 901.84375 601.902344 900.464844 602.039062 C 899.085938 602.175781 897.703125 602.242188 896.316406 602.242188 C 892.773438 602.226562 889.292969 601.78125 885.863281 600.898438 C 882.175781 599.96875 878.679688 598.566406 875.375 596.691406 C 872.066406 594.8125 869.070312 592.53125 866.382812 589.839844 L 757.152344 480.609375 C 756.460938 479.917969 755.707031 479.300781 754.890625 478.757812 C 754.078125 478.214844 753.214844 477.757812 752.3125 477.382812 C 751.40625 477.011719 750.472656 476.726562 749.511719 476.539062 C 748.550781 476.347656 747.582031 476.253906 746.605469 476.253906 C 745.625 476.253906 744.65625 476.351562 743.695312 476.542969 C 742.734375 476.734375 741.800781 477.015625 740.898438 477.390625 C 739.992188 477.765625 739.132812 478.226562 738.320312 478.769531 C 737.503906 479.316406 736.75 479.933594 736.058594 480.625 C 735.367188 481.316406 734.75 482.070312 734.203125 482.886719 C 733.660156 483.699219 733.199219 484.558594 732.824219 485.464844 C 732.449219 486.367188 732.167969 487.300781 731.976562 488.261719 C 731.785156 489.222656 731.6875 490.191406 731.6875 491.167969 C 731.6875 492.148438 731.78125 493.117188 731.972656 494.078125 C 732.164062 495.039062 732.445312 495.972656 732.816406 496.878906 C 733.191406 497.78125 733.648438 498.644531 734.191406 499.457031 C 734.734375 500.273438 735.351562 501.027344 736.042969 501.71875 L 845.277344 610.949219 C 847.96875 613.636719 850.253906 616.632812 852.128906 619.941406 C 854.003906 623.246094 855.40625 626.742188 856.335938 630.429688 C 857.21875 633.859375 857.667969 637.339844 857.679688 640.882812 C 857.683594 643.015625 857.523438 645.136719 857.203125 647.25 C 856.882812 649.359375 856.40625 651.433594 855.769531 653.46875 C 855.136719 655.507812 854.351562 657.484375 853.417969 659.40625 C 852.484375 661.324219 851.410156 663.160156 850.199219 664.917969 C 848.984375 666.675781 847.648438 668.328125 846.183594 669.882812 C 844.71875 671.4375 843.148438 672.871094 841.46875 674.1875 C 839.785156 675.503906 838.015625 676.683594 836.15625 677.730469 C 834.296875 678.777344 832.367188 679.679688 830.371094 680.433594 C 830.582031 679.296875 830.714844 678.148438 830.867188 677.003906 C 831.789062 670.042969 831.699219 663.09375 830.609375 656.15625 C 830.429688 655.023438 830.226562 653.890625 829.996094 652.765625 C 829.765625 651.640625 829.507812 650.519531 829.222656 649.40625 C 828.941406 648.292969 828.628906 647.1875 828.292969 646.089844 C 827.953125 644.988281 827.589844 643.902344 827.199219 642.820312 C 826.8125 641.738281 826.394531 640.667969 825.953125 639.605469 C 825.511719 638.546875 825.046875 637.496094 824.554688 636.457031 C 824.0625 635.417969 823.546875 634.390625 823.007812 633.378906 C 822.464844 632.363281 821.902344 631.363281 821.3125 630.375 C 820.722656 629.390625 820.109375 628.417969 819.476562 627.460938 C 818.839844 626.503906 818.183594 625.5625 817.5 624.636719 C 816.820312 623.710938 816.117188 622.800781 815.394531 621.910156 C 814.667969 621.015625 813.925781 620.140625 813.15625 619.285156 C 812.390625 618.429688 811.605469 617.59375 810.796875 616.773438 C 809.992188 615.953125 809.167969 615.15625 808.320312 614.375 C 807.476562 613.597656 806.613281 612.839844 805.734375 612.101562 C 804.851562 611.363281 803.953125 610.648438 803.039062 609.953125 C 802.121094 609.257812 801.191406 608.585938 800.242188 607.9375 C 799.292969 607.289062 798.332031 606.660156 797.355469 606.058594 C 796.375 605.453125 795.382812 604.875 794.378906 604.320312 C 793.371094 603.761719 792.355469 603.230469 791.324219 602.722656 C 790.292969 602.21875 789.25 601.734375 788.195312 601.277344 C 787.140625 600.820312 786.074219 600.390625 785 599.984375 C 783.925781 599.578125 782.839844 599.199219 781.746094 598.84375 C 780.65625 598.492188 779.554688 598.164062 778.445312 597.863281 C 777.335938 597.5625 776.21875 597.289062 775.097656 597.039062 C 773.976562 596.792969 772.847656 596.570312 771.714844 596.378906 C 770.582031 596.183594 769.445312 596.019531 768.304688 595.878906 C 767.164062 595.742188 766.019531 595.628906 764.875 595.546875 C 763.726562 595.460938 762.582031 595.40625 761.433594 595.378906 C 760.285156 595.347656 759.132812 595.347656 757.984375 595.375 C 756.835938 595.398438 755.6875 595.453125 754.542969 595.535156 C 753.398438 595.617188 752.253906 595.726562 751.113281 595.863281 C 751.171875 595.457031 751.238281 595.050781 751.292969 594.644531 C 751.726562 591.5 751.957031 588.339844 751.980469 585.167969 C 751.984375 583.898438 751.949219 582.632812 751.882812 581.363281 C 751.816406 580.097656 751.71875 578.835938 751.585938 577.574219 C 751.453125 576.3125 751.285156 575.054688 751.085938 573.800781 C 750.886719 572.550781 750.65625 571.300781 750.390625 570.0625 C 750.125 568.820312 749.828125 567.589844 749.5 566.363281 C 749.167969 565.140625 748.804688 563.925781 748.410156 562.71875 C 748.019531 561.511719 747.59375 560.320312 747.132812 559.136719 C 746.675781 557.953125 746.1875 556.78125 745.667969 555.625 C 745.152344 554.46875 744.601562 553.324219 744.023438 552.199219 C 743.441406 551.070312 742.832031 549.957031 742.195312 548.859375 C 741.558594 547.765625 740.890625 546.6875 740.195312 545.625 C 739.5 544.5625 738.777344 543.523438 738.027344 542.5 C 737.277344 541.476562 736.5 540.476562 735.699219 539.492188 C 734.894531 538.511719 734.066406 537.550781 733.210938 536.613281 C 732.359375 535.675781 731.480469 534.761719 730.578125 533.867188 C 729.675781 532.976562 728.75 532.109375 727.804688 531.265625 C 726.855469 530.425781 725.886719 529.605469 724.894531 528.816406 C 723.90625 528.023438 722.894531 527.257812 721.863281 526.519531 C 720.832031 525.78125 719.78125 525.070312 718.710938 524.390625 C 717.640625 523.707031 716.554688 523.050781 715.453125 522.425781 C 714.347656 521.800781 713.230469 521.207031 712.09375 520.640625 C 710.960938 520.074219 709.8125 519.539062 708.648438 519.03125 C 707.484375 518.527344 706.308594 518.050781 705.121094 517.609375 C 703.933594 517.164062 702.734375 516.753906 701.523438 516.371094 C 700.3125 515.992188 699.09375 515.644531 697.867188 515.328125 C 696.636719 515.011719 695.402344 514.730469 694.15625 514.476562 C 692.914062 514.226562 691.664062 514.011719 690.410156 513.824219 C 689.15625 513.640625 687.898438 513.488281 686.632812 513.371094 C 685.371094 513.253906 684.105469 513.167969 682.839844 513.117188 C 681.570312 513.066406 680.304688 513.046875 679.035156 513.0625 C 677.765625 513.078125 676.5 513.128906 675.234375 513.210938 C 673.96875 513.292969 672.707031 513.410156 671.445312 513.558594 C 671.503906 513.164062 671.5625 512.773438 671.617188 512.382812 C 671.789062 511.113281 671.925781 509.839844 672.03125 508.5625 C 672.132812 507.289062 672.203125 506.007812 672.238281 504.730469 C 672.273438 503.449219 672.277344 502.167969 672.246094 500.886719 C 672.210938 499.609375 672.144531 498.328125 672.046875 497.054688 C 671.945312 495.777344 671.808594 494.503906 671.640625 493.234375 C 671.472656 491.964844 671.269531 490.699219 671.035156 489.441406 C 670.800781 488.183594 670.53125 486.929688 670.226562 485.6875 C 669.925781 484.441406 669.589844 483.207031 669.21875 481.980469 C 668.851562 480.753906 668.449219 479.539062 668.015625 478.332031 C 667.582031 477.128906 667.117188 475.9375 666.621094 474.753906 C 666.125 473.574219 665.597656 472.410156 665.039062 471.257812 C 664.476562 470.105469 663.890625 468.96875 663.269531 467.847656 C 662.648438 466.726562 662 465.625 661.320312 464.539062 C 660.644531 463.453125 659.9375 462.386719 659.199219 461.335938 C 658.464844 460.289062 657.703125 459.261719 656.910156 458.253906 C 656.121094 457.246094 655.304688 456.257812 654.460938 455.296875 C 653.617188 454.332031 652.75 453.390625 651.855469 452.472656 C 650.964844 451.554688 650.046875 450.660156 649.105469 449.792969 C 648.164062 448.921875 647.203125 448.082031 646.214844 447.261719 C 645.230469 446.445312 644.222656 445.65625 643.195312 444.890625 C 642.167969 444.128906 641.121094 443.390625 640.054688 442.683594 C 638.984375 441.976562 637.902344 441.296875 636.796875 440.644531 C 635.695312 439.996094 634.574219 439.375 633.4375 438.785156 C 632.300781 438.195312 631.148438 437.636719 629.984375 437.105469 C 628.816406 436.578125 627.636719 436.082031 626.445312 435.613281 C 625.253906 435.148438 624.046875 434.714844 622.832031 434.3125 C 621.617188 433.910156 620.390625 433.542969 619.152344 433.207031 C 617.917969 432.867188 616.675781 432.566406 615.421875 432.296875 C 614.171875 432.027344 612.914062 431.789062 611.648438 431.585938 C 610.382812 431.382812 609.113281 431.214844 607.839844 431.078125 C 606.566406 430.941406 605.292969 430.84375 604.011719 430.773438 C 602.734375 430.707031 601.453125 430.675781 600.175781 430.675781 C 597.378906 430.691406 594.597656 430.867188 591.824219 431.203125 C 591.878906 430.824219 591.933594 430.449219 591.984375 430.074219 C 592.320312 427.578125 592.523438 425.070312 592.597656 422.550781 C 592.671875 420.035156 592.609375 417.519531 592.417969 415.007812 C 592.226562 412.496094 591.90625 410 591.453125 407.523438 C 591 405.046875 590.417969 402.597656 589.710938 400.183594 C 589 397.765625 588.167969 395.390625 587.207031 393.0625 C 586.25 390.734375 585.171875 388.460938 583.976562 386.242188 C 582.78125 384.027344 581.46875 381.878906 580.046875 379.800781 C 578.625 377.722656 577.101562 375.722656 575.46875 373.804688 C 574.222656 372.339844 572.964844 370.882812 571.585938 369.503906 C 570.203125 368.125 568.75 366.871094 567.292969 365.625 C 562.121094 361.21875 556.4375 357.621094 550.242188 354.832031 C 544.046875 352.042969 537.585938 350.171875 530.859375 349.21875 C 526.027344 348.523438 521.171875 348.316406 516.296875 348.601562 C 514.527344 348.703125 512.769531 348.871094 511.015625 349.101562 C 507.113281 349.605469 503.28125 350.425781 499.515625 351.558594 C 495.746094 352.695312 492.097656 354.128906 488.570312 355.863281 C 485.039062 357.597656 481.675781 359.609375 478.476562 361.898438 C 475.273438 364.1875 472.285156 366.722656 469.503906 369.503906 C 469.503906 369.503906 403.800781 435.207031 403.800781 435.207031 C 401.148438 437.894531 398.71875 440.769531 396.5 443.828125 L 374.730469 422.066406 C 372.25 419.589844 369.835938 417.054688 367.480469 414.457031 C 365.125 411.863281 362.835938 409.210938 360.609375 406.5 C 358.386719 403.792969 356.226562 401.03125 354.140625 398.21875 C 352.050781 395.402344 350.03125 392.539062 348.082031 389.625 C 346.132812 386.714844 344.257812 383.753906 342.457031 380.75 C 340.652344 377.742188 338.925781 374.695312 337.269531 371.605469 C 335.617188 368.515625 334.039062 365.386719 332.542969 362.21875 C 331.042969 359.050781 329.621094 355.847656 328.277344 352.609375 C 326.933594 349.371094 325.671875 346.101562 324.492188 342.804688 C 323.308594 339.503906 322.210938 336.179688 321.191406 332.824219 C 320.171875 329.46875 319.238281 326.09375 318.382812 322.695312 C 317.53125 319.296875 316.761719 315.875 316.078125 312.4375 C 315.394531 309.003906 314.792969 305.550781 314.277344 302.082031 C 313.761719 298.617188 313.332031 295.140625 312.988281 291.652344 C 312.644531 288.164062 312.382812 284.667969 312.210938 281.167969 C 312.039062 277.667969 311.953125 274.164062 311.949219 270.660156 C 311.949219 267.15625 312.035156 263.652344 312.207031 260.152344 C 312.378906 256.652344 312.632812 253.15625 312.976562 249.667969 C 313.320312 246.179688 313.75 242.703125 314.261719 239.238281 C 314.773438 235.769531 315.375 232.316406 316.058594 228.878906 C 316.738281 225.441406 317.507812 222.023438 318.359375 218.625 C 319.207031 215.222656 320.144531 211.847656 321.160156 208.492188 C 322.175781 205.136719 323.273438 201.8125 324.457031 198.511719 C 325.636719 195.210938 326.894531 191.941406 328.238281 188.703125 C 329.578125 185.464844 330.996094 182.261719 332.496094 179.09375 C 333.992188 175.925781 335.570312 172.796875 337.21875 169.703125 C 338.871094 166.613281 340.597656 163.5625 342.402344 160.558594 C 344.203125 157.550781 346.078125 154.589844 348.023438 151.675781 C 349.972656 148.761719 351.988281 145.898438 354.074219 143.082031 C 356.164062 140.265625 358.320312 137.503906 360.542969 134.796875 C 362.765625 132.085938 365.054688 129.433594 367.40625 126.835938 C 369.761719 124.238281 372.175781 121.703125 374.65625 119.222656 C 377.132812 116.746094 379.671875 114.328125 382.269531 111.976562 C 384.867188 109.621094 387.519531 107.332031 390.226562 105.109375 C 392.9375 102.886719 395.699219 100.730469 398.515625 98.644531 C 401.328125 96.554688 404.195312 94.539062 407.109375 92.589844 C 410.023438 90.644531 412.984375 88.769531 415.988281 86.96875 C 418.996094 85.167969 422.046875 83.4375 425.136719 81.789062 C 428.226562 80.136719 431.355469 78.5625 434.527344 77.0625 C 437.695312 75.5625 440.898438 74.144531 444.136719 72.804688 C 447.375 71.464844 450.644531 70.203125 453.941406 69.023438 C 457.242188 67.839844 460.570312 66.742188 463.925781 65.726562 C 467.277344 64.710938 470.65625 63.773438 474.054688 62.925781 C 477.457031 62.074219 480.875 61.304688 484.3125 60.621094 C 487.75 59.941406 491.203125 59.339844 494.667969 58.828125 C 498.136719 58.3125 501.613281 57.886719 505.101562 57.542969 C 508.589844 57.199219 512.082031 56.945312 515.585938 56.773438 C 519.085938 56.601562 522.585938 56.515625 526.09375 56.515625 C 529.597656 56.515625 533.101562 56.605469 536.601562 56.777344 C 540.101562 56.949219 543.59375 57.207031 547.082031 57.554688 C 550.570312 57.898438 554.046875 58.328125 557.515625 58.84375 C 560.980469 59.359375 564.433594 59.957031 567.871094 60.644531 C 571.308594 61.328125 574.726562 62.097656 578.125 62.949219 C 581.527344 63.800781 584.902344 64.738281 588.257812 65.757812 C 591.609375 66.773438 594.9375 67.875 598.234375 69.054688 C 601.535156 70.238281 604.804688 71.5 608.042969 72.84375 C 611.277344 74.183594 614.480469 75.605469 617.648438 77.105469 C 620.816406 78.605469 623.945312 80.183594 627.035156 81.835938 C 630.128906 83.488281 633.175781 85.21875 636.179688 87.019531 C 639.1875 88.824219 642.144531 90.699219 645.058594 92.648438 C 647.972656 94.597656 650.835938 96.613281 653.648438 98.703125 C 656.464844 100.792969 659.226562 102.949219 661.933594 105.175781 C 664.640625 107.398438 667.292969 109.6875 669.890625 112.042969 C 672.484375 114.398438 675.023438 116.816406 677.5 119.296875 L 698.601562 140.402344 L 568.671875 270.332031 C 567.972656 271.035156 567.308594 271.773438 566.679688 272.539062 C 566.046875 273.304688 565.457031 274.101562 564.902344 274.925781 C 564.347656 275.75 563.835938 276.597656 563.359375 277.472656 C 562.886719 278.34375 562.457031 279.238281 562.066406 280.152344 C 561.679688 281.0625 561.335938 281.996094 561.035156 282.941406 C 560.734375 283.886719 560.480469 284.847656 560.273438 285.816406 C 560.0625 286.785156 559.902344 287.765625 559.785156 288.75 C 559.671875 289.738281 559.601562 290.726562 559.582031 291.71875 C 559.558594 292.710938 559.585938 293.703125 559.65625 294.695312 C 559.730469 295.683594 559.851562 296.667969 560.015625 297.648438 C 560.183594 298.625 560.394531 299.59375 560.65625 300.554688 C 560.914062 301.511719 561.21875 302.457031 561.566406 303.386719 C 561.914062 304.316406 562.308594 305.226562 562.742188 306.117188 C 563.175781 307.011719 563.652344 307.878906 564.171875 308.726562 C 564.691406 309.574219 565.246094 310.394531 565.84375 311.1875 C 566.441406 311.984375 567.070312 312.746094 567.742188 313.480469 C 568.078125 313.851562 568.320312 314.273438 568.679688 314.628906 C 569.988281 315.9375 571.328125 317.210938 572.699219 318.449219 C 574.070312 319.691406 575.472656 320.898438 576.902344 322.070312 C 578.332031 323.242188 579.792969 324.375 581.277344 325.476562 C 582.765625 326.578125 584.277344 327.640625 585.816406 328.667969 C 587.355469 329.691406 588.917969 330.679688 590.503906 331.628906 C 592.089844 332.582031 593.699219 333.492188 595.332031 334.359375 C 596.964844 335.230469 598.617188 336.0625 600.289062 336.851562 C 601.960938 337.640625 603.652344 338.390625 605.359375 339.097656 C 607.070312 339.804688 608.792969 340.46875 610.535156 341.089844 C 612.277344 341.710938 614.03125 342.292969 615.800781 342.828125 C 617.574219 343.363281 619.355469 343.855469 621.148438 344.304688 C 622.941406 344.753906 624.746094 345.15625 626.558594 345.519531 C 628.375 345.878906 630.195312 346.195312 632.023438 346.464844 C 633.855469 346.734375 635.691406 346.960938 637.53125 347.144531 C 639.371094 347.324219 641.214844 347.460938 643.0625 347.550781 C 644.910156 347.640625 646.757812 347.6875 648.605469 347.6875 C 650.457031 347.6875 652.304688 347.640625 654.152344 347.550781 C 655.996094 347.460938 657.839844 347.324219 659.683594 347.144531 C 661.523438 346.960938 663.359375 346.734375 665.1875 346.464844 C 667.015625 346.195312 668.839844 345.878906 670.652344 345.519531 C 672.464844 345.15625 674.269531 344.753906 676.0625 344.304688 C 677.859375 343.855469 679.640625 343.363281 681.410156 342.828125 C 683.179688 342.292969 684.933594 341.710938 686.675781 341.089844 C 688.417969 340.46875 690.144531 339.804688 691.851562 339.097656 C 693.5625 338.390625 695.253906 337.640625 696.925781 336.851562 C 698.597656 336.0625 700.25 335.230469 701.878906 334.359375 C 703.511719 333.492188 705.121094 332.582031 706.707031 331.628906 C 708.296875 330.679688 709.859375 329.691406 711.394531 328.667969 C 712.933594 327.640625 714.445312 326.578125 715.933594 325.476562 C 717.417969 324.375 718.878906 323.242188 720.308594 322.070312 C 721.738281 320.898438 723.140625 319.691406 724.511719 318.449219 C 725.882812 317.210938 727.222656 315.9375 728.535156 314.628906 L 800.679688 242.480469 L 897.992188 339.78125 L 924.710938 366.503906 L 1007.226562 449.015625 C 1008.203125 450 1009.128906 451.027344 1010.003906 452.101562 C 1010.878906 453.175781 1011.699219 454.289062 1012.464844 455.441406 C 1013.230469 456.597656 1013.9375 457.785156 1014.589844 459.007812 C 1015.238281 460.230469 1015.828125 461.480469 1016.355469 462.761719 C 1016.882812 464.042969 1017.347656 465.347656 1017.746094 466.671875 C 1018.148438 467.996094 1018.480469 469.339844 1018.75 470.699219 C 1019.019531 472.058594 1019.222656 473.425781 1019.355469 474.804688 C 1019.492188 476.183594 1019.558594 477.5625 1019.558594 478.949219 C 1019.558594 480.332031 1019.492188 481.714844 1019.355469 483.09375 C 1019.222656 484.472656 1019.019531 485.839844 1018.75 487.199219 C 1018.480469 488.558594 1018.148438 489.898438 1017.746094 491.226562 C 1017.347656 492.550781 1016.882812 493.855469 1016.355469 495.136719 C 1015.828125 496.414062 1015.238281 497.667969 1014.589844 498.890625 C 1013.9375 500.113281 1013.230469 501.300781 1012.464844 502.453125 C 1011.699219 503.609375 1010.878906 504.722656 1010.003906 505.796875 C 1009.128906 506.867188 1008.203125 507.898438 1007.226562 508.878906 Z M 1064.699219 422.066406 L 1041.257812 445.507812 C 1037.847656 438.980469 1033.539062 433.113281 1028.332031 427.910156 L 945.8125 345.394531 L 919.097656 318.675781 L 817.101562 216.679688 C 816.835938 215.355469 816.402344 214.085938 815.792969 212.878906 C 815.1875 211.671875 814.429688 210.570312 813.519531 209.566406 C 812.613281 208.566406 811.589844 207.703125 810.445312 206.980469 C 809.304688 206.257812 808.089844 205.699219 806.796875 205.308594 C 805.5 204.914062 804.179688 204.699219 802.828125 204.667969 C 801.476562 204.632812 800.148438 204.78125 798.835938 205.109375 C 797.523438 205.4375 796.28125 205.933594 795.105469 206.601562 C 793.929688 207.265625 792.863281 208.078125 791.90625 209.03125 L 790.125 210.8125 L 779.570312 221.371094 L 707.425781 293.519531 C 706.460938 294.480469 705.476562 295.417969 704.464844 296.332031 C 703.457031 297.246094 702.425781 298.132812 701.375 298.996094 C 700.320312 299.855469 699.246094 300.695312 698.152344 301.503906 C 697.058594 302.3125 695.945312 303.09375 694.8125 303.851562 C 693.683594 304.605469 692.53125 305.332031 691.363281 306.03125 C 690.195312 306.730469 689.011719 307.398438 687.8125 308.039062 C 686.609375 308.679688 685.394531 309.292969 684.164062 309.871094 C 682.933594 310.453125 681.691406 311.003906 680.433594 311.523438 C 679.175781 312.042969 677.90625 312.535156 676.625 312.992188 C 675.339844 313.449219 674.050781 313.875 672.746094 314.269531 C 671.445312 314.664062 670.132812 315.027344 668.8125 315.355469 C 667.492188 315.6875 666.164062 315.984375 664.832031 316.25 C 663.496094 316.515625 662.15625 316.746094 660.808594 316.945312 C 659.460938 317.148438 658.113281 317.3125 656.757812 317.445312 C 655.402344 317.578125 654.046875 317.679688 652.6875 317.746094 C 651.328125 317.8125 649.96875 317.847656 648.605469 317.847656 C 647.246094 317.847656 645.886719 317.8125 644.527344 317.746094 C 643.167969 317.679688 641.8125 317.578125 640.457031 317.445312 C 639.101562 317.3125 637.75 317.148438 636.40625 316.945312 C 635.058594 316.746094 633.71875 316.515625 632.382812 316.25 C 631.050781 315.984375 629.722656 315.6875 628.402344 315.355469 C 627.082031 315.027344 625.769531 314.664062 624.46875 314.269531 C 623.164062 313.875 621.871094 313.449219 620.589844 312.992188 C 619.308594 312.535156 618.039062 312.042969 616.78125 311.523438 C 615.523438 311.003906 614.28125 310.453125 613.050781 309.871094 C 611.820312 309.292969 610.605469 308.679688 609.402344 308.039062 C 608.203125 307.398438 607.019531 306.730469 605.851562 306.03125 C 604.683594 305.332031 603.53125 304.605469 602.398438 303.851562 C 601.269531 303.09375 600.15625 302.3125 599.0625 301.503906 C 597.96875 300.695312 596.894531 299.855469 595.839844 298.996094 C 594.789062 298.132812 593.757812 297.246094 592.75 296.332031 C 591.738281 295.417969 590.753906 294.480469 589.789062 293.519531 C 589.652344 293.382812 589.546875 293.222656 589.472656 293.042969 C 589.398438 292.859375 589.359375 292.671875 589.359375 292.476562 C 589.359375 292.28125 589.398438 292.09375 589.472656 291.914062 C 589.546875 291.734375 589.652344 291.574219 589.789062 291.433594 L 719.714844 161.511719 L 761.929688 119.296875 C 761.953125 119.265625 781.917969 99.300781 781.917969 99.300781 C 855.914062 25.316406 994.683594 49.292969 1064.699219 119.296875 C 1148.171875 202.769531 1148.171875 338.59375 1064.699219 422.066406 Z M 1064.699219 422.066406 "/></g></svg>