<?xml version="1.0" encoding="UTF-8"?>
<svg id="Layer_1" xmlns="http://www.w3.org/2000/svg" version="1.1" viewBox="0 0 1000 1000">
  <!-- Generator: Adobe Illustrator 29.5.1, SVG Export Plug-In . SVG Version: 2.1.0 Build 141)  -->
  <defs>
    <style>
      .st0 {
        fill: #f0e7d8;
      }
    </style>
  </defs>
  <path class="st0" d="M833.96,230.39l-55.71-60.12-73.79,76.52s-44.32-39.45-105.29-37.43c-60.96,2.02-127.02,46.04-157.4,85.83,0,0-14.97-71.01-84.7-85.13s-125.83,53.12-191.03,161.49l73.06,39.91s25.89-59.81,54.64-91.06,41.4-31.48,52.22-29.79c11.43,1.77,27.86,19.46,13.06,83.94-14.8,64.48-40.23,152.65-71.24,237.94-31.02,85.29-56.82,160.83-56.82,160.83l75.68,25.28s61.23-185.08,96.17-267.2c34.94-82.11,131.25-295.41,245.61-223.73,0,0-86.19,97.89-137,202.04-50.8,104.15-82.02,183.83-57.72,245.46,24.29,61.62,90.84,98.03,157,57.35,66.16-40.69,139.77-184.69,153.27-312.19s-15.67-185.14-15.67-185.14l85.66-84.8ZM546.9,749.84c-34.1-11.37-.79-117.99-.79-117.99,41.29-130.86,137.98-237.46,137.98-237.46,6.61,227.4-103.09,366.82-137.19,355.45Z"/>
</svg>